<?xml version="1.0" encoding="UTF-8" standalone="no"?>
<svg
   xmlns:dc="http://purl.org/dc/elements/1.1/"
   xmlns:cc="http://creativecommons.org/ns#"
   xmlns:rdf="http://www.w3.org/1999/02/22-rdf-syntax-ns#"
   xmlns:svg="http://www.w3.org/2000/svg"
   xmlns="http://www.w3.org/2000/svg"
   xmlns:sodipodi="http://sodipodi.sourceforge.net/DTD/sodipodi-0.dtd"
   xmlns:inkscape="http://www.inkscape.org/namespaces/inkscape"
   width="210mm"
   height="297mm"
   viewBox="0 0 210 297"
   version="1.1"
   id="svg8"
   inkscape:version="1.0.2-2 (e86c870879, 2021-01-15)"
   sodipodi:docname="drawing.svg">
  <defs
     id="defs2">
    <rect
       x="57.783404"
       y="231.13361"
       width="88.979352"
       height="37.576937"
       id="rect92" />
    <rect
       x="42.894428"
       y="209.86365"
       width="90.751849"
       height="66.645889"
       id="rect24" />
    <rect
       x="63.809894"
       y="77.280871"
       width="135.06427"
       height="95.71484"
       id="rect18" />
    <rect
       x="45.375924"
       y="46.084923"
       width="153.73237"
       height="34.340378"
       id="rect12" />
    <pattern
       id="EMFhbasepattern"
       patternUnits="userSpaceOnUse"
       width="6"
       height="6"
       x="0"
       y="0" />
  </defs>
  <sodipodi:namedview
     id="base"
     pagecolor="#ffffff"
     bordercolor="#666666"
     borderopacity="1.0"
     inkscape:pageopacity="0.0"
     inkscape:pageshadow="2"
     inkscape:zoom="0.52775453"
     inkscape:cx="266.65199"
     inkscape:cy="627.76777"
     inkscape:document-units="mm"
     inkscape:current-layer="layer1"
     inkscape:document-rotation="0"
     showgrid="false"
     inkscape:window-width="1920"
     inkscape:window-height="1017"
     inkscape:window-x="1272"
     inkscape:window-y="-8"
     inkscape:window-maximized="1" />
  <metadata
     id="metadata5">
    <rdf:RDF>
      <cc:Work
         rdf:about="">
        <dc:format>image/svg+xml</dc:format>
        <dc:type
           rdf:resource="http://purl.org/dc/dcmitype/StillImage" />
        <dc:title></dc:title>
      </cc:Work>
    </rdf:RDF>
  </metadata>
  <g
     inkscape:label="Layer 1"
     inkscape:groupmode="layer"
     id="layer1">
    <rect
       style="fill:#1a1a1a;stroke-width:0.0931448"
       id="rect135"
       width="210"
       height="297"
       x="-9.2981178e-16"
       y="1.2434498e-14" />
    <text
       xml:space="preserve"
       id="text10"
       style="font-style:normal;font-variant:normal;font-weight:normal;font-stretch:normal;font-size:25.4px;line-height:1.25;font-family:Algerian;-inkscape-font-specification:Algerian;white-space:pre;shape-inside:url(#rect12);fill:#ffffff;"
       transform="translate(-15.775052,-0.75200681)"><tspan
         x="45.375"
         y="69.549981"><tspan
           style="font-style:normal;font-variant:normal;font-weight:normal;font-stretch:normal;font-size:25.4px;font-family:Algerian;-inkscape-font-specification:Algerian;fill:#ffffff">Nepheshira</tspan></tspan></text>
    <text
       xml:space="preserve"
       id="text16"
       style="font-style:normal;font-variant:normal;font-weight:normal;font-stretch:normal;font-size:7.76111px;line-height:1.25;font-family:Algerian;-inkscape-font-specification:Algerian;white-space:pre;shape-inside:url(#rect18);fill:#ffffff;"
       transform="translate(18.550351,-2.5724294)"><tspan
         x="63.810547"
         y="84.451415"><tspan
           style="font-style:normal;font-variant:normal;font-weight:normal;font-stretch:normal;font-size:7.76111px;font-family:Algerian;-inkscape-font-specification:Algerian;fill:#ffffff">Rules Book</tspan></tspan></text>
    <text
       xml:space="preserve"
       id="text22"
       style="line-height:1.25;font-family:Alef;font-size:6px;-inkscape-font-specification:Alef;white-space:pre;shape-inside:url(#rect24);" />
    <text
       xml:space="preserve"
       id="text90"
       style="line-height:1.25;font-family:Alef;font-size:6px;-inkscape-font-specification:Alef;white-space:pre;shape-inside:url(#rect92);" />
    <text
       xml:space="preserve"
       style="font-style:normal;font-variant:normal;font-weight:300;font-size:4.23333px;line-height:125%;font-family:'Calibri Light';text-align:start;letter-spacing:0px;word-spacing:0px;text-anchor:start;fill:#ffffff;fill-opacity:1;stroke:none;stroke-width:0.264583;"
       x="62.448631"
       y="263.08676"
       id="text103"><tspan
         sodipodi:role="line"
         x="62.448631"
         y="263.08676"
         style="stroke-width:0.264583;fill:#ffffff;"
         id="tspan127"><tspan
           dx="0"
           dy="0"
           style="font-style:normal;font-variant:normal;font-weight:300;font-size:4.23333px;font-family:'Calibri Light';fill:#ffffff;stroke-width:0.264583;"
           id="tspan99">Everything you need to enjoy your own adventure </tspan></tspan></text>
    <text
       xml:space="preserve"
       style="font-style:normal;font-variant:normal;font-weight:300;font-size:4.23333px;line-height:125%;font-family:'Calibri Light';text-align:start;letter-spacing:0px;word-spacing:0px;text-anchor:start;fill:#000000;fill-opacity:1;stroke:none;stroke-width:0.264583"
       x="64.963394"
       y="240.31276"
       id="text111"><tspan
         sodipodi:role="line"
         x="64.963394"
         y="240.31276"
         id="tspan109"
         style="stroke-width:0.264583" /></text>
    <path
       style="fill:none;stroke:#000000;stroke-width:0.264583px;stroke-linecap:butt;stroke-linejoin:miter;stroke-opacity:1"
       d="m 79.712721,132.60387 c 2.925538,0.26438 6.086245,-0.17798 8.522742,-2.00536 0.575025,-0.43126 0.780027,-1.21374 1.253345,-1.75468 0.506632,-0.57901 1.58515,-1.30502 2.005354,-2.00535 0.09038,-0.15063 1.139457,-2.14213 1.253344,-2.25602 0.132112,-0.13211 0.389234,-0.1012 0.501338,-0.25067 0.976947,-1.3026 0.02935,-0.33873 0.250669,-1.00268 0.340765,-1.02229 1.22895,-1.90777 1.504013,-3.00802 0.08106,-0.32425 -0.05495,-0.673 0,-1.00268 0.122695,-0.73617 0.501338,-0.91518 0.501338,-1.75468 0,-1.81565 0.192381,-3.74251 -0.250669,-5.51472 -0.408347,-1.63338 -1.961182,-2.1086 -3.258696,-2.75735 -1.591974,-0.79599 -3.09935,-1.84135 -4.762711,-2.5067 -1.631619,-0.65264 -3.362066,-1.1542 -5.013378,-1.75468 -0.885616,-0.32204 -1.904823,-0.32574 -2.757358,-0.752 -1.813533,-0.90677 -4.056475,-1.36742 -5.765387,-2.50669 -0.29496,-0.19664 -0.457044,-0.55537 -0.752007,-0.75201 -0.21985,-0.14657 -0.515673,-0.1325 -0.752006,-0.25067 -0.422765,-0.21138 -0.624541,-0.71908 -1.002676,-1.002675 -0.288885,-0.216664 -0.916969,-0.33315 -1.253344,-0.501338 -1.558965,-0.779483 -2.938405,-1.002675 -4.762709,-1.002675 -0.938147,0 -1.822344,-0.02983 -2.757358,0.250669 -1.400035,0.42001 -4.172302,2.475619 -5.514718,3.258699 -0.898835,0.89606 -2.219979,0.91046 -3.258696,1.50401 -0.205195,0.11726 -0.334224,0.33423 -0.501338,0.50134 -0.41778,0.16711 -0.850884,0.30011 -1.253344,0.50134 -0.300802,0.1504 -0.451205,0.6016 -0.752007,0.752 -0.236334,0.11817 -0.582851,0.0477 -0.752007,0.25067 -0.288059,0.34567 -0.418414,0.81109 -0.501337,1.25335 -0.442818,2.36168 -0.32249,3.18687 1.253344,4.76271 1.112856,1.11285 2.631665,2.47067 4.010702,3.25869 1.608514,0.91915 3.667824,2.11771 4.762712,3.76004 1.519521,2.27928 2.980788,4.43848 4.762709,6.51739 0.196061,0.22874 0.274611,0.55362 0.501338,0.75201 1.790507,1.56669 4.335536,2.33018 6.016053,4.0107 0.912342,0.91234 -0.266499,0.17613 0.501338,0.75201 0.725191,0.54389 1.52291,1.26594 2.25602,1.75468 0.219853,0.14657 0.525433,0.11472 0.752009,0.25067 0.202653,0.12159 0.281908,0.41356 0.501338,0.50133 0.310319,0.12413 0.703733,-0.14947 1.002676,0 0.764428,0.38222 -0.45846,0.19872 0.752006,0.50134 1.00125,0.25031 1.881368,-0.47826 2.757358,-0.752 0.735285,-0.22978 1.504013,-0.33423 2.25602,-0.50134"
       id="path161" />
    <path
       style="fill:none;stroke:#000000;stroke-width:0.264583px;stroke-linecap:butt;stroke-linejoin:miter;stroke-opacity:1"
       d="m 63.669909,121.8251 c 0,2.18546 0.329676,0.44202 -3.008026,1.50401 -0.890212,0.28325 -1.66243,0.85344 -2.506689,1.25335 -2.224866,1.05388 -3.982731,1.67076 -4.762712,4.0107 -0.195924,0.58778 0.147542,1.41519 0,2.00535 -0.09063,0.36252 -0.398682,0.64338 -0.501338,1.00268 -0.09182,0.32137 0.105693,0.6856 0,1.00268 -0.04626,0.13878 -1.210294,2.46363 -1.253344,2.50668 -0.344511,0.34452 -0.863574,0.45968 -1.253345,0.75201 -0.283599,0.2127 -0.463539,0.54596 -0.752006,0.75201 -1.390679,0.99334 -3.087963,1.65224 -4.51204,2.50669 -0.814637,0.48878 -1.452552,2.16737 -0.752007,3.00803 0.868225,1.04187 2.466123,1.59294 3.760033,1.75468 0.497467,0.0622 1.017643,-0.12159 1.504014,0 3.24608,0.81152 -0.535578,0.51716 4.261371,0.25067 1.926251,-0.10702 3.697348,-0.22381 5.514718,-1.00268 2.451005,-1.05043 4.700635,-2.73873 7.269398,-3.50937 1.829221,-0.54876 4.614889,-0.6797 6.016053,-2.25602 0.559951,-0.62994 1.46344,-2.63562 1.754683,-3.50936 0.05285,-0.15854 -0.06206,-0.34618 0,-0.50134 0.111889,-0.27972 0.418576,-0.46233 0.50134,-0.752 0.174739,-0.61159 0,-1.84236 0,-2.50669"
       id="path163" />
    <path
       style="fill:none;stroke:#000000;stroke-width:0.264583px;stroke-linecap:butt;stroke-linejoin:miter;stroke-opacity:1"
       d="m 54.645827,136.61457 c -4.450252,1.7801 -0.619136,0.0682 -5.264047,2.75736 -1.580714,0.91515 -2.282349,0.98234 -3.760034,2.00535 -0.536559,0.37146 -0.955063,0.90045 -1.504013,1.25334 -0.628655,0.40414 -1.402686,0.56072 -2.005351,1.00268 -0.667031,0.48915 -1.142632,1.19827 -1.754685,1.75468 -3.071416,2.7922 -4.47635,5.88222 -5.514716,9.77609 -0.214966,0.80612 -0.892587,2.98941 -1.002675,3.76003 -0.165434,1.15804 0.101338,2.34398 0,3.50937 -0.109538,1.25968 -0.414343,2.49859 -0.501338,3.76003 -0.305943,4.43618 0.65555,2.4528 -1.002676,6.26672 -2.371624,5.45474 -6.682118,9.57556 -9.024081,15.04014 -0.967868,2.25836 -1.847027,4.89462 -2.506689,7.2694 -1.233387,0.87176 -0.280827,2.01573 -0.501339,3.00803 -0.114638,0.51587 -0.426602,0.98087 -0.501337,1.50401 -0.09453,0.66173 0.109892,1.346 0,2.00535 -0.06143,0.36859 -0.428054,0.63626 -0.501338,1.00268 -0.09832,0.4916 0.09832,1.01241 0,1.50401 -0.470313,0.94063 -0.581358,0.98146 -0.752007,2.00535 -0.162454,0.97473 0.08968,2.02151 0,3.00803 -0.649602,7.14563 0.127807,-3.03275 -0.501338,3.2587 -0.336356,3.36356 0,6.89953 0,10.27742 0,1.87431 0.207572,3.93242 -0.250669,5.76539 -0.106673,0.42669 -0.741541,3.9318 0,4.26137 2.503694,1.11275 5.287429,-0.95607 7.269399,-2.00535 1.955849,-1.03545 4.15025,-1.8207 6.016055,-3.00803 5.051978,-3.21489 -1.103807,0.34369 3.258696,-2.00535 1.50469,-0.81022 3.110642,-2.53601 4.762709,-3.00803 3.93587,-1.12453 9.579064,-0.50134 13.786791,-0.50134 1.105641,0 3.111836,0.34956 4.010703,0 3.2826,-1.27656 4.335729,-5.16209 5.765387,-8.0214 3.006182,-6.01237 6.160764,-14.42254 5.013378,-21.30686 -0.653794,-3.92277 -3.677547,-8.41276 -6.016054,-11.53077 -3.41808,-4.55744 -6.192591,-6.92342 -8.522745,-12.28278 -1.167228,-2.68462 -2.25602,-5.3038 -2.25602,-8.27207 0,-0.83557 -0.21985,-1.70057 0,-2.50669 0.981655,-3.5994 3.992496,-4.80945 6.517391,-7.01873 0.355719,-0.31126 0.609397,-0.74049 1.002679,-1.00268 5.621898,-3.74793 -0.244788,0.37306 3.008026,-1.25334 0.373674,-0.18684 0.618673,-0.58744 1.002676,-0.75201 0.230399,-0.0987 0.510169,0.066 0.752007,0 0.486764,-0.13275 2.97117,-1.07346 3.509364,-1.50401 2.443779,-1.95503 1.754682,-5.5863 1.754682,-8.27208 0,-2.41326 0.05888,-4.8704 -0.250669,-7.2694 -0.21809,-1.69021 -0.722503,-3.33234 -1.002675,-5.01337"
       id="path165" />
    <path
       style="fill:none;stroke:#000000;stroke-width:0.264583px;stroke-linecap:butt;stroke-linejoin:miter;stroke-opacity:1"
       d="m 50.338915,170.51421 c 2.191668,5.47918 0.347324,1.8171 3.899493,6.73549 4.078904,5.64771 6.313614,8.12354 12.761978,10.98948 4.71419,2.0952 9.902055,4.61647 15.243477,2.836 5.133099,-1.71104 7.919098,-7.1657 10.63498,-11.34398 0.354756,-0.54578 5.249,-7.42701 5.671992,-8.50799 0.523845,-1.33871 0.397147,-2.85067 0.708998,-4.25399 0.783737,-3.5268 0.708999,-1.00789 0.708999,-2.836"
       id="path167" />
    <path
       style="fill:none;stroke:#000000;stroke-width:0.264583px;stroke-linecap:butt;stroke-linejoin:miter;stroke-opacity:1"
       d="m 46.793922,200.64666 c 0.354499,0.94533 0.100745,2.53197 1.063498,2.836 4.762257,1.50387 8.438049,-2.85949 11.69848,-4.96299 1.601082,-1.03296 3.315243,-1.87924 4.962991,-2.836 2.015485,-1.17028 3.970073,-2.44824 6.026491,-3.54499 5.207312,-2.77724 11.873402,-4.27353 15.952473,-8.86249 0.958281,-1.07807 1.558089,-2.43691 2.481495,-3.54499 2.085951,-2.50314 4.780907,-4.12938 6.73549,-6.73549 1.570582,-2.09411 -0.01262,-0.68374 1.063498,-2.836 0.149468,-0.29894 0.559528,-0.41005 0.708999,-0.70899 0.270719,-0.54144 -0.322842,-1.61968 0,-2.127 0.723333,-1.13667 1.654328,-2.127 2.481495,-3.1905"
       id="path169" />
    <path
       style="fill:none;stroke:#000000;stroke-width:0.264583px;stroke-linecap:butt;stroke-linejoin:miter;stroke-opacity:1"
       d="m 35.095441,213.40864 c -0.472667,0 -1.083773,-0.33422 -1.417997,0 -2.717765,2.71777 -5.771906,11.39015 -6.73549,14.53448 -4.50077,14.68672 -4.917968,14.80067 -5.67199,30.13245 -0.188782,3.83857 0.08005,7.62666 2.126997,10.98948 1.653476,2.71643 3.744902,3.99945 6.380988,5.31749 0.334227,0.16711 0.764558,0.13028 1.063498,0.35449 0.264692,0.19852 1.663538,2.01803 1.772499,2.12701"
       id="path171" />
    <path
       style="fill:none;stroke:#000000;stroke-width:0.264583px;stroke-linecap:butt;stroke-linejoin:miter;stroke-opacity:1"
       d="m 46.439423,218.01713 c -1.311979,10.49583 1.251,-8.83025 -1.772497,7.79899 -0.403847,2.22115 -0.297921,4.51566 -0.708999,6.73549 -0.18384,0.99274 -0.797851,1.86195 -1.0635,2.83599 -1.207381,4.42707 -2.280505,8.91597 -2.835995,13.47098 -0.243176,1.99406 0.108429,4.02059 0,6.02649 -0.368128,6.81039 -1.195276,5.7388 -0.354499,11.34399 0.395269,2.63512 1.589749,5.66465 3.190494,7.79897 0.364201,0.48562 1.418,0.99303 1.418,1.41801"
       id="path173" />
    <ellipse
       style="fill:#ffcc00;stroke-width:0.1"
       id="path179"
       cx="100.58921"
       cy="162.6266"
       rx="2.1269963"
       ry="1.6838721" />
    <path
       style="fill:#ffcc00;stroke-width:0.1"
       id="path183"
       d="m 103.52423,159.03994 c 2.80134,-3.20577 1.57108,-1.63009 4.85993,-6.64373 1.24542,-1.89855 2.45704,-3.81905 3.68557,-5.72858 0,0 -0.37142,-0.0629 -0.37142,-0.0629 v 0 c -2.39511,3.60876 -4.48508,6.965 -7.19781,10.32454 -0.56451,0.69911 -1.25261,1.28867 -1.87892,1.933 0,0 0.90265,0.1777 0.90265,0.1777 z" />
    <path
       style="fill:#ffcc00;stroke-width:0.1"
       id="path185"
       d="m 98.912941,158.16044 c -2.39876,-3.5173 2.378409,3.50905 -2.072455,-3.1855 -3.818729,-5.74375 -2.49477,-3.37065 -6.693972,-10.35998 -3.316401,-5.51996 -5.134234,-8.9009 -8.253031,-14.51258 0,0 -0.244975,-0.0145 -0.244975,-0.0145 v 0 c 3.867192,6.9371 7.694329,13.90061 11.81399,20.69287 0.848174,1.39842 1.761013,2.75682 2.614641,4.15191 0.641919,1.0491 1.205807,2.14472 1.866591,3.18274 0,0 0.969211,0.0451 0.969211,0.0451 z" />
    <path
       style="fill:#ffcc00;stroke-width:0.1"
       id="path187"
       d="m 93.106839,161.21376 c 0.01175,-0.02 0.05781,-0.0547 0.03524,-0.06 -4.46138,-1.04893 -0.768638,0.10829 -6.881109,-1.68015 -2.062572,-0.60348 -4.105814,-1.27132 -6.153679,-1.92298 -5.308568,-1.68927 -10.603555,-3.42093 -15.906072,-5.12909 -2.523996,-0.81276 -5.047991,-1.62552 -7.571984,-2.43828 0,0 -0.271232,0.004 -0.271232,0.004 v 0 c 2.54354,0.81243 5.087083,1.62485 7.630623,2.43728 29.07267,9.43475 -11.489766,-3.74238 15.699242,5.13259 4.117848,1.34414 8.266293,2.80724 12.536014,3.62258 0.609177,0.11633 1.226545,0.18468 1.839817,0.27702 0,0 -0.956855,-0.24336 -0.956855,-0.24336 z" />
    <path
       style="fill:#ffcc00;stroke-width:0.1"
       id="path189"
       d="m 93.522397,168.01985 c -0.07159,0.12009 -0.118261,0.25911 -0.214763,0.36028 -0.8216,0.86135 -1.788652,1.46933 -2.877753,1.97953 -1.324743,0.62059 -2.698015,1.13316 -4.064569,1.65527 -1.970331,0.75279 -11.163956,4.04535 -12.809159,4.63676 -8.568338,3.07438 -4.431573,1.57314 -12.412385,4.49795 0,0 0.430763,0.10155 0.430763,0.10155 v 0 c 7.884956,-2.95847 3.784669,-1.44712 12.304998,-4.52281 2.310807,-0.81473 4.620112,-1.63375 6.932427,-2.44419 2.042094,-0.71574 4.095891,-1.39837 6.130774,-2.13436 1.427819,-0.51642 2.866846,-1.0102 4.256257,-1.62248 1.053743,-0.46436 2.220021,-1.14288 3.056718,-1.99035 0.115017,-0.1165 0.169056,-0.2804 0.253582,-0.4206 0,0 -0.98689,-0.0966 -0.98689,-0.0966 z" />
    <path
       style="fill:#ffcc00;stroke-width:0.1"
       id="path195"
       d="m 104.63141,163.21424 c 4.22279,-0.83651 8.31007,-2.287 12.31858,-3.82657 7.21455,-2.77094 8.05156,-3.28605 15.31648,-6.57989 2.53893,-1.22733 5.07787,-2.45466 7.61681,-3.68198 0,0 -0.22319,-0.0504 -0.22319,-0.0504 v 0 c -2.52754,1.2297 -5.05509,2.45941 -7.58263,3.68912 -2.69637,1.2042 -5.36589,2.47045 -8.08912,3.61261 -2.46196,1.03259 -4.95607,1.98888 -7.46196,2.90977 -4.19354,1.54106 -8.46224,2.91055 -12.8627,3.71984 0,0 0.96773,0.20745 0.96773,0.20745 z" />
    <path
       style="fill:#ffcc00;stroke-width:0.1"
       id="path197"
       d="m 102.30519,165.7675 c 0.13388,0.0964 0.27985,0.17785 0.40164,0.2891 1.13508,1.03687 2.0763,2.6449 2.76935,3.96174 1.33596,2.53835 1.70527,3.71691 2.80429,6.49352 2.50649,6.79284 4.6227,13.71941 6.68711,20.65647 0.15504,0.49758 0.31008,0.99517 0.46511,1.49275 0,0 0.85595,0.0671 0.85595,0.0671 v 0 c -0.17227,-0.49853 -0.34454,-0.99706 -0.51681,-1.49559 -2.25392,-6.9007 -4.45981,-13.81811 -6.84891,-20.67366 -1.09795,-2.91717 -1.35072,-3.83563 -2.66809,-6.49527 -0.68829,-1.38957 -1.48303,-2.86886 -2.59025,-3.98925 -0.11312,-0.11446 -0.24805,-0.20509 -0.37207,-0.30764 0,0 -0.98732,7.9e-4 -0.98732,7.9e-4 z" />
    <path
       style="fill:#ffcc00;stroke-width:0.1"
       id="path199"
       d="m 99.287271,178.42315 c 0.02175,0.38634 0.08743,0.77272 0.06524,1.15904 -0.122181,2.12753 -0.548597,4.24583 -1.110339,6.29476 -0.986163,3.59699 -2.032828,6.39009 -3.695899,9.7657 -0.838319,1.70158 -1.834168,3.32091 -2.751254,4.98136 -2.322475,3.80347 -4.898659,7.44736 -7.793333,10.8369 -0.59155,0.69268 -1.222108,1.35107 -1.833161,2.02661 0,0 0.741596,0.13663 0.741596,0.13663 v 0 c 0.584962,-0.68142 1.187328,-1.34828 1.754886,-2.04427 2.800143,-3.43379 5.30774,-7.09135 7.604715,-10.87901 0.921493,-1.66126 1.915112,-3.2845 2.764477,-4.98377 1.713291,-3.42765 2.756993,-6.12275 3.848645,-9.75428 0.607291,-2.02025 1.118346,-4.17331 1.358986,-6.28408 0.0454,-0.3978 0.015,-0.8006 0.0226,-1.2009 0,0 -0.977122,-0.0547 -0.977122,-0.0547 z" />
    <path
       style="fill:#ffcc00;stroke-width:0.1"
       id="path201"
       d="m 108.54266,164.61033 c 0.32183,0.17017 0.62537,0.38066 0.96548,0.5105 2.50413,0.956 4.43937,1.25417 7.27841,1.58409 2.74812,0.31936 5.50542,0.59066 8.26949,0.70938 8.82164,0.37887 14.55774,-0.0465 23.57529,-0.39074 17.76894,-1.27546 9.06665,-0.5673 26.10841,-2.10518 0,0 -0.0194,-0.005 -0.0194,-0.005 v 0 c -17.04175,1.53783 -8.33947,0.82971 -26.10839,2.10508 -10.26451,0.39178 -13.91924,0.76473 -23.82548,0.31971 -2.48814,-0.11178 -4.97101,-0.35081 -7.44363,-0.64994 -2.68084,-0.32432 -4.56455,-0.62817 -6.929,-1.56507 -0.31739,-0.12577 -0.59742,-0.33061 -0.89613,-0.49592 0,0 -0.97506,-0.0168 -0.97506,-0.0168 z" />
    <circle
       id="path203"
       style="fill:#ffcc00;stroke:#000000;stroke-width:0.264583"
       cx="90.397346"
       cy="120.1753"
       r="0.0094438633" />
    <path
       style="fill:#ffcc00;stroke-width:0.1"
       id="path209"
       d="m 90.815775,118.95614 c -0.02661,0.0553 -0.05995,0.10774 -0.07984,0.16575 -0.08157,0.23795 -0.11634,0.48993 -0.192786,0.72957 -0.182327,0.57155 -0.454798,1.09396 -0.733203,1.62264 0,0 0.441201,0.0703 0.441201,0.0703 v 0 c 0.276688,-0.53288 0.552127,-1.06059 0.748101,-1.63004 0.08112,-0.23571 0.12292,-0.48468 0.215641,-0.71607 0.02138,-0.0534 0.05714,-0.0998 0.08571,-0.14972 0,0 -0.484825,-0.0925 -0.484825,-0.0925 z" />
    <path
       style="fill:#ffcc00;stroke-width:0.1"
       id="path211"
       d="m 87.221726,117.911 c -0.06865,-0.11233 -0.06243,-0.15541 -0.232482,-0.1556 -0.249126,-2.7e-4 -0.502917,-0.007 -0.745802,0.0485 -0.126172,0.0288 -0.226692,0.12557 -0.334044,0.19785 -0.278988,0.18782 -0.420603,0.32551 -0.673804,0.54648 -0.38812,0.36703 -0.203396,0.18484 -0.555437,0.54528 0,0 0.459782,0.087 0.459782,0.087 v 0 c 0.346168,-0.35921 0.163928,-0.17785 0.548174,-0.54261 0.249701,-0.21519 0.398008,-0.35862 0.676267,-0.5367 0.109305,-0.07 0.290923,-0.068 0.341138,-0.18762 0.03199,-0.0762 -0.178964,-0.0645 -0.202004,-0.14395 -0.02257,-0.0778 0.270653,0.023 0.224007,0.0939 0,0 0.494205,0.0475 0.494205,0.0475 z" />
    <path
       style="fill:#000000;stroke-width:0.1"
       id="path217"
       d="m 85.645788,132.16045 c -1.338522,-1.43651 -2.547379,-2.98953 -3.76396,-4.52917 0,0 -0.900017,-0.0386 -0.900017,-0.0386 v 0 c 1.214601,1.52267 2.41313,3.0608 3.688149,4.53348 0,0 0.975828,0.0343 0.975828,0.0343 z" />
    <path
       style="fill:#000000;stroke-width:0.1"
       id="path219"
       d="m 90.750317,124.96491 c -0.605581,0.80264 -0.710726,1.80053 -0.731488,2.77301 0.04067,0.74417 0.349115,1.4433 0.670018,2.10656 0.05266,0.10974 0.380299,0.67207 0.166865,0.77488 -0.02816,0.0136 -0.06252,1.2e-4 -0.09378,1.8e-4 0.284271,0.0247 0.567504,0.0784 0.852813,0.074 0.05891,-7.9e-4 -0.108157,-0.0491 -0.155216,-0.0846 -0.07657,-0.0577 -0.143782,-0.12692 -0.21323,-0.19301 -0.255857,-0.24349 -0.489146,-0.50504 -0.718399,-0.77321 -0.42885,-0.46014 -0.682919,-1.03089 -0.928278,-1.60108 0,0 -0.965483,-0.067 -0.965483,-0.067 v 0 c 0.248386,0.57592 0.492062,1.16368 0.925246,1.62975 0.228607,0.27093 0.463764,0.52877 0.711231,0.78242 0.0011,0.001 0.289505,0.31771 0.353539,0.33063 0.363191,0.0732 0.735714,0.0884 1.103569,0.13265 0.03575,-0.0226 0.07868,-0.0366 0.107244,-0.0678 0.224343,-0.24503 -0.07289,-0.65305 -0.172437,-0.87542 -0.325864,-0.64713 -0.637649,-1.33108 -0.687864,-2.06212 0.0074,-0.94434 0.09367,-1.93976 0.742807,-2.68296 0,0 -0.967158,-0.19699 -0.967158,-0.19699 z" />
    <path
       style="fill:#000000;stroke-width:0.1"
       id="path221"
       d="m 110.32563,104.72845 c -0.8604,0.10717 -1.61126,0.56118 -2.35351,0.97657 -1.23813,0.69287 -2.13733,1.38174 -3.23556,2.27468 -1.46614,1.24299 -2.93861,2.57441 -3.84154,4.29703 -0.095,0.61972 -0.065,1.41323 0.46013,1.86379 0.41418,0.35535 0.7702,0.41416 1.28802,0.59371 2.63734,0.53264 5.33944,0.80869 8.03131,0.78619 1.77958,-0.0601 3.5585,-0.13316 5.3387,-0.17387 0.75914,-0.0165 1.51842,-0.0238 2.27771,-0.0291 0,0 -1.89199,-0.51591 -1.89199,-0.51591 v 0 c -0.75056,0.007 -1.50104,0.0201 -2.25139,0.0395 -1.77447,0.0466 -3.54777,0.12359 -5.32207,0.17424 -1.03489,-7.9e-4 -0.898,0.0139 -1.93312,-0.0457 -0.34965,-0.0201 -0.70573,-0.14413 -1.04828,-0.0712 -0.26164,0.0557 1.0599,0.13607 0.7926,0.12562 -0.6147,-0.024 -1.45081,-0.20406 -2.06132,-0.32015 -1.28601,-0.38947 -1.91251,-0.62704 -1.75196,-2.11994 0.87871,-1.69645 2.30505,-3.01707 3.75148,-4.23297 1.04755,-0.8334 2.06864,-1.59991 3.25204,-2.23297 0.59286,-0.31714 1.18517,-0.63607 1.84455,-0.79468 0.18179,-0.0437 0.37238,-0.0341 0.55858,-0.0512 0,0 -1.90438,-0.5437 -1.90438,-0.5437 z" />
    <path
       style="fill:#000000;stroke-width:0.1"
       id="path223"
       d="m 104.31061,111.90309 c 1.00112,0.0262 2.00784,0.18752 3.00337,0.0786 0.62304,-0.0682 4.69828,-1.58595 4.86311,-1.64865 3.09972,-1.17901 6.10233,-2.55417 9.11413,-3.93747 2.91614,-1.33106 5.72867,-2.87789 8.64485,-4.20841 0.90019,-0.41072 2.922,-1.26655 3.82837,-1.65323 2.49096,-1.009562 4.98996,-2.003073 7.54749,-2.832057 0,0 -1.84392,-0.441534 -1.84392,-0.441534 v 0 c -2.52669,0.85634 -5.00343,1.852099 -7.47045,2.866031 -0.99801,0.426 -2.84333,1.20531 -3.83173,1.66046 -2.88818,1.32995 -5.66232,2.89457 -8.54928,4.22762 -3.00671,1.3965 -6.00599,2.77555 -9.12103,3.91918 -0.95533,0.35073 -1.91687,0.68601 -2.88825,0.9895 -0.70446,0.22009 -1.53812,0.14868 -2.1367,0.58044 -0.24298,0.17526 0.54607,0.24664 0.8191,0.36995 0,0 -1.97906,0.0296 -1.97906,0.0296 z" />
    <path
       style="fill:#000000;stroke-width:0.1"
       id="path225"
       d="m 147.21737,85.386372 c -1.40954,1.449263 -2.18108,3.344929 -2.89584,5.20061 -0.26426,0.82355 -0.56811,1.648637 -0.6976,2.508642 -0.10931,0.725961 -0.0932,1.46771 -0.0896,2.199111 0.13418,1.523661 0.38058,3.032193 0.50524,4.558162 0.0541,1.259033 0.11406,2.513543 0.48111,3.724783 0.11541,0.19704 0.20552,0.41128 0.34624,0.59112 0.97088,1.24076 2.7737,1.87277 4.21782,2.33699 1.65443,0.3381 3.36946,0.75266 5.0648,0.52424 1.0696,-0.14411 1.99813,-0.56432 2.93874,-1.06087 1.45817,-0.86745 2.08626,-2.4086 2.74975,-3.8848 0.49388,-1.64858 0.70314,-3.387761 0.74158,-5.106092 -0.0856,-0.423196 -0.12379,-0.81951 -0.35222,-1.197957 -0.86947,-1.440484 -2.96542,-1.247053 -4.31608,-1.3828 -1.52292,0.211852 -2.96909,0.754973 -4.38675,1.32801 0,0 1.8792,0.437809 1.8792,0.437809 v 0 c 1.40825,-0.56034 2.84187,-1.113856 4.36476,-1.251249 -0.34927,-0.07375 -0.69104,-0.233214 -1.04781,-0.221255 -0.22087,0.0074 0.41974,0.14147 0.61967,0.235606 0.85951,0.404683 1.15617,0.917514 1.31012,1.835788 -0.0152,1.693791 -0.20144,3.41397 -0.73074,5.02827 -0.64419,1.44752 -1.25719,2.93546 -2.70391,3.76162 -0.93446,0.47669 -1.84649,0.86713 -2.90555,0.98124 -0.36187,0.039 -0.77151,-0.15095 -1.09168,0.0221 -0.24547,0.1327 1.08977,0.21799 0.82844,0.12017 -0.33297,-0.12464 -0.69819,-0.13472 -1.04728,-0.20209 -1.41729,-0.43085 -3.20352,-1.02133 -4.19128,-2.19721 -0.13764,-0.16387 -0.2286,-0.36185 -0.34291,-0.54277 -0.37646,-1.19478 -0.4385,-2.43973 -0.50315,-3.6847 -0.13098,-1.519563 -0.35257,-3.026098 -0.49608,-4.542848 -0.0111,-0.71978 -0.0271,-1.443649 0.0775,-2.158727 0.12415,-0.848654 0.40155,-1.669048 0.65971,-2.482835 0.68825,-1.822558 1.45195,-3.73857 2.95128,-5.054771 0,0 -1.93749,-0.423344 -1.93749,-0.423344 z" />
    <path
       style="fill:#000000;stroke-width:0.1"
       id="path227"
       d="m 164.93156,88.131165 c -0.1744,0.178146 -0.37149,0.336603 -0.52319,0.53444 -2.09784,2.735833 -2.20628,6.843876 -2.37175,10.121428 0.003,2.256977 0.0818,4.518097 0.35279,6.760457 0.0942,0.77949 0.23864,1.88621 0.55166,2.63861 0.14372,0.34549 0.37479,0.64776 0.56219,0.97164 0.30349,0.21533 0.54565,0.57261 0.91046,0.646 1.01805,0.20482 2.0829,0.30881 3.11107,0.16307 0.52545,-0.0745 0.96207,-0.46829 1.37695,-0.79922 1.70943,-1.36355 2.62788,-3.20338 3.61581,-5.08296 1.07668,-2.70238 2.01812,-5.556237 2.16248,-8.487381 0.0161,-0.327893 -5.3e-4,-0.65658 -7.9e-4,-0.984872 -0.27629,-1.890202 -0.89818,-2.329061 -2.65298,-2.86639 -1.85336,-0.347575 -3.74499,-0.49874 -5.62042,-0.293669 -0.61751,0.150318 -1.23891,0.269314 -1.86693,0.365519 0,0 1.89851,0.487381 1.89851,0.487381 v 0 c 0.62432,-0.102589 1.24105,-0.235392 1.86201,-0.355018 0.55923,-0.05013 1.11595,-0.07464 1.67777,-0.07474 0.21323,-3.7e-5 0.84311,0.07349 0.63961,0.0098 -0.39089,-0.122315 -0.81183,-0.112104 -1.21402,-0.189553 -0.22555,-0.04343 0.45568,0.05826 0.68352,0.0874 1.70469,0.457835 2.36445,0.785593 2.68841,2.621743 0.009,0.323305 0.0358,0.646602 0.027,0.969915 -0.0787,2.909014 -0.98404,5.753185 -2.06696,8.424685 -0.34023,0.63887 -0.63814,1.30215 -1.02068,1.91662 -0.66689,1.07122 -1.59465,2.28782 -2.62974,3.05094 -0.41859,0.3086 -1.0823,0.29274 -1.38713,0.71407 -0.13881,0.19186 0.81175,0.48518 0.62146,0.34422 -0.28736,-0.21287 -0.60959,-0.37413 -0.91438,-0.5612 -0.19198,-0.30813 -0.4274,-0.59314 -0.57595,-0.92439 -0.32517,-0.72507 -0.50526,-1.8581 -0.61359,-2.61067 -0.3212,-2.23146 -0.43466,-4.48775 -0.43743,-6.740609 0.0498,-0.91622 0.0558,-1.835862 0.1493,-2.748658 0.24258,-2.369384 0.74963,-5.335411 2.38462,-7.203811 0.15595,-0.178207 0.36299,-0.304223 0.54448,-0.456335 0,0 -1.92419,-0.448474 -1.92419,-0.448474 z" />
    <path
       style="fill:#000000;stroke-width:0.1"
       id="path229"
       d="m 178.35301,93.502386 c -1.48852,2.399911 -2.28294,5.153044 -3.14952,7.818114 -0.66591,2.11896 -1.26999,4.25753 -1.83782,6.40474 -0.15601,0.58995 -0.67154,2.56092 -0.7642,3.22826 -0.0586,0.42225 -0.0405,0.85164 -0.0607,1.27746 0.0856,0.30902 0.0931,0.65141 0.25696,0.92706 0.2969,0.49949 0.8427,0.64749 1.37011,0.68551 0.94099,0.0678 1.88648,0.13566 2.82885,0.0908 0.18485,-0.009 1.8052,-0.55588 1.93746,-0.59942 2.07661,-0.65874 4.21622,-0.96509 6.38254,-1.09214 0,0 -1.83985,-0.49064 -1.83985,-0.49064 v 0 c -2.17145,0.15235 -4.31266,0.49306 -6.39861,1.13691 -0.33542,0.10641 -0.6683,0.22117 -1.00625,0.31923 -0.30858,0.0895 -0.94893,-0.0775 -0.93272,0.2434 0.0171,0.33862 0.75641,0.0613 0.96175,0.33114 0.15555,0.20436 -0.52356,0.007 -0.7668,-0.075 -0.78099,-0.26462 -0.66791,-0.52816 -0.91609,-1.26268 0.0104,-0.41632 -0.0194,-0.83559 0.0311,-1.24896 0.073,-0.59695 0.58681,-2.71283 0.71526,-3.2247 0.53969,-2.15054 1.14909,-4.2834 1.8209,-6.39636 0.89058,-2.643133 1.70632,-5.407224 3.31965,-7.718661 0,0 -1.95205,-0.354063 -1.95205,-0.354063 z" />
    <path
       style="fill:#000000;stroke-width:0.1"
       id="path231"
       d="m 187.39595,99.349032 c -1.98782,-2.899251 -4.21214,1.112488 -4.95876,2.412268 -0.85421,1.42548 -1.48738,2.93948 -1.89761,4.54592 -0.29595,1.21242 -0.4076,2.45328 -0.48494,3.69498 0,0 1.93028,0.22453 1.93028,0.22453 v 0 c 0.0672,-1.22935 0.17687,-2.45872 0.4681,-3.6587 0.42096,-1.58067 1.03343,-3.08563 1.86563,-4.49869 0.50359,-0.86903 0.99489,-1.81319 1.78557,-2.466604 0.18213,-0.150511 0.79584,-0.223279 0.60725,-0.365607 -3.21823,-2.428785 -1.45114,-0.242911 -1.29196,-0.03478 0,0 1.97644,0.146679 1.97644,0.146679 z" />
    <path
       style="fill:#000000;stroke-width:0.1"
       id="path233"
       d="m 182.19575,102.59714 c -0.3891,1.48727 -0.10201,2.01158 0.88644,3.15752 0.4972,0.5515 1.12965,0.91717 1.76451,1.28172 0,0 1.94102,0.007 1.94102,0.007 v 0 c -0.63388,-0.34296 -1.26699,-0.6846 -1.76896,-1.21645 -0.9795,-1.07462 -1.28304,-1.52571 -0.85647,-2.95736 0,0 -1.96654,-0.27269 -1.96654,-0.27269 z" />
    <path
       style="fill:#000000;stroke-width:0.1"
       id="path235"
       d="m 187.41477,99.276269 c 1.1535,0.120962 -0.6966,-0.104968 -1.04765,-0.128185 -0.1949,-0.01288 0.38438,0.06976 0.57594,0.107915 0.5322,0.106016 1.06203,0.223793 1.59,0.348938 0,0 1.95751,-0.04568 1.95751,-0.04568 v 0 c -1.63694,-0.406037 -3.30302,-0.723066 -4.99153,-0.807074 0,0 1.91573,0.524081 1.91573,0.524081 z" />
    <path
       style="fill:#000000;stroke-width:0.1"
       id="path237"
       d="m 183.23938,110.05395 c 0.82062,-0.0826 1.64733,0.12241 2.46409,0.0984 0.23976,-0.007 -0.94878,-0.13492 -0.71494,-0.0815 0.74703,0.17061 1.51253,0.2471 2.26696,0.38127 0,0 1.90338,-0.0561 1.90338,-0.0561 v 0 c -2.58481,-0.46226 -5.19408,-0.88539 -7.82727,-0.86394 0,0 1.90778,0.52191 1.90778,0.52191 z" />
    <path
       style="fill:#000000;stroke-width:0.1"
       id="path239"
       d="m 196.38716,111.56947 c -0.62146,-2.18182 -0.50124,-4.51054 -0.4101,-6.75077 0.0795,-1.9545 0.19069,-3.29622 0.33016,-5.229363 0.0929,-1.180478 0.17351,-2.890263 0.46303,-4.070024 0.0988,-0.402786 0.18923,-0.840677 0.45732,-1.157118 0.12699,-0.149889 0.72745,-0.208066 0.58481,-0.07298 -1.49697,1.417709 -1.70866,-0.472144 -0.33026,2.35181 1.17655,2.869014 2.10041,5.832935 3.2181,8.724035 1.73815,4.49603 -0.23001,-0.80955 1.14289,2.92459 0.0439,0.25668 -0.10904,0.67111 0.13185,0.77005 0.5577,0.22906 1.30821,0.36334 1.80852,0.0269 0.29186,-0.19627 -0.28533,-0.64453 -0.39137,-0.97989 -0.18992,-0.60066 -0.33367,-1.21499 -0.49516,-1.82392 -0.61882,-2.33344 -0.54058,-2.06958 -1.10601,-4.42798 -0.30288,-1.35738 -0.53789,-2.365781 -0.80283,-3.710668 -0.0951,-0.482568 -0.20139,-0.963734 -0.26673,-1.451216 -0.0135,-0.100401 0.13194,-0.31692 0.0317,-0.302241 -2.41945,0.354361 -1.80726,0.334735 -1.2616,2.270974 0.84808,2.955391 1.5358,5.956521 2.45168,8.892591 0.55555,1.78095 0.61994,1.87582 1.26449,3.57244 0.83509,1.9198 0.40489,0.98322 1.28715,2.81131 0,0 1.86422,0.12064 1.86422,0.12064 v 0 c -0.89528,-1.82063 -0.45528,-0.8886 -1.31706,-2.79748 -0.21988,-0.56274 -0.45332,-1.12038 -0.65965,-1.68824 -1.27385,-3.50595 -2.12549,-7.14828 -3.05435,-10.754855 -0.49269,-2.154206 0.05,-1.905992 -2.54029,-2.631911 -0.11051,-0.03097 0.0491,0.224245 0.0718,0.336759 0.34902,1.732814 0.72049,3.460051 1.1433,5.176817 0.49649,2.08589 0.99247,4.17209 1.49349,6.25682 0.0943,0.39231 -0.0598,0.98417 0.29643,1.17356 0.62064,0.32997 1.44585,0.34476 2.10614,0.10376 0.25874,-0.0944 -0.12146,-0.53734 -0.18219,-0.80601 -0.72452,-1.84749 -0.32652,-0.86997 -1.20433,-2.92832 -1.15875,-2.87816 -2.10508,-5.836378 -3.20492,-8.736555 -0.97882,-2.248233 -0.43857,-2.092169 -3.39045,-2.934877 -0.19802,-0.05653 -0.44681,0.08907 -0.55987,0.261196 -0.23204,0.353269 -0.31257,0.78952 -0.40167,1.202682 -0.28716,1.331548 -0.32394,2.740602 -0.41176,4.090522 -0.0864,1.354382 -0.25331,3.916532 -0.32224,5.236102 -0.11793,2.25724 -0.2934,4.58073 0.1951,6.80891 0,0 1.97066,0.14194 1.97066,0.14194 z" />
    <path
       style="fill:#000000;stroke-width:0.1"
       id="path241"
       d="m 203.70825,107.79901 c 0.36257,-0.1333 0.56852,-0.17195 0.86841,-0.46215 1.13343,-1.09683 1.26388,-3.10451 1.49761,-4.56253 0.2267,-1.31762 0.22026,-2.66373 0.40338,-3.985709 0.0357,-0.258048 0.0668,-0.521253 0.15739,-0.765527 0.03,-0.08098 0.27727,-0.181599 0.19116,-0.174876 -0.56883,0.04442 -1.12443,0.194439 -1.68665,0.29166 0.12099,0.385006 0.2649,0.763551 0.36297,1.155023 0.1411,0.563253 0.24539,1.135219 0.35369,1.705689 0.63699,3.35557 0.93569,6.73052 1.18187,10.13338 0.23128,2.90517 0.39321,5.81481 0.54594,8.72489 0,0 1.74237,0.18251 1.74237,0.18251 v 0 c -0.17306,-2.91039 -0.34578,-5.82088 -0.55886,-8.72869 -0.29585,-4.37267 -0.60189,-8.78536 -1.68055,-13.048082 -0.73645,-0.254442 -1.44622,-0.606047 -2.20934,-0.763323 -0.10386,-0.02141 -0.13227,0.172659 -0.15982,0.275055 -0.0691,0.256728 -0.0964,0.523346 -0.12603,0.787541 -0.14842,1.322279 -0.14823,2.660239 -0.36738,3.975729 -0.2345,1.39747 -0.38272,3.39846 -1.55986,4.38662 -0.32226,0.27053 -0.49614,0.26646 -0.87202,0.34871 0,0 1.91572,0.52408 1.91572,0.52408 z" />
  </g>
</svg>
