<?xml version="1.0" encoding="UTF-8" standalone="no"?>
<svg
   xmlns:dc="http://purl.org/dc/elements/1.1/"
   xmlns:cc="http://creativecommons.org/ns#"
   xmlns:rdf="http://www.w3.org/1999/02/22-rdf-syntax-ns#"
   xmlns:svg="http://www.w3.org/2000/svg"
   xmlns="http://www.w3.org/2000/svg"
   xmlns:sodipodi="http://sodipodi.sourceforge.net/DTD/sodipodi-0.dtd"
   xmlns:inkscape="http://www.inkscape.org/namespaces/inkscape"
   width="210mm"
   height="297mm"
   viewBox="0 0 210 297"
   version="1.1"
   id="svg51"
   inkscape:version="1.0.2-2 (e86c870879, 2021-01-15)"
   sodipodi:docname="Fiche de personnage.svg"
   inkscape:export-filename="D:\jeux de role\Nepheshria\Character-sheets-part-1.png"
   inkscape:export-xdpi="300"
   inkscape:export-ydpi="300">
  <defs
     id="defs45" />
  <sodipodi:namedview
     id="base"
     pagecolor="#ffffff"
     bordercolor="#666666"
     borderopacity="1.0"
     inkscape:pageopacity="0.0"
     inkscape:pageshadow="2"
     inkscape:zoom="0.6762125"
     inkscape:cx="217.25713"
     inkscape:cy="571.56219"
     inkscape:document-units="cm"
     inkscape:current-layer="layer1"
     inkscape:document-rotation="0"
     showgrid="false"
     inkscape:window-width="1920"
     inkscape:window-height="1017"
     inkscape:window-x="1272"
     inkscape:window-y="-8"
     inkscape:window-maximized="1"
     borderlayer="true" />
  <metadata
     id="metadata48">
    <rdf:RDF>
      <cc:Work
         rdf:about="">
        <dc:format>image/svg+xml</dc:format>
        <dc:type
           rdf:resource="http://purl.org/dc/dcmitype/StillImage" />
        <dc:title />
      </cc:Work>
    </rdf:RDF>
  </metadata>
  <g
     inkscape:label="Layer 1"
     inkscape:groupmode="layer"
     id="layer1">
    <rect
       style="fill:#ffffff;stroke-width:0.264999"
       id="rect130"
       width="268.12296"
       height="325.84674"
       x="-29.061478"
       y="-14.42337" />
    <text
       xml:space="preserve"
       style="font-size:17.5px;line-height:1.15;font-family:Algerian;-inkscape-font-specification:Algerian;stroke-width:0.264583"
       x="7.154315"
       y="18.625278"
       id="text55"><tspan
         sodipodi:role="line"
         id="tspan53"
         x="7.154315"
         y="18.625278"
         style="font-size:17.5px;stroke-width:0.264583">Nepheshria</tspan></text>
    <rect
       style="fill:#000000;stroke-width:0.268431"
       id="rect59"
       width="87.032364"
       height="116.98203"
       x="115.85632"
       y="6.9883199" />
    <rect
       style="fill:#ffffff;stroke-width:0.283632"
       id="rect61"
       width="86.540108"
       height="116.46404"
       x="116.10244"
       y="7.2473159" />
    <rect
       style="fill:#000000;stroke-width:0.288939"
       id="rect67"
       width="85.602531"
       height="115.49154"
       x="116.57123"
       y="7.7335715" />
    <rect
       style="fill:#ffffff;stroke-width:1.14768"
       id="rect69"
       width="84.293663"
       height="113.9011"
       x="117.22567"
       y="8.5287848" />
    <g
       aria-label="Name :"
       id="text73"
       style="font-size:8px;line-height:1.25;font-family:Alef;-inkscape-font-specification:Alef;stroke-width:0.264583">
      <path
         d="M 11.565448,32.05711 H 10.706073 L 7.7177916,27.361797 v 4.65625 H 6.9834166 V 26.40086 h 0.859375 l 2.9882814,4.695312 V 26.40086 h 0.734375 z"
         style="font-size:8px;stroke-width:0.264583"
         id="path66" />
      <path
         d="m 13.155292,28.674297 -0.171875,-0.546875 q 0.65625,-0.261718 1.375,-0.261718 0.628906,0 0.960937,0.210937 0.378906,0.242188 0.378906,0.824219 v 1.597656 q 0,0.320313 0.0078,0.65625 0.0039,0.199219 0.03906,0.414063 0.03125,0.203125 0.08203,0.386718 l -0.640625,0.140625 q -0.08984,-0.261718 -0.113282,-0.585937 l -0.07813,-0.0078 q -0.484375,0.609375 -1.234375,0.609375 -0.546875,0 -0.878906,-0.300781 -0.332031,-0.304687 -0.332031,-0.855469 0,-0.410156 0.179687,-0.671875 0.183594,-0.261718 0.515625,-0.441406 0.523438,-0.285156 1.464844,-0.285156 0.125,0 0.335938,0.0078 v -0.59375 q 0,-0.28125 -0.171875,-0.40625 -0.171875,-0.125 -0.539063,-0.125 -0.535156,0 -1.179687,0.234375 z m 1.890625,2.203125 V 30.05711 q -0.105469,-0.0078 -0.308594,-0.0078 -0.34375,0 -0.632813,0.05859 -0.429687,0.08594 -0.667968,0.273438 -0.234375,0.183593 -0.234375,0.53125 0,0.625 0.679687,0.625 0.351563,0 0.65625,-0.1875 0.25,-0.15625 0.507813,-0.472657 z"
         style="font-size:8px;stroke-width:0.264583"
         id="path68" />
      <path
         d="m 16.983417,32.018047 v -2.511718 q 0,-0.601563 -0.02734,-0.90625 -0.01563,-0.238282 -0.101563,-0.582032 l 0.640625,-0.144531 q 0.07422,0.234375 0.105469,0.453125 0.01563,0.08203 0.03906,0.425781 h 0.08203 q 0.199219,-0.398437 0.5,-0.625 0.324219,-0.261718 0.738281,-0.261718 0.234375,0 0.453125,0.08594 0.21875,0.08203 0.367188,0.234375 0.222656,0.21875 0.316406,0.648438 h 0.04687 q 0.234375,-0.453125 0.550781,-0.695313 0.339844,-0.273437 0.761719,-0.273437 0.511719,0 0.785156,0.285156 0.238281,0.238281 0.335938,0.726562 0.07031,0.355469 0.07031,0.992188 v 2.148437 h -0.671868 v -2.33594 q 0,-0.308594 -0.03516,-0.507813 -0.05469,-0.308593 -0.195313,-0.480468 -0.175781,-0.207032 -0.492187,-0.207032 -0.359375,0 -0.664063,0.34375 -0.183593,0.207032 -0.4375,0.640625 0.0078,0.06641 0.0078,0.195313 v 2.351562 H 19.487323 V 29.68211 q 0,-0.496094 -0.09766,-0.761719 -0.164063,-0.433594 -0.621094,-0.433594 -0.351563,0 -0.667969,0.351563 -0.183594,0.203125 -0.445312,0.675781 v 2.503906 z"
         style="font-size:8px;stroke-width:0.264583"
         id="path70" />
      <path
         d="m 26.82326,31.791485 q -0.433593,0.171875 -0.816406,0.246094 -0.378906,0.07422 -0.679687,0.07422 -0.460938,0 -0.804688,-0.144531 -0.34375,-0.148437 -0.574219,-0.414062 -0.226562,-0.265625 -0.34375,-0.632813 -0.113281,-0.371094 -0.113281,-0.816406 0,-0.273438 0.03906,-0.546875 0.03906,-0.273438 0.125,-0.519531 0.08594,-0.25 0.222656,-0.464844 0.140625,-0.214844 0.339844,-0.371094 0.199218,-0.15625 0.464843,-0.246094 0.265625,-0.08984 0.605469,-0.08984 0.871094,0 1.3125,0.546875 0.441406,0.542968 0.441406,1.558593 v 0.214844 h -2.859375 q 0,0.328125 0.07031,0.582031 0.07031,0.25 0.214844,0.425782 0.148437,0.171875 0.371093,0.261718 0.226563,0.08984 0.535157,0.08984 0.171875,0 0.339843,-0.02344 0.171875,-0.02734 0.332032,-0.06641 0.160156,-0.04297 0.304687,-0.09375 0.148438,-0.05078 0.277344,-0.09766 z m -0.457031,-2.144531 q -0.03125,-0.632813 -0.304687,-0.921875 -0.269532,-0.292969 -0.773438,-0.292969 -0.503906,0 -0.769531,0.292969 -0.261719,0.289062 -0.316406,0.921875 z"
         style="font-size:8px;stroke-width:0.264583"
         id="path72" />
      <path
         d="m 31.006854,28.553204 q 0.109375,0 0.203125,0.04297 0.09766,0.03906 0.167969,0.109375 0.07031,0.07031 0.109375,0.167969 0.04297,0.09375 0.04297,0.203125 0,0.105469 -0.04297,0.203125 -0.03906,0.09375 -0.109375,0.164063 -0.07031,0.07422 -0.167969,0.117187 -0.09375,0.03906 -0.203125,0.03906 -0.109375,0 -0.207031,-0.03906 -0.09375,-0.04297 -0.164063,-0.117187 -0.07031,-0.07031 -0.113281,-0.164063 -0.03906,-0.09766 -0.03906,-0.203125 0,-0.109375 0.03906,-0.203125 0.04297,-0.09766 0.113281,-0.167969 0.07031,-0.07031 0.164063,-0.109375 0.09766,-0.04297 0.207031,-0.04297 z m 0,2.496093 q 0.109375,0 0.203125,0.04297 0.09766,0.03906 0.167969,0.109375 0.07031,0.07031 0.109375,0.167969 0.04297,0.09375 0.04297,0.203125 0,0.105469 -0.04297,0.203125 -0.03906,0.09375 -0.109375,0.164062 -0.07031,0.07422 -0.167969,0.113282 -0.09375,0.04297 -0.203125,0.04297 -0.109375,0 -0.207031,-0.04297 -0.09375,-0.03906 -0.164063,-0.113282 -0.07031,-0.07031 -0.113281,-0.164062 -0.03906,-0.09766 -0.03906,-0.203125 0,-0.109375 0.03906,-0.203125 0.04297,-0.09766 0.113281,-0.167969 0.07031,-0.07031 0.164063,-0.109375 0.09766,-0.04297 0.207031,-0.04297 z"
         style="font-size:8px;stroke-width:0.264583"
         id="path74" />
    </g>
    <text
       xml:space="preserve"
       style="font-size:8px;line-height:1.25;font-family:Alef;-inkscape-font-specification:Alef;stroke-width:0.264583"
       x="6.2607603"
       y="44.824104"
       id="text77"><tspan
         sodipodi:role="line"
         id="tspan75"
         x="6.2607603"
         y="44.824104"
         style="font-size:8px;stroke-width:0.264583">Race :</tspan></text>
    <text
       xml:space="preserve"
       style="font-size:10.5833px;line-height:1.25;font-family:Alef;-inkscape-font-specification:Alef;stroke-width:0.264583"
       x="9.3339233"
       y="55.179951"
       id="text81"><tspan
         sodipodi:role="line"
         id="tspan79"
         x="9.3339233"
         y="55.179951"
         style="stroke-width:0.264583" /></text>
    <text
       xml:space="preserve"
       style="font-size:8px;line-height:1.25;font-family:Alef;-inkscape-font-specification:Alef;stroke-width:0.264583"
       x="6.2607603"
       y="57.770775"
       id="text85"><tspan
         sodipodi:role="line"
         id="tspan83"
         x="6.2607603"
         y="57.770775"
         style="font-size:8px;stroke-width:0.264583">Profession :</tspan></text>
    <text
       xml:space="preserve"
       style="font-size:8px;line-height:1.25;font-family:Alef;-inkscape-font-specification:Alef;stroke-width:0.264583"
       x="6.9052916"
       y="70.57682"
       id="text89"><tspan
         sodipodi:role="line"
         id="tspan87"
         x="6.9052916"
         y="70.57682"
         style="font-size:8px;stroke-width:0.264583">Ages :</tspan></text>
    <text
       xml:space="preserve"
       style="font-size:8px;line-height:1.25;font-family:Alef;-inkscape-font-specification:Alef;stroke-width:0.264583"
       x="6.2607603"
       y="99.470161"
       id="text93"><tspan
         sodipodi:role="line"
         id="tspan91"
         x="6.2607603"
         y="99.470161"
         style="font-size:8px;stroke-width:0.264583">Passion / Theme :</tspan><tspan
         sodipodi:role="line"
         x="6.2607603"
         y="109.47016"
         style="font-size:8px;stroke-width:0.264583"
         id="tspan95">-</tspan><tspan
         sodipodi:role="line"
         x="6.2607603"
         y="119.47016"
         style="font-size:8px;stroke-width:0.264583"
         id="tspan97">-</tspan><tspan
         sodipodi:role="line"
         x="6.2607603"
         y="129.47015"
         style="font-size:8px;stroke-width:0.264583"
         id="tspan99">-</tspan></text>
    <text
       xml:space="preserve"
       style="font-size:8px;line-height:1.25;font-family:Alef;-inkscape-font-specification:Alef;stroke-width:0.264583"
       x="6.9052916"
       y="85.023491"
       id="text103"><tspan
         sodipodi:role="line"
         id="tspan101"
         x="6.9052916"
         y="85.023491"
         style="font-size:8px;stroke-width:0.264583">Alignment :</tspan></text>
    <text
       xml:space="preserve"
       style="font-size:8px;line-height:1.25;font-family:Alef;-inkscape-font-specification:Alef;stroke-width:0.264583"
       x="6.2607603"
       y="137.25308"
       id="text111"><tspan
         sodipodi:role="line"
         id="tspan109"
         x="6.2607603"
         y="137.25308"
         style="font-size:8px;stroke-width:0.264583">Posture : - defensive - offensive - focus - secret</tspan></text>
    <path
       id="rect113"
       style="fill:#000000;stroke-width:1.02014"
       d="M 23.808594 540.44531 L 23.808594 759.45703 L 23.808594 762.10352 L 768.19336 762.10352 L 768.19336 759.45703 L 768.19336 540.44531 L 23.808594 540.44531 z M 620.27539 543.91992 L 765.69336 543.91992 L 765.69336 612.43164 L 620.27539 612.43164 L 620.27539 543.91992 z M 27.111328 544.375 L 172.5293 544.375 L 172.5293 612.43164 L 27.111328 612.43164 L 27.111328 544.375 z M 175.18945 544.375 L 320.60938 544.375 L 320.60938 612.43164 L 175.18945 612.43164 L 175.18945 544.375 z M 323.21484 544.375 L 468.63281 544.375 L 468.63281 612.43164 L 323.21484 612.43164 L 323.21484 544.375 z M 471.30078 544.375 L 616.71875 544.375 L 616.71875 612.43164 L 471.30078 612.43164 L 471.30078 544.375 z M 27.111328 615.07812 L 172.5293 615.07812 L 172.5293 759.45703 L 27.111328 759.45703 L 27.111328 615.07812 z M 175.18945 615.07812 L 320.60938 615.07812 L 320.60938 759.45703 L 175.18945 759.45703 L 175.18945 615.07812 z M 323.21484 615.07812 L 468.63281 615.07812 L 468.63281 759.45703 L 323.21484 759.45703 L 323.21484 615.07812 z M 471.30078 615.07812 L 616.71875 615.07812 L 616.71875 759.45703 L 471.30078 759.45703 L 471.30078 615.07812 z M 620.27539 615.07812 L 765.69336 615.07812 L 765.69336 759.45703 L 620.27539 759.45703 L 620.27539 615.07812 z "
       transform="scale(0.26458333)" />
    <text
       xml:space="preserve"
       style="font-size:7px;line-height:1.25;font-family:Alef;-inkscape-font-specification:Alef;fill:#000000;stroke-width:0.390679"
       x="11.033349"
       y="155.46092"
       id="text103-0"><tspan
         sodipodi:role="line"
         id="tspan101-4"
         x="11.033349"
         y="155.46092"
         style="font-style:normal;font-variant:normal;font-weight:normal;font-stretch:normal;font-size:7px;font-family:Alef;-inkscape-font-specification:Alef;fill:#000000;stroke-width:0.390679">Dexterity</tspan></text>
    <text
       xml:space="preserve"
       style="font-size:7px;line-height:1.25;font-family:Alef;-inkscape-font-specification:Alef;fill:#000000;stroke-width:0.390679"
       x="51.467003"
       y="155.48997"
       id="text155"><tspan
         sodipodi:role="line"
         id="tspan153"
         x="51.467003"
         y="155.48997"
         style="font-size:7px;fill:#000000;stroke-width:0.390679">Strength</tspan></text>
    <text
       xml:space="preserve"
       style="font-size:7px;line-height:1.25;font-family:Alef;-inkscape-font-specification:Alef;fill:#000000;stroke-width:0.390679"
       x="95.652794"
       y="155.48997"
       id="text161"><tspan
         sodipodi:role="line"
         id="tspan159"
         x="95.652794"
         y="155.48997"
         style="font-size:7px;fill:#000000;stroke-width:0.390679">Social</tspan></text>
    <text
       xml:space="preserve"
       style="font-size:7px;line-height:1.25;font-family:Alef;-inkscape-font-specification:Alef;fill:#000000;stroke-width:0.390679"
       x="131.61755"
       y="155.46092"
       id="text165"><tspan
         sodipodi:role="line"
         id="tspan163"
         x="131.61755"
         y="155.46092"
         style="font-size:7px;fill:#000000;stroke-width:0.390679">Instinct</tspan></text>
    <text
       xml:space="preserve"
       style="font-size:7px;line-height:1.25;font-family:Alef;-inkscape-font-specification:Alef;fill:#000000;stroke-width:0.390679"
       x="165.80084"
       y="155.46092"
       id="text218"><tspan
         sodipodi:role="line"
         id="tspan216"
         x="165.80084"
         y="155.46092"
         style="font-size:7px;fill:#000000;stroke-width:0.390679">Inteligence</tspan></text>
    <text
       xml:space="preserve"
       style="font-size:8px;line-height:1.25;font-family:Alef;-inkscape-font-specification:Alef;stroke-width:0.264583"
       x="6.2724791"
       y="213.54497"
       id="text53"><tspan
         sodipodi:role="line"
         id="tspan51"
         x="6.2724791"
         y="213.54497"
         style="font-size:8px;stroke-width:0.264583">Mastery :</tspan><tspan
         sodipodi:role="line"
         x="6.2724791"
         y="223.54497"
         style="font-size:8px;stroke-width:0.264583"
         id="tspan57">-</tspan><tspan
         sodipodi:role="line"
         x="6.2724791"
         y="233.54497"
         style="font-size:8px;stroke-width:0.264583"
         id="tspan61">-</tspan><tspan
         sodipodi:role="line"
         x="6.2724791"
         y="243.54497"
         style="font-size:8px;stroke-width:0.264583"
         id="tspan63">-</tspan><tspan
         sodipodi:role="line"
         x="6.2724791"
         y="253.54497"
         style="font-size:8px;stroke-width:0.264583"
         id="tspan65">-</tspan><tspan
         sodipodi:role="line"
         x="6.2724791"
         y="263.54498"
         style="font-size:8px;stroke-width:0.264583"
         id="tspan67">-</tspan><tspan
         sodipodi:role="line"
         x="6.2724791"
         y="273.54498"
         style="font-size:8px;stroke-width:0.264583"
         id="tspan69">-</tspan><tspan
         sodipodi:role="line"
         x="6.2724791"
         y="283.54498"
         style="font-size:8px;stroke-width:0.264583"
         id="tspan72">-</tspan></text>
    <text
       xml:space="preserve"
       style="font-size:8px;line-height:1.25;font-family:Alef;-inkscape-font-specification:Alef;stroke-width:0.264583"
       x="104.55497"
       y="213.54497"
       id="text53-8"><tspan
         sodipodi:role="line"
         id="tspan51-7"
         x="104.55497"
         y="213.54497"
         style="font-size:8px;stroke-width:0.264583">Knowledge :</tspan><tspan
         sodipodi:role="line"
         x="104.55497"
         y="223.54497"
         style="font-size:8px;stroke-width:0.264583"
         id="tspan57-6">-</tspan><tspan
         sodipodi:role="line"
         x="104.55497"
         y="233.54497"
         style="font-size:8px;stroke-width:0.264583"
         id="tspan61-0">-</tspan><tspan
         sodipodi:role="line"
         x="104.55497"
         y="243.54497"
         style="font-size:8px;stroke-width:0.264583"
         id="tspan63-3">-</tspan><tspan
         sodipodi:role="line"
         x="104.55497"
         y="253.54497"
         style="font-size:8px;stroke-width:0.264583"
         id="tspan65-7">-</tspan><tspan
         sodipodi:role="line"
         x="104.55497"
         y="263.54498"
         style="font-size:8px;stroke-width:0.264583"
         id="tspan67-0">-</tspan><tspan
         sodipodi:role="line"
         x="104.55497"
         y="273.54498"
         style="font-size:8px;stroke-width:0.264583"
         id="tspan69-5">-</tspan><tspan
         sodipodi:role="line"
         x="104.55497"
         y="283.54498"
         style="font-size:8px;stroke-width:0.264583"
         id="tspan72-8">-</tspan></text>
    <path
       id="rect104"
       style="fill:#333333;stroke-width:0.804669"
       d="M 163.0957 700.40625 C 162.24128 700.49525 160.80304 701.32381 159.39844 702.60156 L 115.82812 742.23828 C 113.95533 743.94195 112.87194 745.78042 113.40039 746.36133 C 113.92884 746.94224 115.86353 746.03765 117.73633 744.33398 L 161.30664 704.69922 C 163.17944 702.99555 164.26087 701.15513 163.73242 700.57422 C 163.60031 700.42899 163.38051 700.37658 163.0957 700.40625 z M 161.04102 718.54102 C 160.28433 718.57904 159.53561 718.73451 158.79297 719.00391 C 157.79598 719.35598 156.89029 719.91916 156.07812 720.69336 C 155.25884 721.47435 154.64936 722.35303 154.25 723.33203 C 153.85097 724.29712 153.65009 725.29117 153.64648 726.31445 C 153.65001 727.33095 153.84837 728.33795 154.24219 729.33594 C 154.64313 730.32713 155.23166 731.22886 156.00586 732.04102 C 156.78685 732.8603 157.66193 733.49546 158.63281 733.94336 C 159.61082 734.38447 160.60789 734.6295 161.62305 734.68164 C 162.64533 734.72699 163.65076 734.5777 164.64062 734.23242 C 165.63082 733.87322 166.53618 733.30247 167.35547 732.52148 C 168.16763 731.74729 168.77744 730.87422 169.18359 729.90234 C 169.58295 728.92334 169.78087 727.92665 169.77734 726.91016 C 169.77382 725.89366 169.57087 724.88963 169.16992 723.89844 C 168.7761 722.90045 168.18919 721.99116 167.4082 721.17188 C 166.634 720.35971 165.7573 719.73407 164.7793 719.29297 C 163.80842 718.84507 162.81594 718.59511 161.80078 718.54297 C 161.54699 718.52993 161.29325 718.52834 161.04102 718.54102 z M 161.08203 720.9707 C 161.2557 720.96833 161.43008 720.97581 161.60547 720.99219 C 162.30737 721.04379 163.00032 721.23487 163.68164 721.56445 C 164.36296 721.89403 164.98516 722.354 165.54883 722.94531 C 166.1125 723.53662 166.5462 724.18329 166.84961 724.88672 C 167.14622 725.58302 167.30531 726.28736 167.33008 726.99805 C 167.35517 727.69482 167.23819 728.3778 166.97852 729.04688 C 166.71205 729.70882 166.30178 730.30427 165.74609 730.83398 C 165.19041 731.3637 164.57432 731.74598 163.90039 731.98047 C 163.21967 732.20784 162.53002 732.29575 161.82812 732.24414 C 161.11944 732.18541 160.42351 731.99169 159.74219 731.66211 C 159.05408 731.3254 158.4289 730.86084 157.86523 730.26953 C 157.30156 729.67822 156.87083 729.0342 156.57422 728.33789 C 156.27761 727.64158 156.11953 726.94184 156.10156 726.23828 C 156.0768 725.5276 156.19838 724.84163 156.46484 724.17969 C 156.72451 723.51062 157.13181 722.91057 157.6875 722.38086 C 158.24319 721.85114 158.86224 721.47346 159.54297 721.24609 C 160.04842 721.07022 160.56104 720.97782 161.08203 720.9707 z M 147.71484 731.24414 C 146.95815 731.28216 146.20944 731.43568 145.4668 731.70508 C 144.46981 732.05715 143.56411 732.62033 142.75195 733.39453 C 141.93267 734.17552 141.32319 735.05615 140.92383 736.03516 C 140.5248 737.00024 140.32391 737.99429 140.32031 739.01758 C 140.32383 740.03407 140.5222 741.04108 140.91602 742.03906 C 141.31696 743.03026 141.90549 743.93198 142.67969 744.74414 C 143.46068 745.56342 144.33576 746.19663 145.30664 746.64453 C 146.28465 747.08564 147.28172 747.33263 148.29688 747.38477 C 149.31916 747.43011 150.32459 747.28083 151.31445 746.93555 C 152.30465 746.57635 153.21001 746.0056 154.0293 745.22461 C 154.84146 744.45041 155.45127 743.57735 155.85742 742.60547 C 156.25678 741.62646 156.45469 740.62977 156.45117 739.61328 C 156.44765 738.59679 156.24469 737.59276 155.84375 736.60156 C 155.44993 735.60358 154.86302 734.69428 154.08203 733.875 C 153.30783 733.06284 152.43113 732.4372 151.45312 731.99609 C 150.48224 731.5482 149.48977 731.29823 148.47461 731.24609 C 148.22082 731.23306 147.96707 731.23147 147.71484 731.24414 z M 147.75586 733.67383 C 147.92952 733.67146 148.10391 733.67893 148.2793 733.69531 C 148.98119 733.74692 149.67415 733.93604 150.35547 734.26562 C 151.03679 734.59521 151.65899 735.05713 152.22266 735.64844 C 152.78633 736.23975 153.22003 736.88641 153.52344 737.58984 C 153.82005 738.28615 153.9811 738.99049 154.00586 739.70117 C 154.03096 740.39794 153.91201 741.08093 153.65234 741.75 C 153.38588 742.41195 152.97561 743.00739 152.41992 743.53711 C 151.86423 744.06682 151.25011 744.4491 150.57617 744.68359 C 149.89545 744.91096 149.20385 744.99887 148.50195 744.94727 C 147.79327 744.88854 147.09734 744.69286 146.41602 744.36328 C 145.7279 744.02658 145.10273 743.56397 144.53906 742.97266 C 143.97539 742.38135 143.54466 741.73732 143.24805 741.04102 C 142.95143 740.34471 142.79532 739.64497 142.77734 738.94141 C 142.75258 738.23072 142.87221 737.54476 143.13867 736.88281 C 143.39834 736.21374 143.80564 735.6137 144.36133 735.08398 C 144.91702 734.55427 145.53607 734.17464 146.2168 733.94727 C 146.72225 733.7714 147.23487 733.68094 147.75586 733.67383 z M 134.11914 742.48242 L 132.74023 742.89844 L 130.54492 748.25586 L 132.60156 749.10938 L 133.93945 746.01758 L 142.84375 755.35742 L 144.70312 753.58594 L 134.11914 742.48242 z "
       transform="scale(0.26458333)" />
    <path
       id="path131"
       style="fill:#333333;stroke-width:0.212902"
       d="m 82.576344,185.31582 c -0.226065,0.0236 -0.606599,0.24277 -0.978233,0.58084 l -11.52798,10.48722 c -0.495509,0.45076 -0.782156,0.93719 -0.642337,1.09089 0.139819,0.1537 0.651706,-0.0856 1.147217,-0.53641 l 11.527978,-10.48669 c 0.495512,-0.45077 0.78164,-0.93771 0.641821,-1.09141 -0.03495,-0.0384 -0.09311,-0.0523 -0.168466,-0.0444 z m -0.543634,4.79816 c -0.200207,0.0101 -0.398306,0.0512 -0.594796,0.12247 -0.263787,0.0932 -0.503418,0.24216 -0.718304,0.447 -0.216768,0.20664 -0.378026,0.43912 -0.48369,0.69815 -0.105577,0.25534 -0.158727,0.51835 -0.159682,0.7891 9.34e-4,0.26894 0.05342,0.53538 0.157615,0.79943 0.106082,0.26225 0.261797,0.50084 0.466638,0.71572 0.206637,0.21677 0.438168,0.38482 0.695047,0.50333 0.258765,0.11671 0.522573,0.18154 0.791168,0.19533 0.270478,0.012 0.536498,-0.0275 0.798398,-0.11885 0.261991,-0.095 0.501534,-0.24605 0.718305,-0.45269 0.214884,-0.20484 0.376229,-0.43584 0.48369,-0.69298 0.105664,-0.25903 0.15803,-0.52273 0.157096,-0.79168 -9.31e-4,-0.26895 -0.05463,-0.5346 -0.160713,-0.79685 -0.104198,-0.26405 -0.259485,-0.50463 -0.466122,-0.7214 -0.20484,-0.21489 -0.436801,-0.38042 -0.695563,-0.49713 -0.256879,-0.11851 -0.519472,-0.18464 -0.788067,-0.19844 -0.06715,-0.003 -0.134284,-0.004 -0.20102,-5.1e-4 z m 0.01085,0.64285 c 0.04595,-6.3e-4 0.09209,0.001 0.138493,0.006 0.185711,0.0137 0.369054,0.0642 0.54932,0.15141 0.180266,0.0872 0.34489,0.20891 0.494028,0.36536 0.149137,0.15645 0.263887,0.32755 0.344164,0.51366 0.07848,0.18423 0.120571,0.37059 0.127125,0.55862 0.0066,0.18436 -0.02431,0.36506 -0.09302,0.54209 -0.0705,0.17514 -0.179054,0.33269 -0.326081,0.47284 -0.147023,0.14015 -0.31003,0.2413 -0.488341,0.30334 -0.180107,0.0602 -0.362577,0.0834 -0.548288,0.0698 -0.187505,-0.0155 -0.371637,-0.0668 -0.551902,-0.15399 -0.182063,-0.0891 -0.347475,-0.21201 -0.496613,-0.36846 -0.149137,-0.15645 -0.263101,-0.32684 -0.34158,-0.51108 -0.07848,-0.18423 -0.120303,-0.36937 -0.125057,-0.55552 -0.0066,-0.18803 0.02562,-0.36953 0.09612,-0.54467 0.06871,-0.17702 0.17647,-0.33578 0.323496,-0.47594 0.147026,-0.14015 0.310816,-0.24008 0.490926,-0.30024 0.133734,-0.0465 0.269365,-0.071 0.40721,-0.0729 z m -3.536736,2.71818 c -0.200207,0.0101 -0.398304,0.0507 -0.594794,0.12196 -0.263787,0.0932 -0.50342,0.24216 -0.718304,0.447 -0.216768,0.20663 -0.378026,0.43963 -0.48369,0.69866 -0.105577,0.25535 -0.158729,0.51836 -0.159681,0.7891 9.31e-4,0.26895 0.05342,0.53539 0.157615,0.79944 0.106082,0.26225 0.261797,0.50083 0.466637,0.71571 0.206637,0.21677 0.438169,0.38431 0.695048,0.50282 0.258765,0.11671 0.522573,0.18206 0.791167,0.19585 0.270479,0.012 0.536499,-0.0275 0.798399,-0.11885 0.26199,-0.095 0.501534,-0.24605 0.718304,-0.45269 0.214884,-0.20484 0.37623,-0.43584 0.48369,-0.69298 0.105664,-0.25903 0.158028,-0.52274 0.157097,-0.79169 -9.32e-4,-0.26894 -0.05463,-0.53459 -0.160714,-0.79685 -0.104198,-0.26405 -0.259485,-0.50463 -0.466121,-0.7214 -0.204841,-0.21488 -0.436801,-0.38042 -0.695566,-0.49713 -0.256879,-0.1185 -0.51947,-0.18464 -0.788064,-0.19843 -0.06715,-0.003 -0.134287,-0.004 -0.201023,-5.2e-4 z m 0.01085,0.64286 c 0.04595,-6.3e-4 0.09209,10e-4 0.138494,0.006 0.185708,0.0137 0.369054,0.0637 0.54932,0.15089 0.180266,0.0872 0.34489,0.20942 0.494027,0.36587 0.149138,0.15645 0.263888,0.32755 0.344165,0.51367 0.07848,0.18423 0.121089,0.37058 0.12764,0.55862 0.0066,0.18435 -0.02483,0.36506 -0.09354,0.54209 -0.0705,0.17514 -0.179052,0.33268 -0.326078,0.47283 -0.147026,0.14016 -0.309512,0.2413 -0.487826,0.30334 -0.180107,0.0602 -0.363093,0.0834 -0.548804,0.0698 -0.187505,-0.0155 -0.371636,-0.0673 -0.551902,-0.15451 -0.182065,-0.0891 -0.347475,-0.21149 -0.496612,-0.36794 -0.149138,-0.15645 -0.263102,-0.32685 -0.34158,-0.51108 -0.07848,-0.18423 -0.119785,-0.36937 -0.124542,-0.55552 -0.0066,-0.18804 0.0251,-0.36953 0.0956,-0.54467 0.0687,-0.17703 0.176469,-0.33579 0.323495,-0.47594 0.147027,-0.14016 0.310817,-0.2406 0.490927,-0.30076 0.133733,-0.0465 0.269364,-0.0705 0.407209,-0.0723 z m -3.608048,2.3306 -0.364837,0.11007 -0.580842,1.41749 0.544152,0.22582 0.353984,-0.81803 2.355929,2.47116 0.491958,-0.4687 z" />
    <path
       id="path133"
       style="fill:#333333;stroke-width:0.212902"
       d="m 121.27021,185.31582 c -0.22606,0.0236 -0.6066,0.24277 -0.97823,0.58084 L 108.764,196.38388 c -0.49551,0.45076 -0.78216,0.93719 -0.64234,1.09089 0.13982,0.1537 0.65171,-0.0856 1.14722,-0.53641 l 11.52798,-10.48669 c 0.49551,-0.45077 0.78164,-0.93771 0.64182,-1.09141 -0.035,-0.0384 -0.0931,-0.0523 -0.16847,-0.0444 z m -0.54363,4.79816 c -0.20021,0.0101 -0.39831,0.0512 -0.5948,0.12247 -0.26379,0.0932 -0.50342,0.24216 -0.7183,0.447 -0.21677,0.20664 -0.37803,0.43912 -0.48369,0.69815 -0.10558,0.25534 -0.15873,0.51835 -0.15968,0.7891 9.3e-4,0.26894 0.0534,0.53538 0.15761,0.79943 0.10608,0.26225 0.2618,0.50084 0.46664,0.71572 0.20664,0.21677 0.43817,0.38482 0.69505,0.50333 0.25876,0.11671 0.52257,0.18154 0.79116,0.19533 0.27048,0.012 0.5365,-0.0275 0.7984,-0.11885 0.26199,-0.095 0.50154,-0.24605 0.71831,-0.45269 0.21488,-0.20484 0.37623,-0.43584 0.48369,-0.69298 0.10566,-0.25903 0.15803,-0.52273 0.15709,-0.79168 -9.3e-4,-0.26895 -0.0546,-0.5346 -0.16071,-0.79685 -0.1042,-0.26405 -0.25949,-0.50463 -0.46612,-0.7214 -0.20484,-0.21489 -0.4368,-0.38042 -0.69557,-0.49713 -0.25687,-0.11851 -0.51947,-0.18464 -0.78806,-0.19844 -0.0671,-0.003 -0.13429,-0.004 -0.20102,-5.1e-4 z m 0.0109,0.64285 c 0.0459,-6.3e-4 0.0921,0.001 0.13849,0.006 0.18571,0.0137 0.36905,0.0642 0.54932,0.15141 0.18027,0.0872 0.34489,0.20891 0.49403,0.36536 0.14914,0.15645 0.26389,0.32755 0.34416,0.51366 0.0785,0.18423 0.12057,0.37059 0.12713,0.55862 0.007,0.18436 -0.0243,0.36506 -0.093,0.54209 -0.0705,0.17514 -0.17906,0.33269 -0.32608,0.47284 -0.14703,0.14015 -0.31003,0.2413 -0.48834,0.30334 -0.18011,0.0602 -0.36258,0.0834 -0.54829,0.0698 -0.18751,-0.0155 -0.37164,-0.0668 -0.5519,-0.15399 -0.18207,-0.0891 -0.34748,-0.21201 -0.49662,-0.36846 -0.14913,-0.15645 -0.2631,-0.32684 -0.34158,-0.51108 -0.0785,-0.18423 -0.1203,-0.36937 -0.12505,-0.55552 -0.007,-0.18803 0.0256,-0.36953 0.0961,-0.54467 0.0687,-0.17702 0.17647,-0.33578 0.32349,-0.47594 0.14703,-0.14015 0.31082,-0.24008 0.49093,-0.30024 0.13373,-0.0465 0.26936,-0.071 0.40721,-0.0729 z m -3.53674,2.71818 c -0.20021,0.0101 -0.3983,0.0507 -0.59479,0.12196 -0.26379,0.0932 -0.50342,0.24216 -0.71831,0.447 -0.21676,0.20663 -0.37802,0.43963 -0.48369,0.69866 -0.10557,0.25535 -0.15873,0.51836 -0.15968,0.7891 9.3e-4,0.26895 0.0534,0.53539 0.15762,0.79944 0.10608,0.26225 0.26179,0.50083 0.46663,0.71571 0.20664,0.21677 0.43817,0.38431 0.69505,0.50282 0.25877,0.11671 0.52258,0.18206 0.79117,0.19585 0.27048,0.012 0.5365,-0.0275 0.7984,-0.11885 0.26199,-0.095 0.50153,-0.24605 0.7183,-0.45269 0.21489,-0.20484 0.37623,-0.43584 0.48369,-0.69298 0.10567,-0.25903 0.15803,-0.52274 0.1571,-0.79169 -9.3e-4,-0.26894 -0.0546,-0.53459 -0.16071,-0.79685 -0.1042,-0.26405 -0.25949,-0.50463 -0.46613,-0.7214 -0.20484,-0.21488 -0.4368,-0.38042 -0.69556,-0.49713 -0.25688,-0.1185 -0.51947,-0.18464 -0.78807,-0.19843 -0.0671,-0.003 -0.13428,-0.004 -0.20102,-5.2e-4 z m 0.0109,0.64286 c 0.046,-6.3e-4 0.0921,10e-4 0.1385,0.006 0.1857,0.0137 0.36905,0.0637 0.54932,0.15089 0.18026,0.0872 0.34489,0.20942 0.49402,0.36587 0.14914,0.15645 0.26389,0.32755 0.34417,0.51367 0.0785,0.18423 0.12109,0.37058 0.12764,0.55862 0.007,0.18435 -0.0248,0.36506 -0.0935,0.54209 -0.0705,0.17514 -0.17905,0.33268 -0.32608,0.47283 -0.14703,0.14016 -0.30951,0.2413 -0.48783,0.30334 -0.1801,0.0602 -0.36309,0.0834 -0.5488,0.0698 -0.18751,-0.0155 -0.37164,-0.0673 -0.5519,-0.15451 -0.18207,-0.0891 -0.34748,-0.21149 -0.49661,-0.36794 -0.14914,-0.15645 -0.26311,-0.32685 -0.34158,-0.51108 -0.0785,-0.18423 -0.11979,-0.36937 -0.12455,-0.55552 -0.007,-0.18804 0.0251,-0.36953 0.0956,-0.54467 0.0687,-0.17703 0.17647,-0.33579 0.3235,-0.47594 0.14703,-0.14016 0.31082,-0.2406 0.49093,-0.30076 0.13373,-0.0465 0.26936,-0.0705 0.4072,-0.0723 z m -3.60805,2.3306 -0.36483,0.11007 -0.58085,1.41749 0.54416,0.22582 0.35398,-0.81803 2.35593,2.47116 0.49196,-0.4687 z" />
    <path
       id="path135"
       style="fill:#333333;stroke-width:0.212902"
       d="m 160.48556,185.31582 c -0.22606,0.0236 -0.6066,0.24277 -0.97823,0.58084 l -11.52798,10.48722 c -0.49551,0.45076 -0.78216,0.93719 -0.64234,1.09089 0.13982,0.1537 0.65171,-0.0856 1.14722,-0.53641 l 11.52798,-10.48669 c 0.49551,-0.45077 0.78164,-0.93771 0.64182,-1.09141 -0.035,-0.0384 -0.0931,-0.0523 -0.16847,-0.0444 z m -0.54363,4.79816 c -0.20021,0.0101 -0.39831,0.0512 -0.5948,0.12247 -0.26379,0.0932 -0.50342,0.24216 -0.7183,0.447 -0.21677,0.20664 -0.37803,0.43912 -0.48369,0.69815 -0.10558,0.25534 -0.15873,0.51835 -0.15968,0.7891 9.3e-4,0.26894 0.0534,0.53538 0.15761,0.79943 0.10608,0.26225 0.2618,0.50084 0.46664,0.71572 0.20664,0.21677 0.43817,0.38482 0.69505,0.50333 0.25876,0.11671 0.52257,0.18154 0.79116,0.19533 0.27048,0.012 0.5365,-0.0275 0.7984,-0.11885 0.26199,-0.095 0.50154,-0.24605 0.71831,-0.45269 0.21488,-0.20484 0.37623,-0.43584 0.48369,-0.69298 0.10566,-0.25903 0.15803,-0.52273 0.15709,-0.79168 -9.3e-4,-0.26895 -0.0546,-0.5346 -0.16071,-0.79685 -0.1042,-0.26405 -0.25949,-0.50463 -0.46612,-0.7214 -0.20484,-0.21489 -0.4368,-0.38042 -0.69557,-0.49713 -0.25687,-0.11851 -0.51947,-0.18464 -0.78806,-0.19844 -0.0671,-0.003 -0.13429,-0.004 -0.20102,-5.1e-4 z m 0.0109,0.64285 c 0.0459,-6.3e-4 0.0921,0.001 0.13849,0.006 0.18571,0.0137 0.36905,0.0642 0.54932,0.15141 0.18027,0.0872 0.34489,0.20891 0.49403,0.36536 0.14914,0.15645 0.26389,0.32755 0.34416,0.51366 0.0785,0.18423 0.12057,0.37059 0.12713,0.55862 0.007,0.18436 -0.0243,0.36506 -0.093,0.54209 -0.0705,0.17514 -0.17906,0.33269 -0.32608,0.47284 -0.14703,0.14015 -0.31003,0.2413 -0.48834,0.30334 -0.18011,0.0602 -0.36258,0.0834 -0.54829,0.0698 -0.18751,-0.0155 -0.37164,-0.0668 -0.5519,-0.15399 -0.18207,-0.0891 -0.34748,-0.21201 -0.49662,-0.36846 -0.14913,-0.15645 -0.2631,-0.32684 -0.34158,-0.51108 -0.0785,-0.18423 -0.1203,-0.36937 -0.12505,-0.55552 -0.007,-0.18803 0.0256,-0.36953 0.0961,-0.54467 0.0687,-0.17702 0.17647,-0.33578 0.32349,-0.47594 0.14703,-0.14015 0.31082,-0.24008 0.49093,-0.30024 0.13373,-0.0465 0.26936,-0.071 0.40721,-0.0729 z m -3.53674,2.71818 c -0.20021,0.0101 -0.3983,0.0507 -0.59479,0.12196 -0.26379,0.0932 -0.50342,0.24216 -0.71831,0.447 -0.21676,0.20663 -0.37802,0.43963 -0.48369,0.69866 -0.10557,0.25535 -0.15873,0.51836 -0.15968,0.7891 9.3e-4,0.26895 0.0534,0.53539 0.15762,0.79944 0.10608,0.26225 0.26179,0.50083 0.46663,0.71571 0.20664,0.21677 0.43817,0.38431 0.69505,0.50282 0.25877,0.11671 0.52258,0.18206 0.79117,0.19585 0.27048,0.012 0.5365,-0.0275 0.7984,-0.11885 0.26199,-0.095 0.50153,-0.24605 0.7183,-0.45269 0.21489,-0.20484 0.37623,-0.43584 0.48369,-0.69298 0.10567,-0.25903 0.15803,-0.52274 0.1571,-0.79169 -9.3e-4,-0.26894 -0.0546,-0.53459 -0.16071,-0.79685 -0.1042,-0.26405 -0.25949,-0.50463 -0.46613,-0.7214 -0.20484,-0.21488 -0.4368,-0.38042 -0.69556,-0.49713 -0.25688,-0.1185 -0.51947,-0.18464 -0.78807,-0.19843 -0.0671,-0.003 -0.13428,-0.004 -0.20102,-5.2e-4 z m 0.0109,0.64286 c 0.046,-6.3e-4 0.0921,10e-4 0.1385,0.006 0.1857,0.0137 0.36905,0.0637 0.54932,0.15089 0.18026,0.0872 0.34489,0.20942 0.49402,0.36587 0.14914,0.15645 0.26389,0.32755 0.34417,0.51367 0.0785,0.18423 0.12109,0.37058 0.12764,0.55862 0.007,0.18435 -0.0248,0.36506 -0.0935,0.54209 -0.0705,0.17514 -0.17905,0.33268 -0.32608,0.47283 -0.14703,0.14016 -0.30951,0.2413 -0.48783,0.30334 -0.1801,0.0602 -0.36309,0.0834 -0.5488,0.0698 -0.18751,-0.0155 -0.37164,-0.0673 -0.5519,-0.15451 -0.18207,-0.0891 -0.34748,-0.21149 -0.49661,-0.36794 -0.14914,-0.15645 -0.26311,-0.32685 -0.34158,-0.51108 -0.0785,-0.18423 -0.11979,-0.36937 -0.12455,-0.55552 -0.007,-0.18804 0.0251,-0.36953 0.0956,-0.54467 0.0687,-0.17703 0.17647,-0.33579 0.3235,-0.47594 0.14703,-0.14016 0.31082,-0.2406 0.49093,-0.30076 0.13373,-0.0465 0.26936,-0.0705 0.4072,-0.0723 z m -3.60805,2.3306 -0.36483,0.11007 -0.58085,1.41749 0.54416,0.22582 0.35398,-0.81803 2.35593,2.47116 0.49196,-0.4687 z" />
    <path
       id="path137"
       style="fill:#333333;stroke-width:0.212902"
       d="m 199.9095,185.31582 c -0.22606,0.0236 -0.6066,0.24277 -0.97823,0.58084 l -11.52798,10.48722 c -0.49551,0.45076 -0.78216,0.93719 -0.64234,1.09089 0.13982,0.1537 0.65171,-0.0856 1.14722,-0.53641 l 11.52798,-10.48669 c 0.49551,-0.45077 0.78164,-0.93771 0.64182,-1.09141 -0.035,-0.0384 -0.0931,-0.0523 -0.16847,-0.0444 z m -0.54363,4.79816 c -0.20021,0.0101 -0.39831,0.0512 -0.5948,0.12247 -0.26379,0.0932 -0.50342,0.24216 -0.7183,0.447 -0.21677,0.20664 -0.37803,0.43912 -0.48369,0.69815 -0.10558,0.25534 -0.15873,0.51835 -0.15968,0.7891 9.3e-4,0.26894 0.0534,0.53538 0.15761,0.79943 0.10608,0.26225 0.2618,0.50084 0.46664,0.71572 0.20664,0.21677 0.43817,0.38482 0.69505,0.50333 0.25876,0.11671 0.52257,0.18154 0.79116,0.19533 0.27048,0.012 0.5365,-0.0275 0.7984,-0.11885 0.26199,-0.095 0.50154,-0.24605 0.71831,-0.45269 0.21488,-0.20484 0.37623,-0.43584 0.48369,-0.69298 0.10566,-0.25903 0.15803,-0.52273 0.15709,-0.79168 -9.3e-4,-0.26895 -0.0546,-0.5346 -0.16071,-0.79685 -0.1042,-0.26405 -0.25949,-0.50463 -0.46612,-0.7214 -0.20484,-0.21489 -0.4368,-0.38042 -0.69557,-0.49713 -0.25687,-0.11851 -0.51947,-0.18464 -0.78806,-0.19844 -0.0671,-0.003 -0.13429,-0.004 -0.20102,-5.1e-4 z m 0.0109,0.64285 c 0.0459,-6.3e-4 0.0921,0.001 0.13849,0.006 0.18571,0.0137 0.36905,0.0642 0.54932,0.15141 0.18027,0.0872 0.34489,0.20891 0.49403,0.36536 0.14914,0.15645 0.26389,0.32755 0.34416,0.51366 0.0785,0.18423 0.12057,0.37059 0.12713,0.55862 0.007,0.18436 -0.0243,0.36506 -0.093,0.54209 -0.0705,0.17514 -0.17906,0.33269 -0.32608,0.47284 -0.14703,0.14015 -0.31003,0.2413 -0.48834,0.30334 -0.18011,0.0602 -0.36258,0.0834 -0.54829,0.0698 -0.18751,-0.0155 -0.37164,-0.0668 -0.5519,-0.15399 -0.18207,-0.0891 -0.34748,-0.21201 -0.49662,-0.36846 -0.14913,-0.15645 -0.2631,-0.32684 -0.34158,-0.51108 -0.0785,-0.18423 -0.1203,-0.36937 -0.12505,-0.55552 -0.007,-0.18803 0.0256,-0.36953 0.0961,-0.54467 0.0687,-0.17702 0.17647,-0.33578 0.32349,-0.47594 0.14703,-0.14015 0.31082,-0.24008 0.49093,-0.30024 0.13373,-0.0465 0.26936,-0.071 0.40721,-0.0729 z m -3.53674,2.71818 c -0.20021,0.0101 -0.3983,0.0507 -0.59479,0.12196 -0.26379,0.0932 -0.50342,0.24216 -0.71831,0.447 -0.21676,0.20663 -0.37802,0.43963 -0.48369,0.69866 -0.10557,0.25535 -0.15873,0.51836 -0.15968,0.7891 9.3e-4,0.26895 0.0534,0.53539 0.15762,0.79944 0.10608,0.26225 0.26179,0.50083 0.46663,0.71571 0.20664,0.21677 0.43817,0.38431 0.69505,0.50282 0.25877,0.11671 0.52258,0.18206 0.79117,0.19585 0.27048,0.012 0.5365,-0.0275 0.7984,-0.11885 0.26199,-0.095 0.50153,-0.24605 0.7183,-0.45269 0.21489,-0.20484 0.37623,-0.43584 0.48369,-0.69298 0.10567,-0.25903 0.15803,-0.52274 0.1571,-0.79169 -9.3e-4,-0.26894 -0.0546,-0.53459 -0.16071,-0.79685 -0.1042,-0.26405 -0.25949,-0.50463 -0.46613,-0.7214 -0.20484,-0.21488 -0.4368,-0.38042 -0.69556,-0.49713 -0.25688,-0.1185 -0.51947,-0.18464 -0.78807,-0.19843 -0.0671,-0.003 -0.13428,-0.004 -0.20102,-5.2e-4 z m 0.0109,0.64286 c 0.046,-6.3e-4 0.0921,10e-4 0.1385,0.006 0.1857,0.0137 0.36905,0.0637 0.54932,0.15089 0.18026,0.0872 0.34489,0.20942 0.49402,0.36587 0.14914,0.15645 0.26389,0.32755 0.34417,0.51367 0.0785,0.18423 0.12109,0.37058 0.12764,0.55862 0.007,0.18435 -0.0248,0.36506 -0.0935,0.54209 -0.0705,0.17514 -0.17905,0.33268 -0.32608,0.47283 -0.14703,0.14016 -0.30951,0.2413 -0.48783,0.30334 -0.1801,0.0602 -0.36309,0.0834 -0.5488,0.0698 -0.18751,-0.0155 -0.37164,-0.0673 -0.5519,-0.15451 -0.18207,-0.0891 -0.34748,-0.21149 -0.49661,-0.36794 -0.14914,-0.15645 -0.26311,-0.32685 -0.34158,-0.51108 -0.0785,-0.18423 -0.11979,-0.36937 -0.12455,-0.55552 -0.007,-0.18804 0.0251,-0.36953 0.0956,-0.54467 0.0687,-0.17703 0.17647,-0.33579 0.3235,-0.47594 0.14703,-0.14016 0.31082,-0.2406 0.49093,-0.30076 0.13373,-0.0465 0.26936,-0.0705 0.4072,-0.0723 z m -3.60805,2.3306 -0.36483,0.11007 -0.58085,1.41749 0.54416,0.22582 0.35398,-0.81803 2.35593,2.47116 0.49196,-0.4687 z" />
  </g>
</svg>
