<?xml version="1.0" encoding="UTF-8" standalone="no"?>
<svg
   xmlns:dc="http://purl.org/dc/elements/1.1/"
   xmlns:cc="http://creativecommons.org/ns#"
   xmlns:rdf="http://www.w3.org/1999/02/22-rdf-syntax-ns#"
   xmlns:svg="http://www.w3.org/2000/svg"
   xmlns="http://www.w3.org/2000/svg"
   xmlns:xlink="http://www.w3.org/1999/xlink"
   xmlns:sodipodi="http://sodipodi.sourceforge.net/DTD/sodipodi-0.dtd"
   xmlns:inkscape="http://www.inkscape.org/namespaces/inkscape"
   width="210mm"
   height="297mm"
   viewBox="0 0 210 297"
   version="1.1"
   id="svg8"
   inkscape:export-filename="D:\jeux de role\Nepheshria\Bibliotheque site\Intelect_symbol.png"
   inkscape:export-xdpi="300"
   inkscape:export-ydpi="300"
   inkscape:version="1.0.2-2 (e86c870879, 2021-01-15)"
   sodipodi:docname="Brodel.svg">
  <defs
     id="defs2">
    <g
       id="cone">
      <polygon
         transform="translate(0,-1) rotate(18)"
         points="0,0 0,1 .5,1"
         id="triangle" />
      <use
         id="use10"
         transform="scale(-1,1)"
         xlink:href="#triangle" />
    </g>
    <g
       fill="white"
       transform="translate(1235,1050) scale(300.3)"
       id="star">
      <use
         id="use13"
         xlink:href="#cone" />
      <use
         id="use15"
         transform="rotate(72)"
         xlink:href="#cone" />
      <use
         id="use17"
         transform="rotate(-72)"
         xlink:href="#cone" />
      <use
         id="use19"
         transform="rotate(144)"
         xlink:href="#cone" />
      <use
         id="use21"
         transform="rotate(-144)"
         xlink:href="#cone" />
    </g>
    <g
       id="even_star_row">
      <use
         xlink:href="#star"
         id="star 1 even row" />
      <use
         x="1235"
         xlink:href="#star"
         id="star 2 even row" />
      <use
         x="2470"
         xlink:href="#star"
         id="star 3 even row" />
      <use
         x="3705"
         xlink:href="#star"
         id="star 4 even row" />
      <use
         x="4940"
         xlink:href="#star"
         id="star 5 even row" />
    </g>
    <g
       id="odd_star_row">
      <use
         y="-525"
         x="617.5"
         xlink:href="#even_star_row"
         id="last 5 stars odd row" />
      <use
         y="-525"
         x="-617.5"
         xlink:href="#star"
         id="star 1 odd row" />
    </g>
  </defs>
  <sodipodi:namedview
     id="base"
     pagecolor="#ffffff"
     bordercolor="#666666"
     borderopacity="1.0"
     inkscape:pageopacity="0.0"
     inkscape:pageshadow="2"
     inkscape:zoom="0.2125723"
     inkscape:cx="-12.778068"
     inkscape:cy="-1056.6769"
     inkscape:document-units="mm"
     inkscape:current-layer="layer1"
     inkscape:document-rotation="0"
     showgrid="false"
     inkscape:window-width="1280"
     inkscape:window-height="961"
     inkscape:window-x="-8"
     inkscape:window-y="44"
     inkscape:window-maximized="1" />
  <metadata
     id="metadata5">
    <rdf:RDF>
      <cc:Work
         rdf:about="">
        <dc:format>image/svg+xml</dc:format>
        <dc:type
           rdf:resource="http://purl.org/dc/dcmitype/StillImage" />
        <dc:title />
      </cc:Work>
    </rdf:RDF>
  </metadata>
  <g
     inkscape:label="Layer 1"
     inkscape:groupmode="layer"
     id="layer1">
    <path
       id="path150400"
       style="fill:#000000;stroke:none;stroke-width:0.261306"
       d="m -96.858082,-366.92096 v 0.0889 l -41.210918,41.43211 41.210918,41.43158 H 257.28723 l 41.29929,-41.52098 -41.21092,-41.43158 -0.0884,0.0894 v -0.0894 z m 1.195276,1.1126 v 80.63849 0.0889 h -0.04599 v -0.0429 l 0.04599,-0.046 -39.990314,-40.31901 z m 1.021644,0 h 69.134281 v 80.72736 h -69.134281 z m 70.155924,0 h 69.134279 v 80.72736 h -69.134279 z m 70.155407,0 H 114.80497 V -285.081 H 45.670169 Z m 70.155931,0 h 69.13428 V -285.081 H 115.8261 Z m 70.15592,0 h 69.13428 v 80.72736 h -69.13428 z m 70.15591,0.0889 39.99085,40.31951 -39.99085,40.31898 z m -103.62777,3.62252 -5.3e-4,0.003 c -0.0276,0.003 -0.0333,0.26157 -0.0212,0.89194 0.014,0.72633 0.006,0.97409 -0.0455,1.33376 -0.16673,1.17692 -0.65832,2.69772 -1.57768,4.88241 -0.62369,1.48207 -1.31707,2.95418 -2.05311,4.37544 l -0.13332,0.25374 c -1.92008,3.63807 -4.01837,6.76706 -5.81412,8.70177 -0.12043,0.126 -0.23962,0.25049 -0.37672,0.38759 -0.18271,0.18272 -0.34548,0.34084 -0.49506,0.47956 -0.93368,0.84137 -1.64294,1.15525 -2.12132,0.93739 -0.38067,-0.17335 -0.66225,-0.74655 -0.73122,-1.48722 -0.004,-0.0402 -0.007,-0.13946 -0.0108,-0.24598 -0.009,-0.34941 -0.013,-0.88705 -0.0181,-1.90635 -0.005,-0.94758 -0.0126,-1.62306 -0.0202,-2.00144 -0.002,-0.12039 -0.004,-0.20953 -0.006,-0.27028 -5.3e-4,-0.0122 -0.002,-0.10051 -0.002,-0.10231 -5.3e-4,-0.003 -0.002,-0.003 -0.002,-0.003 -1.5e-4,0 -5.3e-4,-0.01 -5.3e-4,-0.01 -0.008,-0.0135 -0.0251,-0.0148 -0.0476,-0.008 -0.004,0 -0.007,-1.3e-4 -0.0119,0.003 -0.009,0.004 -0.0197,0.0109 -0.0305,0.0164 -0.0104,0.006 -0.0206,0.0116 -0.0331,0.0201 -0.006,0.004 -0.0128,0.01 -0.0191,0.014 -0.0194,0.014 -0.0415,0.0316 -0.0656,0.0517 -0.0134,0.0111 -0.0353,0.0333 -0.0501,0.0465 -0.0558,0.0489 -0.11444,0.10112 -0.19431,0.17878 -0.0569,0.0552 -0.13575,0.13539 -0.20619,0.20619 -0.0505,0.0509 -0.0877,0.0869 -0.14573,0.14626 l -0.004,0.004 -0.0139,0.0135 c -0.14991,0.15332 -0.30125,0.31498 -0.45423,0.48265 l -0.006,0.006 c -0.14142,0.1551 -0.28407,0.3165 -0.4284,0.48422 -0.069,0.0802 -0.13815,0.16406 -0.20722,0.24648 -0.0861,0.10261 -0.17222,0.205 -0.25942,0.31213 -0.0413,0.0509 -0.0827,0.10382 -0.12402,0.15555 -0.69593,0.86706 -1.42836,1.87449 -2.21433,3.05199 -0.33704,0.50493 -0.55585,0.85167 -0.7488,1.18753 -0.005,0.009 -0.013,0.0217 -0.0181,0.0305 -0.0129,0.0225 -0.0254,0.0475 -0.0382,0.0703 -0.0647,0.11528 -0.13178,0.23744 -0.19534,0.35968 -0.0379,0.0723 -0.0754,0.14629 -0.11266,0.22063 -0.0262,0.0522 -0.0501,0.0967 -0.0775,0.15246 -0.0415,0.0842 -0.082,0.17028 -0.12247,0.25632 -0.002,0.004 -0.004,0.007 -0.005,0.0109 -0.9135,1.94445 -1.57816,4.35491 -1.98799,7.21559 -0.0771,0.53792 -0.12231,0.87119 -0.14986,1.28931 -0.006,0.0733 -0.0139,0.15619 -0.017,0.21963 -0.0421,0.83638 -0.057,5.43132 -0.0191,5.84047 0.004,0.0441 0.0119,0.0974 0.0176,0.14573 0.0232,0.41339 0.0658,0.59058 0.1452,0.87178 0.002,0.006 0.003,0.0103 0.005,0.0164 h 5.3e-4 c 0.0147,0.0612 0.0278,0.10488 0.0398,0.13745 0.28577,1.0069 0.52434,1.80171 0.75086,2.48513 l 0.12505,0.38602 h 0.006 c 0.17585,0.5089 0.3514,0.97372 0.54622,1.45262 0.30315,0.74514 0.59531,1.28164 0.96687,1.77612 0.49236,0.65524 2.32786,2.84663 3.29489,3.93361 0.56732,0.63768 1.37183,1.4291 1.48001,1.45624 0.0474,0.0119 0.21827,0.12169 0.38034,0.24392 0.75589,0.5701 1.58566,1.06659 2.77812,1.66193 1.36051,0.67921 2.11359,0.98515 3.31195,1.34615 1.16995,0.35242 1.97632,0.56068 3.09852,0.80047 0.21594,0.0461 3.19841,0.0499 4.29741,0.006 2.58714,-0.10424 4.55703,-0.38756 5.70972,-0.82113 1.05399,-0.39645 2.40021,-1.2288 4.50206,-2.78432 0.32773,-0.24254 0.6184,-0.44132 0.64595,-0.44132 0.0846,0 1.4,-1.08445 2.13837,-1.76321 0.70085,-0.64426 0.85045,-0.85654 1.68207,-2.38332 0.96659,-1.77456 1.87638,-3.58211 2.29237,-4.54596 l 0.006,-0.0114 c 0.0169,-0.0315 0.05,-0.11496 0.0879,-0.21444 0.0116,-0.0289 0.0285,-0.0665 0.0387,-0.093 0.11059,-0.28517 0.174,-0.45982 0.21498,-0.64648 0.001,-0.003 0.003,-0.009 0.004,-0.0114 0.002,-0.006 0.003,-0.0209 0.005,-0.0284 0.007,-0.0371 0.0138,-0.0771 0.0196,-0.11679 10e-4,-0.0101 0.003,-0.0172 0.004,-0.0274 0.0179,-0.13169 0.0295,-0.31285 0.0388,-0.51882 0.006,-0.11415 0.0104,-0.23599 0.0145,-0.36537 5.3e-4,-0.0214 0.002,-0.0314 0.002,-0.0537 1.1e-4,-0.004 2.4e-4,-0.008 5.3e-4,-0.0114 7e-5,-0.003 -7e-5,-0.005 0,-0.007 1.1e-4,-0.003 -8e-5,-0.007 0,-0.01 0.008,-0.26042 0.0122,-0.53705 0.0114,-0.82682 -1.8e-4,-0.27622 -0.004,-0.54657 -0.0134,-0.79325 -0.0292,-1.08402 -0.1095,-2.2806 -0.22893,-3.44421 -0.0126,-0.12597 -0.0265,-0.24625 -0.0398,-0.36796 -0.025,-0.22568 -0.0507,-0.44735 -0.0785,-0.66764 -0.01,-0.0776 -0.0202,-0.15579 -0.0305,-0.23101 -0.0614,-0.46525 -0.12677,-0.91996 -0.19947,-1.33996 -0.0439,-0.25379 -0.23049,-0.94644 -0.40773,-1.53995 -0.0697,-0.23342 -0.13762,-0.45313 -0.19534,-0.6222 -0.72379,-2.11984 -2.14645,-4.85306 -2.76262,-5.30767 -0.0182,-0.0135 -0.0365,-0.0254 -0.0543,-0.0357 -5.3e-4,0 -0.002,1.1e-4 -0.002,-0.003 -0.0497,-0.0316 -0.0943,-0.0496 -0.1328,-0.0496 -0.007,0 -0.0133,-1.1e-4 -0.0202,0.003 h -5.3e-4 c -0.001,0 -0.002,-2e-5 -0.003,0 -0.0258,0 -0.0495,0.003 -0.0698,0.0164 -0.0263,0.0135 -0.0476,0.0345 -0.0615,0.0651 -0.0608,0.13327 -0.13758,0.55629 -0.38654,2.13733 -0.37409,2.37562 -0.4574,2.8439 -0.51883,2.91248 -0.0654,0.073 -1.01358,-1.30699 -1.46347,-2.12958 -0.44721,-0.81772 -0.66787,-1.9282 -0.7581,-3.8137 -0.0622,-1.29929 0.0204,-2.0892 0.3142,-3.00397 0.15338,-0.47752 0.36855,-0.97123 0.93637,-2.14662 0.23748,-0.4916 0.49737,-1.07823 0.57723,-1.30328 0.10171,-0.28663 0.21487,-0.64786 0.32453,-1.0227 0.0118,-0.0403 0.0233,-0.0794 0.0351,-0.12091 0.16402,-0.56981 0.3135,-1.15266 0.40049,-1.56941 0.0297,-0.14234 0.0548,-0.27204 0.0672,-0.36586 0.0145,-0.10856 0.0228,-0.2857 0.0259,-0.50697 0.001,-0.0437 2.2e-4,-0.0986 0.001,-0.1452 2.2e-4,-0.0859 -1.7e-4,-0.17714 -0.002,-0.27387 -10e-4,-0.0756 2.6e-4,-0.13476 -0.002,-0.21963 -0.006,-0.25006 -0.013,-0.44011 -0.0264,-0.61238 -0.0298,-0.42794 -0.093,-0.70255 -0.26252,-1.31051 l -0.11989,-0.42995 h -0.0129 c -0.2691,-0.91546 -0.59474,-1.83724 -0.84336,-2.36524 -0.24091,-0.51157 -0.65984,-1.05415 -0.77825,-1.00872 -0.0726,0.0279 -0.088,0.22756 -0.15089,1.95958 -0.0263,0.72467 -0.0521,1.30617 -0.0662,1.52548 l -0.006,0.0408 c -0.0349,0.25667 -0.0335,0.25384 -0.34313,0.72966 -0.0805,0.12367 -0.20032,0.33383 -0.33848,0.58913 -0.01,0.0182 -0.0183,0.0339 -0.0284,0.0527 -0.15667,0.29162 -0.33798,0.64312 -0.52452,1.0201 l -0.60306,1.21851 -0.31626,0.30491 c -0.3329,0.32038 -0.67863,0.56475 -1.30121,0.92088 -0.27037,0.15468 -0.46319,0.25892 -0.59687,0.32089 -0.13369,0.062 -0.20835,0.082 -0.24288,0.0687 -0.0697,-0.0267 -0.0724,0.0159 0.0935,-1.54565 0.0508,-0.47799 0.0867,-0.94972 0.10904,-1.41025 2.6e-4,-0.008 5.2e-4,-0.0151 0.001,-0.0228 0.0295,-0.62092 0.0338,-1.22062 0.0103,-1.78128 l -0.0263,-0.63563 h -0.0181 c -0.0435,-0.65011 -0.1109,-1.3444 -0.20929,-2.13061 -0.12926,-1.03283 -0.24581,-1.56422 -0.52142,-2.38797 -0.24143,-0.7216 -0.47347,-1.23071 -0.84955,-1.86243 -0.67432,-1.13266 -1.31431,-1.96228 -2.29392,-2.97294 -0.77039,-0.79481 -2.06668,-1.92587 -2.20917,-1.92701 z m -140.308232,0.5271 a 20.970073,20.903926 0 0 0 -20.8860636,19.45666 c -9.3e-5,-2.4e-4 -0.01292,-0.0315 -0.01292,-0.0315 0,0 0.0024,0.0959 0.0041,0.16536 a 20.970073,20.903926 0 0 0 -0.04186,1.31361 20.970073,20.903926 0 0 0 5.29e-4,0.0847 c -0.141013,2.03727 -0.718354,5.66833 -2.9564094,8.45532 -3.28798,4.09448 -0.147277,4.55991 -0.147277,4.55991 0,0 0.009,0.008 3.1713824,0.008 v 9.84435 c 0,2.30862 1.858567,4.16719 4.167188,4.16719 h 0.132291 1.322917 c 0.485669,0 0.948727,-0.0876 1.38131,-0.23927 0.94790701,0.009 1.46502701,0.17056 1.46502701,0.17056 0,0 0.69396,0.62039 1.011825,1.06399 v 0.89143 0.16381 2.67787 c 0,0.0938 0.01892,0.18272 0.05064,0.26512 a 1.5668672,1.2745412 0 0 0 0.04237,0.21754 1.5668672,1.2745412 0 0 0 1.71100699,0.95758 1.5668672,1.2745412 0 0 0 0.79375,-0.27337 c 0.126831,-0.003 0.255405,-0.0183 0.383956,-0.0506 l 20.0587236,-5.04156 c 0.592724,-0.14904 1.03298,-0.58724 1.211296,-1.12604 h 0.06976 v -0.2925 c 0.02307,-0.15983 0.02424,-0.32498 0,-0.49143 v -9.53223 a 20.970073,20.903926 0 0 0 8.070308,-16.48065 20.970073,20.903926 0 0 0 -20.970296,-20.90415 20.970073,20.903926 0 0 0 -0.03359,0 z m 225.696822,0.007 c -0.9924,0 -2.12185,0.35343 -3.19619,1.47693 -2.86496,2.99604 -9.58753,10.11153 -9.58753,10.11153 l -2.20968,2.266 c 0,0 -2.77087,3.6322 0.094,6.19757 2.86495,2.56532 4.23127,3.93256 4.23127,3.93256 l 2.26549,-1.72289 -4.13773,-5.31749 8.33282,-8.89455 4.38165,-4.53152 6.08592,5.86063 -10.69288,11.38483 c 0,0 0.58081,2.7341 -0.13074,3.70779 -0.71156,0.97372 -1.87275,1.77869 -1.87275,1.77869 0,0 1.49826,0.52454 3.85764,-2.02208 2.35937,-2.54664 8.08943,-8.61396 8.08943,-8.61396 l 3.4644,-3.65146 c 0,0 2.34016,-3.23934 -1.19891,-6.46006 -3.53906,-3.22072 -4.84984,-4.5315 -4.84984,-4.5315 0,0 -1.27243,-0.97279 -2.92642,-0.97102 z m -300.867428,0.10647 c -0.306943,-0.0204 -0.309541,0.0589 -0.309541,0.0589 -0.330729,0.29757 -3.662825,4.60541 -4.448307,5.68854 -0.785482,1.08304 -0.752409,1.05008 -0.868164,1.28159 -0.115755,0.23151 -0.01654,0.35552 -0.01654,0.35554 0,0 0.04134,0.0992 0.19017,0.15709 0.148828,0.0579 5.679757,2.50991 5.679757,2.50991 0,0 0.339725,0.13582 0.462502,-0.0279 0.122777,-0.16375 1.111044,-1.54617 1.111044,-1.54617 l 2.539897,-3.88814 0.333314,-0.58446 c 0,0 0.160739,-0.2399 -0.222211,-0.60822 -0.382942,-0.36833 -1.514295,-1.33888 -2.113565,-1.80661 -0.599268,-0.46773 -2.031416,-1.56964 -2.338359,-1.59009 z m 143.123043,0.79013 a 27.285116,27.285116 0 0 0 -27.201955,27.28515 27.285116,27.285116 0 0 0 27.284635,27.28516 27.285116,27.285116 0 0 0 27.285165,-27.28516 27.285116,27.285116 0 0 0 -27.285165,-27.28515 27.285116,27.285116 0 0 0 -0.0827,0 z m 0.0801,1.87274 a 25.411997,25.411997 0 0 1 0.003,0 25.411997,25.411997 0 0 1 0.44907,0.004 l -0.2279,0.3116 z m -0.27802,0.003 c 0.17682,0.2898 0.36742,0.60719 0.36742,0.60719 0,0 -0.84929,1.55543 -1.03973,1.91254 -0.19045,0.35708 -0.20619,0.33332 -0.20619,0.33332 0,0 -0.76156,-1.38853 -1.45986,-1.99162 -0.30195,-0.26077 -0.61121,-0.46882 -0.86713,-0.6227 a 25.411997,25.411997 0 0 1 3.20549,-0.23873 z m 1.00304,0.008 a 25.411997,25.411997 0 0 1 3.1936,0.293 c -0.61899,0.34544 -1.47791,0.90247 -1.79007,1.48778 -0.50786,0.95223 -0.47594,1.01595 -0.47594,1.01595 l -1.20612,-2.22208 z m -4.55269,0.28009 c 0.48569,0.52213 1.73885,1.96143 1.82211,3.02461 0.10316,1.31725 0.0558,1.67391 -0.0315,1.6025 -0.0873,-0.0714 -1.96013,-0.0236 -2.8727,-1.57096 -0.91256,-1.54739 -0.9922,-1.59491 -1.21439,-2.30116 -0.0376,-0.11973 -0.064,-0.20029 -0.0884,-0.27387 a 25.411997,25.411997 0 0 1 2.38487,-0.48112 z m 8.08374,0.0677 a 25.411997,25.411997 0 0 1 2.36937,0.51985 c -0.50414,0.96187 -1.77855,3.25385 -2.65566,3.57963 -1.11094,0.41264 -1.42833,0.41238 -1.42833,0.41238 0,0 -0.34918,-1.93628 0.60306,-3.14246 0.50364,-0.63794 0.87049,-1.08286 1.11156,-1.3694 z m -10.58385,0.44286 c 0.0305,0.61356 0.15978,1.90762 0.71159,2.84686 0.74591,1.26963 1.02382,1.99181 1.88877,2.56315 0.86494,0.57134 0.9679,0.57928 0.9679,0.57928 0,0 -0.0713,0.66688 -1.03146,0.61135 -0.96017,-0.0556 -0.88858,0.0238 -0.94413,-0.0636 -0.0556,-0.0873 -1.51567,-3.33283 -4.70565,-4.95163 -0.24574,-0.1247 -0.444968,-0.22122 -0.625808,-0.30644 a 25.411997,25.411997 0 0 1 3.738788,-1.27899 z m 13.11135,0.12041 a 25.411997,25.411997 0 0 1 3.58737,1.28984 l -0.91002,0.43717 c 0,0 -2.1586,1.30133 -3.04736,2.63446 -0.88874,1.33313 -1.20612,2.03142 -1.20612,2.03142 0,0 -2.25314,-0.28586 -1.87224,-0.34933 0.38089,-0.0635 1.04733,-0.92051 1.74563,-1.65055 0.69831,-0.73004 1.55494,-2.72952 1.55494,-3.11042 0,-0.23513 0.0831,-0.84201 0.1478,-1.28259 z m -143.759702,0.77875 v 0 c -0.02577,-0.003 -0.05018,-0.003 -0.07338,0 -0.37125,0.0468 -0.38046,0.11067 -0.450617,0.1633 -1.789036,2.64263 -3.367236,5.10976 -3.367236,5.10976 l -0.456303,0.83042 c 0,0 -0.166661,0.14015 0.178285,0.38862 0.344942,0.24847 1.783418,1.01759 1.920811,1.06143 0.137393,0.0439 1.326997,0.74827 1.39423,0.78341 0.06724,0.0351 0.251325,0.21317 0.254249,0.24238 0.0029,0.0292 0.08503,0.97682 0.04702,1.33633 -0.038,0.35952 -0.06459,1.35343 -0.06459,1.35343 0,0 -0.01447,0.42391 -0.01447,0.43563 0,0.0116 0.01744,0.44985 0.04082,0.51417 0.02339,0.0643 0.120185,0.34213 0.389126,0.0351 0.268935,-0.30691 1.87637,-2.38847 1.87637,-2.38847 l 1.163753,-1.50222 c 0,0 1.829928,-2.36821 1.967322,-2.59623 0.137391,-0.22799 0.596447,-0.84963 0.564307,-0.90847 -0.03214,-0.0588 -4.078016,-4.01389 -4.209562,-4.11036 -0.123326,-0.0905 -0.773461,-0.71022 -1.160136,-0.74879 z m 126.416571,0.59893 c 0.196274,0.16156 0.372587,0.29353 0.372587,0.29353 0,0 1.594944,1.11078 2.277384,2.23758 0.68243,1.12681 1.0082,1.95234 1.0082,1.95234 0,0 -3.222129,-1.18261 -5.158337,-2.53162 -0.450313,-0.31374 -0.757497,-0.51966 -0.969449,-0.65526 a 25.411997,25.411997 0 0 1 2.469615,-1.29657 z m 21.495841,0.17312 a 25.411997,25.411997 0 0 1 2.45515,1.34048 c -0.8238,0.58103 -2.87493,1.97279 -4.2478,2.42208 -1.74576,0.57134 -1.77767,0.60306 -1.77767,0.60306 0,0 0.73027,-1.84073 1.61902,-2.66599 0.62016,-0.57587 1.47069,-1.29688 1.9513,-1.69963 z m -24.118936,1.21595 c 0.326716,0.3639 1.23597,1.36985 1.43247,1.50741 0.238057,0.16663 1.722115,1.45235 2.380736,1.75389 0.65864,0.30155 3.18199,2.00742 4.53099,2.26134 1.349,0.25392 2.03945,0.39656 2.18229,0.38862 0.15871,5.34043 0.18242,5.79292 0.18242,5.79292 0,0 -3.07867,-3.87249 -4.76095,-4.90408 -1.68229,-1.03158 -3.888357,-1.77747 -4.681885,-1.80919 -0.793527,-0.0317 -0.84129,-0.0315 -0.84129,-0.0315 0,0 -1.174536,-1.03206 -1.222147,-2.14302 -0.04764,-1.11093 -0.301443,-1.17417 0.06356,-2.0629 0.06745,-0.16425 0.116319,-0.2857 0.160198,-0.39481 a 25.411997,25.411997 0 0 1 0.573608,-0.35864 z m -52.98333,0.11834 c 0,0 0.570513,0.46292 0.603581,0.48782 0.03307,0.0249 0.51263,3.11713 0.51263,3.11713 l 3.299023,1.21542 2.273763,-1.74459 0.644922,0.0413 1.686719,1.62058 c 0,0 0.0083,0.0413 0.537435,0.55398 0.529166,0.51263 0.09922,0.0744 0.115755,0.92604 1.98e-4,0.0101 -1.88e-4,-0.003 0,0.008 l -1.736328,2.42261 c 0,0 0.115755,0.11578 0.545703,0.69453 0.429951,0.5788 0.603612,1.34768 0.595312,1.64536 -0.0083,0.29763 0.28112,0.76068 0.28112,0.76068 l 2.778125,0.46302 c 0,-2e-5 0.01654,5e-5 0.479557,0.77722 v -0.008 c 0,0 0.463024,0.78616 0,0.008 l -0.02479,2.80294 c 0,0 -0.09095,0.30591 -0.686263,0.76893 l -2.885612,0.45477 -0.107487,0.58703 -1.000456,2.52182 c 0,0 1.422138,1.9513 1.736328,2.32336 0.314196,0.37208 -0.04961,0.9095 -0.04961,0.9095 l -2.290299,2.28204 -0.810287,0.008 -2.488737,-1.7694 -2.836002,1.3312 -0.289388,2.71197 -0.967383,0.77722 c 0,0 -2.488737,0.0658 -2.993099,-0.0254 -0.504362,-0.0909 -0.785482,-0.81804 -0.785482,-0.81804 l -0.4547516,-2.76934 c -0.01474,-1.6e-4 -0.03259,-0.004 -0.04806,-0.005 a 0.06101195,0.14578691 0 0 1 -0.01291,0.005 0.06101195,0.14578691 0 0 1 -0.0186,-0.007 c -0.894043,-0.0693 -2.872177,-1.14308 -2.872177,-1.14308 l -2.488737,1.77819 -0.686263,0.008 c 0,0 -1.918226,-1.76114 -2.323372,-2.27377 -0.40504799,-0.51263 0.0083,-1.15756 0.0083,-1.15756 0,0 -0.0082,0 1.570964,-2.21588 -0.611849,-0.7276 -1.207162,-2.91042 -1.207162,-2.91042 0,0 -2.860807,-0.49612 -3.12539,-0.59531 -0.264581,-0.0992 -0.463021,-0.61185 -0.463021,-0.61185 0,0 -0.133451,-2.76431 0.0011,-3.24374 0.134469,-0.4794 0.649057,-0.62579 0.649057,-0.62579 l 2.911449,-0.45011 1.176155,-2.92383 -1.769401,-2.57969 0.09095,-0.78496 2.348177,-2.24896 0.835092,-0.008 2.563151,1.71926 2.885611,-1.28156 0.4878256,-3.00086 0.496094,-0.52141 z m -11.1869136,20.07473 0.0021,0.003 a 0.05322672,0.08061523 0 0 1 -0.0011,-0.003 z m 90.8166796,-20.02305 a 25.411997,25.411997 0 0 1 1.06918,0.70538 c 0.12477,1.01899 0.25406,3.00434 -0.56482,3.44887 -1.11093,0.60309 -2.0314,0.69815 -2.0314,0.69815 0,0 -4.79286,1.14311 -6.53862,3.61892 -1.74577,2.47579 -2.44429,3.07888 -2.44429,3.07888 l 0.15916,-5.7454 c 0,0 3.87219,-0.66657 6.41149,-2.47582 1.92447,-1.3712 3.35217,-2.73888 3.9393,-3.32898 z m -27.664462,0.48109 c -0.40766,0.58944 -0.845323,1.35922 -0.810803,1.91151 0.06349,1.01571 0.222208,2.3487 0.222208,2.3487 0,0 -1.761908,-0.23799 -3.713985,0.77775 -1.115113,0.5802 -1.868401,1.11297 -2.316136,1.46708 a 25.411997,25.411997 0 0 1 6.618716,-6.50504 z m 29.227672,0.57774 a 25.411997,25.411997 0 0 1 5.199685,5.1077 c -0.11853,-0.0664 -0.2456,-0.13385 -0.38654,-0.20309 -1.809245,-0.88874 -3.332585,-1.30119 -4.538745,-1.30119 -1.20616,0 -0.0954,-0.34936 -0.0636,-0.57156 0.0302,-0.21169 0.26164,-2.03636 -0.21084,-3.03186 z m -165.449847,0.4 c 0,0 -0.20257,0.004 -0.423746,0.18084 -0.221176,0.17674 -8.041886,11.31613 -8.041886,11.31613 l -0.251148,0.42994 c 0,0 -0.146785,0.30385 -0.161229,0.35036 -0.01447,0.0465 -0.06305,0.40204 -0.06305,0.42376 0,0.0217 0.101288,0.43098 0.172601,0.51779 0.07131,0.0868 0.231511,0.44138 0.36897,0.65524 0.137459,0.21379 10.268106,15.18047 10.268106,15.18047 l 0.427881,0.68834 c 0,0 0.192212,0.21497 0.152964,0.49609 -0.03928,0.28112 -2.189015,14.67612 -2.120802,15.13293 0.06821,0.45683 0,0.35142 0.130225,0.44235 0.130225,0.091 9.758577,0.39693 11.271663,-0.0331 0.396877,-2.95172 0.785481,-7.61502 0.785481,-7.61502 l 0.561205,-8.76279 c 0,0 -1.569929,0.14726 -1.70222,-0.0594 -0.132292,-0.20669 1.30638,-1.15755 1.30638,-1.15755 0,0 1.149284,-0.51276 0.115755,-2.00919 -1.033529,-1.49649 -4.431771,-7.98709 -4.721159,-8.17727 -0.289388,-0.19015 -1.843815,-3.29901 -1.843815,-3.29904 0,0 -0.529166,-0.81854 -1.785937,-1.31463 -0.352327,-0.13909 -0.634466,-0.25223 -1.131197,-0.44958 h -5.29e-4 l -2.67529,-1.21338 c -0.911055,-0.21323 2.359496,-0.84103 2.032434,-1.29707 0.03054,-0.22106 -0.02551,-0.52522 -0.242363,-0.94517 l -0.528648,-2.0624 c 0.0053,-1.6e-4 0.0155,0 0.0155,0 0,0 2.711979,2.72029 3.811654,2.70373 1.099674,-0.0164 4.373893,-0.32245 5.101497,-0.56224 0.727604,-0.2398 0.975651,-0.0496 1.198893,-1.81076 0.223242,-1.76112 0.372071,-2.27375 -0.79375,-2.84427 -1.16582,-0.57049 -11.234457,-4.90305 -11.234457,-4.90305 z m 19.751766,2.0996 c -0.08478,-0.003 -0.178192,0.0175 -0.423746,0.28059 -0.245554,0.2631 -1.140499,1.37978 -1.140499,1.37978 l -0.979269,1.28002 -0.964282,1.27744 -1.219047,1.61695 -1.327568,1.77146 -1.467094,1.99369 -0.707451,1.01698 c 0,0 -0.564218,0.85683 -0.613915,1.07024 -0.04969,0.21339 -0.01762,0.24516 0.04961,0.2744 0.06723,0.0292 1.087274,0.52657 1.087274,0.52657 l 1.599385,0.74261 c 0,0 1.417788,0.61087 1.593184,0.65474 0.175395,0.0439 0.827117,0.26863 1.096057,0.0465 0.26894,-0.22217 0.453072,-0.43539 0.77463,-0.80666 0.321557,-0.37123 1.090372,-1.24539 1.090372,-1.24539 l 0.865064,-0.97618 1.049548,-1.17822 1.760099,-1.99678 c 0,0 2.15128,-2.49934 2.244825,-2.63962 0.09354,-0.14031 0.330598,-0.56083 -0.03772,-0.94673 -0.368331,-0.38587 -1.651579,-1.72186 -1.651579,-1.72186 l -1.321366,-1.295 -0.874366,-0.80409 c -0.336175,-0.28353 -0.397366,-0.31851 -0.482141,-0.32142 z m 274.484026,2.1513 c 0,0 -0.37399,0.0376 -0.95447,0.13123 -0.58049,0.0936 -1.04903,0.39275 -1.04903,0.39275 l -6.74119,5.13149 -0.63614,1.5539 3.01429,1.34824 3.72691,-2.92077 c 0,0 -8e-4,-0.0193 -0.11318,-1.18028 -0.11241,-1.16094 1.02991,-2.67734 1.02991,-2.67734 z m -159.295193,0.17053 c 0.471549,0.008 1.06476,0.0604 1.88309,0.19431 2.618642,0.42849 5.507158,3.17396 5.507158,3.17396 0,0 -1.76148,1.30165 -2.237591,1.46037 -0.476123,0.1587 -0.476456,0.2222 -0.476456,0.2222 0,0 -2.745393,-3.15833 -5.697326,-3.47575 -2.951927,-0.3174 -3.793051,0.0636 -3.793051,0.0636 0,0 -0.460184,0.0476 -0.872815,0.22222 -0.09387,0.0397 -0.163116,0.0712 -0.221692,0.0987 a 25.411997,25.411997 0 0 1 0.148312,-0.22839 c 0.699366,-0.45251 2.274986,-1.40075 3.326929,-1.4733 0.949265,-0.0655 1.396037,-0.27353 2.433442,-0.25786 z m 30.084988,0.17827 c 2.5388,0 5.391865,0.60304 6.271975,0.99891 a 25.411997,25.411997 0 0 1 0.4408,0.6568 c -1.03945,-0.32096 -3.227765,-0.79907 -5.220885,0.0584 -2.72973,1.17444 -1.71396,0.69853 -4.285,2.4443 -2.57103,1.74578 -3.23753,-0.69871 -3.23753,-0.92088 0,-0.22219 3.23742,-3.23752 6.03064,-3.23752 z m 133.586675,1.41232 -2.60862,2.82051 4.15788,5.40174 c 0,0 -0.67579,0.78168 -1.99987,1.57612 -1.32407,0.79449 -1.94622,1.7612 -3.98529,2.99259 -2.03905,1.2314 -2.09238,2.02571 -2.09238,2.02571 l -3.07113,7.21608 c 0,0 -0.0272,-0.0137 1.04542,1.19169 1.07249,1.20483 0.83405,2.80654 0.83405,2.80654 l 0.78187,-0.75449 3.73362,-8.80514 c 0,0 2.68748,-2.05235 6.24923,-4.70049 3.56175,-2.64816 1.17822,-6.19651 1.17822,-6.19651 z m -168.311174,0.41291 c 0,0 1.253694,0.0317 1.586984,0.15864 0.333275,0.12695 2.666212,1.1111 2.745568,1.1746 0.07934,0.0635 1.253673,0.66661 1.253673,0.66661 0,0 1.158584,0.92025 1.158584,1.01545 0,0.0952 0.238228,0.34935 0.238228,0.34935 0,0 -3.301241,-0.31752 -4.967655,-1.11106 -1.666404,-0.79351 -3.078883,-1.9358 -3.078883,-1.9358 l -0.316775,-0.18759 a 25.411997,25.411997 0 0 1 0.03721,-0.0589 z m 40.120554,0.0475 h 1.45624 a 25.411997,25.411997 0 0 1 0.19637,0.31472 c -0.94923,0.75846 -3.591735,2.66909 -6.286445,2.79622 -3.36456,0.1587 1.3963,-2.03141 1.3963,-2.03141 0,0 2.19007,-1.07953 3.237535,-1.07953 z m -41.510648,0.0992 c 0.06236,0.10065 0.761185,1.22047 1.23145,1.61491 0.49199,0.41262 1.904518,1.58721 2.09496,1.66656 0.190455,0.0793 5.777026,2.39651 8.649603,1.38078 2.87258,-1.01571 2.91972,-1.26969 2.91972,-1.26969 0,0 1.04763,1.99938 1.0635,2.11048 0.0159,0.11107 0.0951,2.41276 0.0951,2.41276 0,0 -0.96808,-1.41242 -4.618318,-1.80919 -3.650229,-0.39675 -5.554702,0.23773 -5.554702,0.23773 0,0 -1.872335,0.7145 -3.808553,-0.45993 -1.672735,-1.01462 -2.101162,-4.71233 -2.186945,-5.70148 a 25.411997,25.411997 0 0 1 0.114205,-0.18293 z m -46.088659,0.0853 a 5.8890465,5.8890465 0 0 0 -5.8756096,5.88905 5.8890465,5.8890465 0 0 0 0.0026,0.16742 5.8890465,5.8890465 0 0 0 -0.0026,0.1633 5.8890465,5.8890465 0 0 0 5.8890446,5.88905 5.8890465,5.8890465 0 0 0 5.889046,-5.88905 5.8890465,5.8890465 0 0 0 -0.0026,-0.16536 5.8890465,5.8890465 0 0 0 0.0026,-0.16536 5.8890465,5.8890465 0 0 0 -5.889046,-5.88905 5.8890465,5.8890465 0 0 0 -0.01344,0 z m 89.438987,0.43926 a 25.411997,25.411997 0 0 1 0.40101,0.69813 c 0.13913,2.04923 -0.23291,6.08624 -5.541265,5.15369 -7.04654,-1.23791 -10.72855,1.587 -10.72855,1.587 l 0.19017,-2.6665 0.85731,-1.90429 c 0,0 6.31617,3.07856 10.85515,0.34883 2.639155,-1.58718 3.611785,-2.62453 3.966175,-3.21686 z m -147.001365,0.54105 c -0.02661,0 -0.04186,0.005 -0.04186,0.005 0,0 -0.220142,0.18605 -0.355534,0.32454 -0.13539,0.1385 -0.58601,0.61907 -0.58601,0.61907 0,0 -0.460954,0.5054 -0.465088,0.5054 -0.0041,0 -0.697632,0.78238 -0.697632,0.78238 l -0.37207,0.4165 -0.41858,0.46612 -0.468188,0.51988 -0.470256,0.50229 -0.289388,0.3266 -0.352433,0.40203 -0.374137,0.42479 -0.305924,0.34004 -0.374138,0.41341 -0.276986,0.30282 -0.418579,0.45577 -0.390674,0.42376 -0.322461,0.35036 -0.334863,0.37415 -0.411344,0.47749 -0.257349,0.31522 c 0,0 -0.361741,0.34417 0.02274,0.80926 0.384472,0.46508 0.537435,0.63873 0.733805,0.85783 0.19637,0.2191 0.940511,0.99012 0.940511,0.99012 0,0 0.59738,0.56428 0.748275,0.67178 0.150895,0.10745 0.314192,0.30769 0.789616,-0.0185 0.475423,-0.3266 1.093473,-0.80407 1.527555,-1.1679 0.434081,-0.3638 1.157552,-0.96528 1.157552,-0.9653 l 1.364258,-1.12861 1.397331,-1.1493 1.438672,-1.19268 1.134814,-0.96118 0.485758,-0.45474 c 0,0 0.322401,-0.37 0.0021,-0.84336 -0.320394,-0.47337 -1.023193,-1.4015 -1.178222,-1.59166 -0.155029,-0.19018 -1.409734,-1.64536 -1.746664,-1.95955 -0.336928,-0.3142 -0.630453,-0.57259 -0.72347,-0.61598 -0.04651,-0.0217 -0.08449,-0.0271 -0.111104,-0.0274 z m 102.804576,0.385 c -0.08962,0.45558 -0.119972,1.0107 -0.0088,1.65518 0.336669,1.95267 0.561205,2.46911 0.561205,2.46911 0,0 -2.401345,0.94245 -3.029788,3.02977 -0.0982,0.32621 -0.178065,0.60865 -0.248563,0.86818 a 25.411997,25.411997 0 0 1 2.72593,-8.02224 z m 45.151249,0.83095 a 25.411997,25.411997 0 0 1 2.35438,7.56285 c -0.51441,-1.38878 -1.40847,-3.52685 -2.00607,-3.78582 -0.95225,-0.41265 -0.92036,-0.44392 -0.92036,-0.44392 0,0 0.53208,-1.84219 0.57205,-3.33311 z m 107.89419,0.079 -0.86196,0.78653 2.34094,1.89085 z m -270.170586,1.36221 c -0.108781,0 -0.236162,0.004 -0.382924,0.008 -0.892969,0.32235 -4.398698,0.79404 -5.035351,0.80204 -0.636654,0.008 -1.504818,-0.23988 -1.711524,-0.21498 -0.355536,0.19018 -0.17363,0.37208 0.08268,0.5705 0.256316,0.1983 4.67155,1.84382 5.018815,1.95958 0.347266,0.11575 0.429948,-1.9e-4 0.835092,-0.33901 1.744593,-1.56266 1.752864,-2.59625 1.711523,-2.69542 -0.03101,-0.0742 -0.191979,-0.0922 -0.518313,-0.0899 z m 264.796236,1.09141 -0.41237,2.50835 5.13095,-0.35501 z m -103.34304,2.11354 c 0.21447,-0.003 0.48521,0.13079 0.85421,0.46405 0.78851,0.71224 1.85871,2.13413 2.40089,3.03136 a 25.411997,25.411997 0 0 1 0.19017,3.10007 25.411997,25.411997 0 0 1 -0.71624,5.99083 c -0.24089,-2.64377 -0.88927,-7.69165 -2.41432,-9.17048 -2.09491,-2.03145 -2.0314,-1.99935 -2.0314,-1.99935 0,0 0.53945,0.0952 0.92036,-0.60307 0.23806,-0.43643 0.4389,-0.81092 0.79633,-0.81341 z m -43.147242,0.0832 c 0,0 0.404013,0.87562 0.673343,1.01026 0.269341,0.13467 0.606166,0.35917 0.606166,0.35917 0,0 -3.613753,3.56876 -4.129982,6.0601 -0.472101,2.27843 -0.624054,4.57115 -0.526582,5.61671 a 25.411997,25.411997 0 0 1 -0.854728,-6.53397 25.411997,25.411997 0 0 1 0.165365,-2.89285 c 0.413498,-1.00443 1.324025,-2.82752 2.450496,-3.17034 1.548659,-0.47135 1.615922,-0.44908 1.615922,-0.44908 z m -120.853604,0.75655 c -1.6838,0.0643 -1.244893,-0.24535 0.134874,2.0991 1.379784,2.34445 1.934769,3.33828 1.934766,3.33828 l 2.490806,4.17443 1.508434,2.59001 1.274341,2.16318 0.345199,0.67231 c 0,0 0.45009,0.51456 -0.649056,0.22222 -1.099146,-0.29231 -0.976168,0.14004 -0.976168,0.14004 l -0.380337,2.85925 -0.187071,2.03451 -0.268716,2.57244 -0.1695,1.86502 -0.292489,3.19773 -0.175181,2.21588 c 0,0 -0.257408,1.49675 0.900203,1.50845 1.157609,0.0116 4.96042,0.003 4.96042,0.003 1.302002,-0.1956 1.380136,0.3801 1.576131,-2.09494 0.09877,-1.24727 -0.04134,-4.60129 -0.04134,-4.60129 l -0.04651,-4.20336 -0.04909,-3.07059 c 0,0 2.486883,-2.58932 3.206006,-4.16203 0.719121,-1.57271 1.232482,-2.95794 1.497066,-4.02455 0.264583,-1.06659 0.818554,-3.79513 0.901237,-4.34083 0.08268,-0.54573 0.322461,-2.25722 0.322461,-2.25722 0,0 0.0391,-0.73199 -0.253215,-0.61394 0,0 -3.081447,2.22171 -4.163053,2.98175 -1.081607,0.76004 -1.648742,1.15139 -1.900143,1.09294 -0.2514,-0.0585 -1.437952,-1.12241 -1.817977,-1.53167 -0.380023,-0.40926 -1.976352,-2.03475 -3.607531,-2.7714 -1.631181,-0.73666 -4.390767,-2.12207 -6.074565,-2.05778 z m 128.282609,1.06143 c 1.369102,-0.0225 5.319602,0.94263 7.496702,3.47885 2.1771,2.53622 2.33402,4.44413 2.19935,7.4068 -0.13466,2.96264 -2.67064,7.74319 -2.67064,7.74319 0,0 -0.2246,0.51623 -3.254584,2.3342 -3.029992,1.81801 -3.770431,2.58136 -5.678207,2.15493 -1.269941,-0.28387 -3.056548,-1.41351 -4.499983,-2.95124 a 25.411997,25.411997 0 0 1 -4.31705,-8.63772 c 0.124397,-0.52546 0.34629,-5.60684 3.048394,-8.22947 3.052443,-2.96267 6.306913,-3.2771 7.676018,-3.29954 z m 27.457752,1.01751 c 0.89168,-0.006 1.86399,0.0829 3.08405,0.21188 3.904155,0.41262 5.046895,2.60239 5.396055,3.20548 0.34915,0.60309 1.58689,2.38093 2.12649,4.60282 0.17008,0.70033 0.2812,1.27982 0.35657,1.75493 a 25.411997,25.411997 0 0 1 -5.298395,10.34923 c -1.68274,1.19388 -3.93113,1.82533 -7.05642,1.32241 -8.28444,-1.33315 -9.14112,-11.01428 -9.2046,-11.39518 -0.0635,-0.38089 -0.22248,-5.8724 4.09432,-8.06254 2.96781,-1.50574 4.54024,-1.97604 6.50193,-1.98903 z m 116.378435,0.0419 c 0,0 -0.46797,1.34805 -2.80862,6.46006 -2.34065,5.11191 1.26349,7.10655 1.26349,7.10655 l 6.60993,2.76209 1.01183,-0.86196 -0.9741,-1.17977 -2.51871,-2.99567 -2.79931,-1.18909 2.03191,-4.85912 1.67587,-3.82045 c 0,0 -2.94938,0.35655 -3.15536,0.4315 -0.20598,0.075 -0.28075,-1.81668 -0.33693,-1.85414 z m -66.44711,3.93721 h 10e-4 a 6.3635622,6.5904488 0 0 1 0.0114,0 6.3635622,6.5904488 0 0 1 5.64358,3.54502 6.3635622,6.5904488 0 0 1 0.79685,-0.0522 6.3635622,6.5904488 0 0 1 0.20774,0.005 6.3635622,6.5904488 0 0 1 5.61826,-3.49748 h 5.3e-4 a 6.3635622,6.5904488 0 0 1 6.22701,5.2364 c 0.48334,1.4083 -0.24593,4.98991 -0.32711,5.21414 -0.005,0.0146 -0.0716,0.0815 -0.17053,0.17725 -0.29564,0.54845 -2.55061,4.73384 -2.7032,5.12889 -0.15282,0.39569 -2.12482,2.10521 -3.77909,3.19516 -0.002,0.003 -0.002,0.004 -0.003,0.006 -0.0323,0.0334 -0.0886,0.0491 -0.12247,0.0842 -0.0115,0.0119 -0.0159,0.0305 -0.0274,0.0424 -0.0599,0.062 -0.13471,0.1044 -0.20309,0.15399 -0.071,0.0514 -0.13214,0.11752 -0.20309,0.16899 -0.0697,0.0505 -0.14737,0.0906 -0.21704,0.14054 -0.029,0.0209 -0.0522,0.0488 -0.0811,0.0698 -0.10954,0.0794 -0.24693,0.12584 -0.35243,0.21085 -0.0986,0.0794 -0.19576,0.1697 -0.31161,0.22426 -0.0789,0.0371 -0.16456,0.0603 -0.24391,0.0982 -0.0478,0.0228 -0.0878,0.0621 -0.13591,0.0842 -0.021,0.0101 -0.0471,0.004 -0.0677,0.0145 -0.0259,0.0132 -0.0427,0.0399 -0.0672,0.0558 -0.0381,0.0246 -0.0663,0.0151 -0.10852,0.0424 -0.0997,0.0645 -0.19109,0.14568 -0.29869,0.19638 -0.026,0.0122 -0.0556,0.0148 -0.0811,0.0279 -0.13967,0.0723 -0.0252,0.0358 -0.14883,0.11266 -0.0664,0.0412 -0.0626,0.0119 -0.12196,0.0558 -0.0156,0.0116 -0.0242,0.0326 -0.0408,0.0424 -0.0508,0.03 -0.12354,0.0325 -0.17622,0.0558 -0.0118,0.005 -0.0155,0.0225 -0.0269,0.0284 -0.0316,0.0164 -0.15213,0.0709 -0.18965,0.0837 -0.0218,0.008 -0.0461,0.006 -0.0677,0.0145 -0.0399,0.0156 -0.0696,0.0519 -0.10852,0.0698 -0.0483,0.0222 -0.10936,0.007 -0.14883,0.0563 -0.0368,0.0172 -0.0756,0.032 -0.10852,0.0563 -0.043,0.0319 -0.0327,0.0496 -0.0816,0.0698 -0.008,0.003 -0.0189,-0.004 -0.0269,0 -0.0291,0.0151 -0.0539,0.0385 -0.0816,0.0563 -0.0533,0.0345 -0.10103,0.0771 -0.16227,0.0982 -0.14751,0.0508 0.0229,-0.0101 -0.0946,0.0145 -0.0539,0.0111 -0.10736,0.0555 -0.16278,0.0698 -0.082,0.0212 -0.1735,0.0419 -0.25735,0.0563 -0.0757,0.0132 -0.16882,0 -0.24443,0 h -0.51469 c -0.0541,0 -0.47428,0.0143 -0.50178,0 -0.0341,-0.0175 -0.0897,-0.0341 -0.12196,-0.0563 -0.004,-0.003 0.003,-0.0106 0,-0.014 -0.0179,-0.0185 -0.0974,-0.0193 -0.12196,-0.0279 -0.062,-0.0214 0.0572,-0.0109 -0.0408,-0.0279 -0.0178,-0.003 -0.0366,0.004 -0.0543,0 -0.006,0 -0.007,-0.013 -0.0129,-0.0146 -0.0602,-0.0151 -0.12875,-0.005 -0.19017,-0.014 -0.12125,-0.018 -0.24052,-0.0343 -0.36587,-0.0424 -0.0918,-0.006 -0.18362,0.0111 -0.2713,-0.0279 -0.14141,-0.0628 0.10986,0.009 -0.12196,-0.0563 -0.0351,-0.0103 -0.0735,-0.004 -0.10852,-0.014 -0.0692,-0.0204 -0.0333,-0.0313 -0.0946,-0.0418 -0.0134,-0.003 -0.0272,0.004 -0.0403,0 -0.0537,-0.0159 -0.0719,-0.0723 -0.12196,-0.0853 -0.0132,-0.003 -0.028,0.004 -0.0408,0 -0.076,-0.0262 -0.14454,-0.066 -0.21704,-0.0982 -0.0738,-0.0328 -0.1578,-0.0461 -0.23048,-0.0837 -0.2335,-0.12091 0.11178,0.0274 -0.10852,-0.0703 -0.0303,-0.0135 -0.0652,-0.0127 -0.0946,-0.0279 -0.0202,-0.0106 -0.0349,-0.0299 -0.0543,-0.0419 -0.0556,-0.0346 -0.12392,-0.0576 -0.17622,-0.0982 -0.0797,-0.0619 -0.15598,-0.12266 -0.24442,-0.16846 -0.0146,-0.008 -0.0288,-0.0164 -0.0403,-0.0284 -0.007,-0.007 -0.004,-0.0241 -0.0135,-0.0279 -0.12256,-0.0507 0.0213,0.0682 -0.12195,-0.0145 -0.0224,-0.0127 -0.0326,-0.0423 -0.0543,-0.0563 -0.0158,-0.0103 -0.0376,-0.006 -0.0543,-0.0146 -0.0271,-0.014 -0.0206,-0.0279 -0.0408,-0.0419 -0.044,-0.0304 -0.10032,-0.0641 -0.14882,-0.0842 -0.0355,-0.0146 -0.0821,0.003 -0.12196,-0.014 -0.021,-0.009 -0.0345,-0.0312 -0.0543,-0.0424 -0.22363,-0.12634 -0.46077,-0.17225 -0.58808,-0.43357 -0.86701,-0.47446 -1.64098,-1.01741 -2.33164,-1.60767 a 4.1401497,5.3200014 0 0 1 -0.447,-0.39944 c -2.87047,-2.67724 -4.17879,-6.1687 -4.77387,-8.67079 -0.10203,-0.18304 -0.20435,-0.36592 -0.30334,-0.55295 l 0.17467,0.19018 a 6.3635622,6.5904488 0 0 1 -0.33642,-2.11304 6.3635622,6.5904488 0 0 1 0.005,-0.26771 c -0.0244,-0.27424 -0.0326,-0.44802 -0.0326,-0.44802 0,0 0.063,-0.005 0.0661,-0.005 a 6.3635622,6.5904488 0 0 1 6.31383,-5.86941 z m 11.76001,1.41025 a 5.9247595,5.8852762 0 0 0 -5.23173,3.12283 5.9247595,5.8852762 0 0 0 -0.19378,-0.003 5.9247595,5.8852762 0 0 0 -0.74156,0.0471 5.9247595,5.8852762 0 0 0 -5.25446,-3.16622 5.9247595,5.8852762 0 0 0 -0.0103,0 h -5.3e-4 a 5.9247595,5.8852762 0 0 0 -5.87871,5.24153 c -0.003,2.4e-4 -0.0615,0.004 -0.0615,0.004 0,0 0.008,0.15608 0.0305,0.40101 a 5.9247595,5.8852762 0 0 0 -0.004,0.23823 5.9247595,5.8852762 0 0 0 0.31316,1.88722 l -0.16226,-0.1695 c 0.0922,0.16704 0.18766,0.33007 0.28267,0.4935 0.55404,2.23438 1.77163,5.35245 4.44417,7.74322 a 3.8546632,4.7507657 0 0 0 0.41651,0.35655 c 0.64303,0.52711 1.36372,1.0119 2.17093,1.43558 0.11854,0.23336 0.33955,0.27477 0.54777,0.38756 0.0185,0.0101 0.0306,0.0294 0.0501,0.0372 0.0371,0.0145 0.0807,-5e-5 0.11369,0.013 0.0452,0.018 0.0975,0.0477 0.13849,0.0749 0.0189,0.0124 0.0125,0.0251 0.0377,0.0377 0.0155,0.008 0.036,0.003 0.0506,0.0124 0.0202,0.0127 0.0298,0.0386 0.0506,0.0501 0.13343,0.0736 -5.3e-4,-0.0326 0.11369,0.013 0.009,0.003 0.006,0.0183 0.0124,0.0249 0.0107,0.0106 0.0241,0.0196 0.0377,0.0265 0.0823,0.0409 0.15313,0.094 0.22737,0.14933 0.0487,0.0362 0.11253,0.0575 0.16433,0.0884 0.0181,0.0109 0.0313,0.0288 0.0501,0.0383 0.0274,0.0135 0.0603,0.0127 0.0884,0.0249 0.20512,0.0873 -0.11663,-0.0455 0.10077,0.0625 0.0677,0.0336 0.14574,0.0462 0.21445,0.0755 0.0675,0.0287 0.13131,0.0638 0.20206,0.0873 0.0119,0.004 0.0255,-0.003 0.0377,0 0.0467,0.0116 0.0637,0.0612 0.11369,0.0754 0.0122,0.003 0.0252,-0.003 0.0377,0 0.0571,0.009 0.0241,0.0193 0.0884,0.0377 0.0326,0.009 0.0681,0.003 0.10077,0.0124 0.21583,0.0585 -0.018,-0.006 0.11369,0.0506 0.0816,0.0347 0.16726,0.019 0.2527,0.0243 0.11668,0.007 0.22765,0.0217 0.34054,0.0377 0.0572,0.008 0.12071,-1.1e-4 0.17674,0.013 0.006,0.003 0.006,0.0114 0.0124,0.0124 0.0165,0.003 0.0341,-0.003 0.0506,0 0.0913,0.0151 -0.02,0.006 0.0377,0.0254 0.0229,0.008 0.0971,0.008 0.11369,0.0249 0.003,0.003 -0.003,0.0103 0,0.0124 0.0301,0.0198 0.082,0.0344 0.11369,0.0501 0.0257,0.0127 0.41623,0 0.46664,0 h 0.47955 c 0.0704,0 0.15692,0.0116 0.22738,0 0.0781,-0.013 0.16289,-0.0312 0.23926,-0.0501 0.0516,-0.0127 0.10175,-0.0525 0.15193,-0.0625 0.10948,-0.0217 -0.0489,0.033 0.0884,-0.0124 0.057,-0.0188 0.10128,-0.057 0.15089,-0.0878 0.0258,-0.0159 0.0488,-0.0367 0.076,-0.0501 0.007,-0.004 0.0175,0.003 0.0253,0 0.0455,-0.018 0.0353,-0.034 0.0754,-0.0625 0.0306,-0.0217 0.0671,-0.0347 0.10128,-0.0501 0.0368,-0.0436 0.0935,-0.0303 0.1385,-0.0501 0.0363,-0.0161 0.0636,-0.0492 0.10076,-0.063 0.0201,-0.007 0.0432,-0.006 0.0636,-0.0124 0.0349,-0.0116 0.14727,-0.0602 0.17673,-0.0749 0.0107,-0.005 0.0139,-0.0206 0.0248,-0.0254 0.0491,-0.0209 0.11706,-0.0233 0.16433,-0.0501 0.0155,-0.009 0.0232,-0.0269 0.0377,-0.0372 0.0552,-0.0391 0.0519,-0.014 0.11368,-0.0506 0.11512,-0.0686 0.009,-0.0357 0.1385,-0.10025 0.0238,-0.0119 0.0518,-0.014 0.076,-0.0249 0.10019,-0.0453 0.18519,-0.11808 0.27802,-0.17571 0.0394,-0.0246 0.0652,-0.0151 0.10077,-0.0372 0.0228,-0.0143 0.0389,-0.0388 0.0631,-0.0506 0.0192,-0.0101 0.0433,-0.004 0.063,-0.0124 0.0448,-0.0198 0.0815,-0.0545 0.12609,-0.0749 0.0739,-0.0339 0.15391,-0.0547 0.22738,-0.0878 0.10785,-0.0487 0.19811,-0.12956 0.2899,-0.2005 0.0982,-0.0759 0.22617,-0.11718 0.32815,-0.18812 0.0269,-0.0188 0.049,-0.0439 0.076,-0.0625 0.0649,-0.0446 0.13668,-0.0805 0.20154,-0.12557 0.066,-0.046 0.1236,-0.10446 0.18965,-0.15039 0.0637,-0.0443 0.1334,-0.0821 0.18914,-0.13745 0.0107,-0.0106 0.0141,-0.0275 0.0248,-0.0382 0.0316,-0.0312 0.0837,-0.045 0.11369,-0.0749 0.001,0 0.001,-0.003 0.002,-0.005 1.54021,-0.97333 3.37586,-2.49971 3.51814,-2.85306 0.14207,-0.35279 2.24189,-4.09032 2.51715,-4.58007 0.0921,-0.0854 0.15326,-0.14523 0.15814,-0.15814 0.0756,-0.20024 0.75542,-3.39894 0.3054,-4.65656 a 5.9247595,5.8852762 0 0 0 -5.79809,-4.67569 z m 56.84821,0.42739 c -0.24121,0.0198 -0.39157,0.33181 -0.81288,1.39681 -0.67411,1.704 -0.95549,2.32233 -0.95549,2.32233 l 0.7121,-0.56171 5.50509,6.60992 -8.22017,6.72259 -6.011,5.01777 c 0,0 -5.9917,-6.32931 -5.5423,-6.4978 0.44942,-0.16854 9.81129,-8.31421 9.81129,-8.31421 0,0 -0.63646,-0.74835 -0.74879,-1.53479 -0.11243,-0.78645 -0.18675,-1.12361 -0.0744,-1.57303 0.11241,-0.44937 0.0559,-0.46816 0.18707,-0.71157 0.13108,-0.24345 0.16795,-0.54314 0.16795,-0.54314 -0.1498,0.075 -8.0884,6.77841 -8.0884,6.77841 l -3.44578,2.77141 c 0,0 -2.58447,2.94018 -0.9741,5.0374 1.61037,2.09722 5.13063,6.32902 5.33662,6.46007 0.20598,0.13107 2.50926,3.80076 7.30292,-0.2439 4.79364,-4.0446 8.87594,-7.41505 8.87594,-7.41505 l 3.87625,-3.23908 c 0,0 2.58403,-2.69626 -1.10484,-6.94687 -3.68886,-4.25062 -3.61374,-4.21318 -3.61374,-4.21318 0,0 -0.8058,-0.8804 -1.57354,-1.14257 -0.2879,-0.0983 -0.46509,-0.19177 -0.60978,-0.17981 z m -295.848098,27.83808 c -1.792968,0 -3.146671,0.56274 -4.060735,1.68775 -0.914038,1.12501 -1.370976,2.79466 -1.370976,5.00951 0,2.08595 0.456938,3.66491 1.370976,4.73718 0.914064,1.07228 2.267767,1.6087 4.060735,1.6087 0.726561,0 1.391195,-0.0527 1.994709,-0.15815 0.609375,-0.10546 1.186757,-0.24349 1.73168,-0.41341 l -0.412896,-1.35339 c -0.533204,0.16406 -1.069626,0.29622 -1.608688,0.39584 -0.539062,0.0996 -1.107149,0.14933 -1.704805,0.14933 -0.650391,0 -1.210218,-0.11168 -1.678967,-0.33433 -0.468751,-0.22267 -0.855448,-0.55086 -1.160137,-0.98443 -0.304686,-0.43948 -0.530476,-0.9783 -0.67696,-1.61698 -0.146484,-0.63865 -0.219625,-1.37403 -0.219625,-2.20607 0,-0.80859 0.07314,-1.52931 0.219625,-2.16212 0.146484,-0.63868 0.372274,-1.1775 0.67696,-1.61697 0.304689,-0.4453 0.691386,-0.78227 1.160137,-1.01079 0.468749,-0.23437 1.028576,-0.35192 1.678967,-0.35192 0.275391,0 0.538697,0.0116 0.790649,0.0352 0.251955,0.0233 0.495297,0.0591 0.729673,0.10594 0.24021,0.0466 0.477724,0.10538 0.7121,0.17568 0.234375,0.0703 0.471349,0.14931 0.711583,0.2372 l 0.457338,-1.30069 c -0.503907,-0.18751 -1.028626,-0.34015 -1.573549,-0.45733 -0.539062,-0.11719 -1.148106,-0.17571 -1.827794,-0.17571 z m 241.874648,0.0527 c -0.28126,0 -0.52116,0.0941 -0.72037,0.28165 -0.19922,0.19921 -0.29921,0.4391 -0.29921,0.72036 0,0.28712 0.1,0.52461 0.29921,0.7121 0.19921,0.19923 0.43911,0.29868 0.72037,0.29868 0.26953,0 0.50409,-0.0995 0.70331,-0.29868 0.19336,-0.19336 0.28991,-0.43085 0.28991,-0.7121 0,-0.27538 -0.0966,-0.51528 -0.28991,-0.72036 -0.19922,-0.18751 -0.43378,-0.28165 -0.70331,-0.28165 z m 44.15802,0 c -0.28125,0 -0.52166,0.0941 -0.72088,0.28165 -0.19922,0.19921 -0.29869,0.4391 -0.29869,0.72036 0,0.28712 0.0995,0.52461 0.29869,0.7121 0.19922,0.19923 0.43963,0.29868 0.72088,0.29868 0.26953,0 0.5041,-0.0995 0.70332,-0.29868 0.19336,-0.19336 0.28991,-0.43085 0.28991,-0.7121 0,-0.27538 -0.0966,-0.51528 -0.28991,-0.72036 -0.19922,-0.18751 -0.43379,-0.28165 -0.70332,-0.28165 z m 3.95532,0.0265 v 12.58631 c 1.25976,0.18751 2.28184,0.28112 3.06699,0.28112 1.43555,0 2.51958,-0.4101 3.252,-1.23039 0.76758,-0.87307 1.15135,-2.11558 1.15135,-3.72692 0,-1.32422 -0.25453,-2.40533 -0.76429,-3.24321 -0.56836,-0.90234 -1.38908,-1.3534 -2.46135,-1.3534 -0.61524,0 -1.13944,0.1936 -1.57303,0.58031 -0.375,0.31642 -0.70026,0.77917 -0.97565,1.38856 l -0.18449,-0.0175 v -5.26481 z m -226.573254,0.0175 v 12.63904 h 1.652095 v -12.63904 z m 32.009413,0 v 10.82829 c 0,0.30469 0.02342,0.61531 0.07028,0.93173 0.05273,0.31641 0.138094,0.66508 0.25528,1.04592 0.246094,-0.041 0.491847,-0.0908 0.737942,-0.14933 0.246091,-0.0527 0.49236,-0.11176 0.738454,-0.17621 -0.05859,-0.24024 -0.108328,-0.45966 -0.149344,-0.65889 -0.03516,-0.19921 -0.06149,-0.42207 -0.07906,-0.66818 -0.01757,-0.24609 -0.0322,-0.52988 -0.04393,-0.85214 -0.01172,-0.32811 -0.01757,-0.7329 -0.01757,-1.21336 v -9.08783 z m 38.774378,0 v 12.63904 h 1.652095 v -10.47689 l 6.723621,10.56474 h 1.933733 v -12.72689 h -1.652613 v 10.56474 l -6.723621,-10.56474 z m 57.005823,0 v 10.82829 c 0,0.30469 0.0234,0.61531 0.0703,0.93173 0.0527,0.31641 0.13757,0.66508 0.25476,1.04592 0.24609,-0.041 0.49236,-0.0908 0.73845,-0.14933 0.2461,-0.0527 0.49185,-0.11176 0.73794,-0.17621 -0.0586,-0.24024 -0.10832,-0.45966 -0.14934,-0.65889 -0.0352,-0.19921 -0.0615,-0.42207 -0.0791,-0.66818 -0.0176,-0.24609 -0.0322,-0.52988 -0.0439,-0.85214 -0.0117,-0.32811 -0.0176,-0.7329 -0.0176,-1.21336 v -9.08783 z m 13.28188,0 v 12.63904 h 1.63453 v -5.57228 c 0.28125,0.0293 0.58018,0.0556 0.89658,0.0791 0.32227,0.0233 0.65046,0.0351 0.98444,0.0351 0.61523,0 1.19795,-0.0497 1.74873,-0.14936 0.55664,-0.0996 1.04333,-0.28442 1.45934,-0.55396 0.42188,-0.26953 0.75591,-0.63576 1.00201,-1.09865 0.24609,-0.46289 0.36897,-1.06024 0.36897,-1.79266 0,-0.65624 -0.10825,-1.21314 -0.32505,-1.67018 -0.21094,-0.45702 -0.50401,-0.82616 -0.87901,-1.10741 -0.36914,-0.28713 -0.80558,-0.49242 -1.30948,-0.61548 -0.50391,-0.1289 -1.0462,-0.19328 -1.62626,-0.19328 z m 71.73774,0 v 12.63904 h 6.82904 v -1.35392 h -5.17643 v -11.28512 z m -226.012046,0.0967 v 10.82828 c 0,0.30467 0.02341,0.61532 0.07028,0.9317 0.05273,0.31642 0.137577,0.66509 0.254765,1.04595 0.246094,-0.041 0.492362,-0.0908 0.738456,-0.14935 0.246094,-0.0527 0.491846,-0.11126 0.737939,-0.17571 -0.05859,-0.24022 -0.108329,-0.46017 -0.149344,-0.65937 -0.03516,-0.19923 -0.06149,-0.42209 -0.07906,-0.66818 -0.01758,-0.24609 -0.03221,-0.52988 -0.04392,-0.85214 -0.01172,-0.32814 -0.01757,-0.7324 -0.01757,-1.21285 v -9.08833 z m 155.908836,1.22163 h 2.32027 c 0.36912,0 0.7061,0.0356 1.01079,0.10594 0.31055,0.0701 0.57437,0.19317 0.79116,0.36896 0.22266,0.17579 0.39527,0.41034 0.51832,0.70332 0.12305,0.2871 0.185,0.65039 0.185,1.08984 0,0.48048 -0.0736,0.87011 -0.22014,1.16893 -0.14648,0.29882 -0.35129,0.52996 -0.61495,0.694 -0.26367,0.16407 -0.58308,0.27525 -0.95808,0.33385 -0.36914,0.0527 -0.77632,0.0796 -1.22163,0.0796 -0.31055,0 -0.62118,-0.009 -0.93173,-0.0264 -0.30469,-0.0236 -0.59776,-0.0532 -0.87901,-0.0884 z m -126.8945866,0.0883 v 2.09135 h -1.318266 v 1.27445 h 1.318266 v 4.82502 c 0,0.66212 0.02926,1.18046 0.08785,1.55546 0.05859,0.37502 0.178544,0.69733 0.360185,0.96686 0.175781,0.25781 0.416198,0.44265 0.720886,0.55399 0.310547,0.11718 0.720651,0.17568 1.230415,0.17568 0.703125,0 1.40045601,-0.11703 2.09186201,-0.35139 -0.134765,-0.42773 -0.284487,-0.82079 -0.44855,-1.17822 -0.205079,0.0644 -0.43035,0.12348 -0.676445,0.17621 -0.24023301,0.0527 -0.48942901,0.0791 -0.74724101,0.0791 -0.462891,0 -0.770599,-0.10583 -0.922941,-0.31676 -0.08203,-0.10549 -0.134694,-0.24884 -0.158131,-0.43048 -0.01757,-0.18748 -0.02635,-0.45717 -0.02635,-0.80872 v -5.24671 h 3.07629701 v -1.27487 H -2.6271366 v -2.09135 z m 39.6647606,0 v 2.09135 h -1.318265 v 1.27445 h 1.318265 v 4.82502 c 0,0.66212 0.02926,1.18046 0.08785,1.55546 0.05857,0.37502 0.179059,0.69733 0.360701,0.96686 0.175781,0.25781 0.415682,0.44265 0.720368,0.55399 0.310547,0.11718 0.720651,0.17568 1.230416,0.17568 0.703125,0 1.400455,-0.11703 2.091862,-0.35139 -0.134766,-0.42773 -0.283972,-0.82079 -0.448035,-1.17822 -0.205076,0.0644 -0.430866,0.12348 -0.67696,0.17621 -0.240234,0.0527 -0.488913,0.0791 -0.746726,0.0791 -0.462889,0 -0.770596,-0.10583 -0.922941,-0.31676 -0.08203,-0.10549 -0.134691,-0.24884 -0.158128,-0.43048 -0.01757,-0.18748 -0.02635,-0.45717 -0.02635,-0.80872 v -5.24671 h 3.075781 v -1.27487 h -3.075781 v -2.09135 z m 49.329801,0 v 2.09135 h -1.31826 v 1.27445 h 1.31826 v 4.82502 c 0,0.66212 0.0293,1.18046 0.0879,1.55546 0.0586,0.37502 0.17907,0.69733 0.36071,0.96686 0.17578,0.25781 0.41568,0.44265 0.72037,0.55399 0.31054,0.11718 0.72065,0.17568 1.23041,0.17568 0.70313,0 1.40046,-0.11703 2.09186,-0.35139 -0.13476,-0.42773 -0.28397,-0.82079 -0.44803,-1.17822 -0.20508,0.0644 -0.43087,0.12348 -0.67696,0.17621 -0.24024,0.0527 -0.48943,0.0791 -0.74724,0.0791 -0.4629,0 -0.77008,-0.10583 -0.92243,-0.31676 -0.082,-0.10549 -0.13469,-0.24884 -0.15813,-0.43048 -0.0176,-0.18748 -0.0269,-0.45717 -0.0269,-0.80872 v -5.24671 h 3.0763 v -1.27487 h -3.0763 v -2.09135 z m 149.223975,0 v 2.09135 h -1.31827 v 1.27445 h 1.31827 v 4.82502 c 0,0.66212 0.0293,1.18046 0.0879,1.55546 0.0586,0.37502 0.17906,0.69733 0.3607,0.96686 0.17578,0.25781 0.41564,0.44265 0.72038,0.55399 0.31054,0.11718 0.72064,0.17568 1.23042,0.17568 0.7031,0 1.40044,-0.11703 2.09185,-0.35139 -0.13476,-0.42773 -0.28398,-0.82079 -0.44805,-1.17822 -0.20508,0.0644 -0.43085,0.12348 -0.67694,0.17621 -0.24024,0.0527 -0.48945,0.0791 -0.74726,0.0791 -0.46289,0 -0.77007,-0.10583 -0.92242,-0.31676 -0.082,-0.10549 -0.1352,-0.24884 -0.15864,-0.43048 -0.0175,-0.18748 -0.0265,-0.45717 -0.0265,-0.80872 v -5.24671 h 3.07629 v -1.27487 h -3.07629 v -2.09135 z m -290.849432,0.0967 v 2.09185 h -1.318266 v 1.27433 h 1.318266 v 4.82505 c 0,0.6621 0.02977,1.18044 0.08836,1.55546 0.0586,0.37499 0.178546,0.69734 0.360186,0.96687 0.175781,0.25781 0.415682,0.44262 0.720369,0.55396 0.310547,0.11718 0.721168,0.17571 1.230933,0.17571 0.703125,0 1.399939,-0.11703 2.091345,-0.3514 -0.134765,-0.42775 -0.283972,-0.82029 -0.448034,-1.17771 -0.205078,0.0644 -0.430868,0.12295 -0.676962,0.17568 -0.240234,0.0528 -0.488912,0.0791 -0.746724,0.0791 -0.462891,0 -0.770597,-0.10584 -0.922941,-0.31679 -0.08203,-0.10546 -0.134693,-0.24881 -0.15813,-0.43045 -0.01758,-0.18751 -0.02635,-0.45717 -0.02635,-0.80875 v -5.24672 h 3.076298 v -1.27433 h -3.076298 v -2.09185 z m 46.267459,1.79265 c -0.580078,0 -1.130611,0.1936 -1.652095,0.58032 -0.47461,0.35157 -0.873011,0.82311 -1.195276,1.41491 h -0.185002 c -0.03515,-0.46876 -0.06441,-0.78232 -0.08785,-0.94052 -0.04687,-0.32813 -0.125866,-0.66802 -0.237195,-1.01957 l -1.458825,0.32554 c 0.128906,0.51565 0.204972,0.95208 0.228409,1.30951 0.04102,0.5742 0.0615,1.2569 0.0615,2.04792 v 5.62499 h 1.511536 v -5.65134 c 0.392578,-0.66796 0.761723,-1.17514 1.107426,-1.52085 0.515625,-0.51562 1.04327,-0.77306 1.582332,-0.77306 0.761719,0 1.2683684,0.27792 1.5203214,0.83458 0.169922,0.37499 0.254765,0.99917 0.254765,1.87221 v 5.23846 h 1.512052 v -4.81676 c 0,-0.99611 -0.04973,-1.74609 -0.149345,-2.24999 -0.152343,-0.7383 -0.424943,-1.2859 -0.817521,-1.64333 -0.457031,-0.42185 -1.12218,-0.63302 -1.9952274,-0.63302 z m 16.5059704,0 c -0.509767,0 -0.963755,0.0673 -1.362191,0.20204 -0.398439,0.13478 -0.747104,0.31962 -1.045932,0.55398 -0.298829,0.23437 -0.553874,0.51282 -0.76481,0.83508 -0.205079,0.32229 -0.37184,0.67093 -0.500745,1.04595 -0.128905,0.36912 -0.223044,0.75875 -0.281636,1.16891 -0.0586,0.41015 -0.08785,0.82026 -0.08785,1.23041 0,0.66797 0.08484,1.27995 0.254765,1.83658 0.175781,0.55079 0.433753,1.02577 0.773594,1.4242 0.345705,0.39844 0.776287,0.70909 1.291913,0.93173 0.515625,0.2168 1.119335,0.32504 1.810742,0.32504 0.45117,0 0.960744,-0.0556 1.529104,-0.1669 0.57422,-0.11133 1.186706,-0.29617 1.837097,-0.55398 l -0.439248,-1.18647 c -0.19336,0.0703 -0.401595,0.14343 -0.624253,0.2196 -0.216797,0.0762 -0.44551,0.1464 -0.685747,0.21085 -0.240207,0.0586 -0.48891,0.10885 -0.746723,0.14986 -0.251952,0.0352 -0.506999,0.0527 -0.764812,0.0527 -0.462889,0 -0.864217,-0.0678 -1.204061,-0.20256 -0.333983,-0.13475 -0.612433,-0.33078 -0.835091,-0.58859 -0.216797,-0.26369 -0.377706,-0.58309 -0.483174,-0.95809 -0.105468,-0.38086 -0.158128,-0.81729 -0.158128,-1.30947 h 6.433198 v -0.48318 c 0,-1.52345 -0.331113,-2.69283 -0.993222,-3.50727 -0.662109,-0.82031 -1.64615,-1.23042 -2.95279,-1.23042 z m 13.8601346,0 c -0.509765,0 -0.963753,0.0673 -1.362192,0.20204 -0.398436,0.13478 -0.747101,0.31962 -1.045929,0.55398 -0.298829,0.23437 -0.553874,0.51282 -0.764813,0.83508 -0.205076,0.32229 -0.371837,0.67093 -0.500742,1.04595 -0.128908,0.36912 -0.222528,0.75875 -0.28112,1.16891 -0.05859,0.41015 -0.08785,0.82026 -0.08785,1.23041 0,0.66797 0.08487,1.27995 0.254764,1.83658 0.175784,0.55079 0.433753,1.02577 0.773597,1.4242 0.345704,0.39844 0.776287,0.70909 1.291913,0.93173 0.515622,0.2168 1.118817,0.32504 1.810223,0.32504 0.451173,0 0.961263,-0.0556 1.529623,-0.1669 0.574219,-0.11133 1.18619,-0.29617 1.836581,-0.55398 l -0.439251,-1.18647 c -0.193357,0.0703 -0.401595,0.14343 -0.62425,0.2196 -0.216797,0.0762 -0.444994,0.1464 -0.685231,0.21085 -0.240234,0.0586 -0.489429,0.10885 -0.747241,0.14986 -0.251926,0.0352 -0.506998,0.0527 -0.76481,0.0527 -0.462891,0 -0.864217,-0.0678 -1.204061,-0.20256 -0.333983,-0.13475 -0.611918,-0.33078 -0.834575,-0.58859 -0.216797,-0.26369 -0.378222,-0.58309 -0.48369,-0.95809 -0.105471,-0.38086 -0.158131,-0.81729 -0.158131,-1.30947 h 6.433717 v -0.48318 c 0,-1.52345 -0.331113,-2.69283 -0.993222,-3.50727 -0.662109,-0.82031 -1.646666,-1.23042 -2.953308,-1.23042 z m 10.124963,0 c -0.703125,0 -1.33265,0.10875 -1.889291,0.32555 -0.550781,0.2168 -1.019914,0.5357 -1.406631,0.95758 -0.38086,0.416 -0.673423,0.93194 -0.878499,1.54718 -0.19922,0.61523 -0.299207,1.32135 -0.299207,2.11822 0,0.73242 0.08243,1.38536 0.246497,1.95956 0.164063,0.56838 0.412739,1.04921 0.746723,1.44179 0.339844,0.39257 0.767501,0.69149 1.283126,0.89657 0.515625,0.20508 1.125188,0.30747 1.828313,0.30747 0.462891,0 0.951984,-0.0497 1.467609,-0.14933 0.521486,-0.0996 1.011098,-0.22886 1.468128,-0.38706 l -0.378272,-1.23041 c -0.457031,0.13477 -0.89054,0.24939 -1.300694,0.34313 -0.404297,0.0879 -0.78222,0.13177 -1.133782,0.13177 -0.539062,0 -0.984274,-0.0795 -1.335836,-0.23771 -0.345702,-0.15819 -0.621226,-0.38639 -0.826305,-0.68524 -0.19922,-0.3044 -0.339648,-0.6709 -0.421679,-1.09863 -0.07617,-0.4336 -0.114205,-0.92268 -0.114205,-1.46762 0,-1.16602 0.269155,-2.03647 0.808217,-2.61069 0.539065,-0.58008 1.306608,-0.87022 2.302703,-0.87022 0.28711,0 0.559708,0.0293 0.817521,0.0878 0.263673,0.0586 0.547973,0.13838 0.852662,0.23771 l 0.377753,-1.2304 c -0.38086,-0.11133 -0.755854,-0.20254 -1.124995,-0.27286 -0.369141,-0.0762 -0.732433,-0.1142 -1.089856,-0.1142 z m 37.579101,0 c -0.509764,0 -0.964271,0.0673 -1.362707,0.20204 -0.398439,0.13478 -0.747104,0.31962 -1.045932,0.55398 -0.298829,0.23437 -0.553355,0.51282 -0.764294,0.83508 -0.205079,0.32229 -0.372354,0.67093 -0.501261,1.04595 -0.128905,0.36912 -0.222525,0.75875 -0.28112,1.16891 -0.05859,0.41015 -0.08785,0.82026 -0.08785,1.23041 0,0.66797 0.08484,1.27995 0.254765,1.83658 0.175781,0.55079 0.433753,1.02577 0.773597,1.4242 0.345702,0.39844 0.776285,0.70909 1.29191,0.93173 0.515625,0.2168 1.119336,0.32504 1.810742,0.32504 0.451173,0 0.960747,-0.0556 1.529106,-0.1669 0.574218,-0.11133 1.186703,-0.29617 1.837093,-0.55398 l -0.43976,-1.18647 c -0.19336,0.0703 -0.401081,0.14343 -0.623736,0.2196 -0.216797,0.0762 -0.445513,0.1464 -0.685747,0.21085 -0.240234,0.0586 -0.488913,0.10885 -0.746726,0.14986 -0.251952,0.0352 -0.506997,0.0527 -0.764809,0.0527 -0.462892,0 -0.864217,-0.0678 -1.204061,-0.20256 -0.333986,-0.13475 -0.612436,-0.33078 -0.835091,-0.58859 -0.216797,-0.26369 -0.377706,-0.58309 -0.483177,-0.95809 -0.10545,-0.38086 -0.158644,-0.81729 -0.158644,-1.30947 h 6.433711 v -0.48318 c 0,-1.52345 -0.33111,-2.69283 -0.99322,-3.50727 -0.662108,-0.82031 -1.646149,-1.23042 -2.952789,-1.23042 z m 28.660779,0 c -0.35156,0 -0.66512,0.0497 -0.94051,0.14934 -0.27539,0.0938 -0.52699,0.24055 -0.75551,0.43976 -0.25195,0.20508 -0.48359,0.45376 -0.69453,0.74673 -0.20508,0.29298 -0.39817,0.62117 -0.57981,0.98444 h -0.0791 c -0.0176,-0.23437 -0.0351,-0.43916 -0.0527,-0.61495 -0.0117,-0.18163 -0.0327,-0.35769 -0.062,-0.52763 -0.0293,-0.17576 -0.0702,-0.35441 -0.12298,-0.53586 -0.0469,-0.18166 -0.11124,-0.38989 -0.19327,-0.62426 -0.2461,0.0469 -0.48893,0.0966 -0.72916,0.14933 -0.23437,0.0527 -0.47479,0.11176 -0.72089,0.17622 0.0879,0.30469 0.15811,0.58264 0.21085,0.83457 0.0527,0.24612 0.0908,0.49824 0.1142,0.75605 0.0293,0.25193 0.0469,0.51869 0.0527,0.79994 0.0117,0.28125 0.0176,0.6065 0.0176,0.97565 v 5.63377 h 1.51205 v -5.24724 c 0.18164,-0.37499 0.3484,-0.70609 0.50075,-0.99322 0.15232,-0.29297 0.3074,-0.54216 0.4656,-0.74724 0.16406,-0.21092 0.34012,-0.37769 0.52762,-0.50075 0.19336,-0.1289 0.41915,-0.21666 0.67696,-0.26355 0.21678,-0.0351 0.445,-0.0412 0.68523,-0.0175 0.24609,0.0236 0.51577,0.0615 0.80874,0.11422 0.0527,-0.26368 0.0937,-0.52456 0.12298,-0.7824 0.0352,-0.25781 0.0644,-0.53332 0.0879,-0.82629 -0.14062,-0.0293 -0.28984,-0.0498 -0.44803,-0.0615 -0.15234,-0.0116 -0.28744,-0.0175 -0.40463,-0.0175 z m 5.950545,0 c -1.07812,0 -2.10949,0.19654 -3.093865,0.5891 l 0.38654,1.23042 c 0.966795,-0.35155 1.851885,-0.52761 2.654615,-0.52761 0.55079,0 0.95504,0.0941 1.21285,0.28162 0.25781,0.18751 0.38654,0.49179 0.38654,0.91366 v 1.33633 c -0.31641,-0.0116 -0.56852,-0.0175 -0.75603,-0.0175 -1.4121,0 -2.51076,0.21357 -3.295925,0.64133 -0.49805,0.26953 -0.88474,0.60063 -1.16013,0.99322 -0.26953,0.39256 -0.40411,0.8963 -0.40411,1.51153 0,0.82616 0.24919,1.46791 0.74724,1.92495 0.49804,0.45099 1.156825,0.67694 1.977145,0.67694 1.125,0 2.05104,-0.45691 2.77761,-1.37097 l 0.1757,0.0175 c 0.0352,0.48633 0.12,0.92569 0.25476,1.31826 l 1.44177,-0.31626 c -0.0762,-0.27538 -0.13812,-0.56555 -0.185,-0.87021 -0.0527,-0.32229 -0.082,-0.63291 -0.0878,-0.93173 -0.0117,-0.50393 -0.0176,-0.99595 -0.0176,-1.47641 v -3.59513 c 0,-0.87304 -0.28378,-1.49087 -0.85214,-1.85414 -0.49805,-0.31642 -1.21878,-0.47491 -2.16214,-0.47491 z m 32.74943,0 c -1.07813,0 -2.1095,0.19654 -3.09387,0.5891 l 0.38706,1.23042 c 0.96679,-0.35155 1.85136,-0.52761 2.6541,-0.52761 0.55078,0 0.95503,0.0941 1.21284,0.28162 0.25781,0.18751 0.38706,0.49179 0.38706,0.91366 v 1.33633 c -0.31641,-0.0116 -0.56853,-0.0175 -0.75603,-0.0175 -1.41211,0 -2.51076,0.21357 -3.29592,0.64133 -0.49805,0.26953 -0.88475,0.60063 -1.16014,0.99322 -0.26953,0.39256 -0.40411,0.8963 -0.40411,1.51153 0,0.82616 0.24868,1.46791 0.74673,1.92495 0.49805,0.45101 1.15736,0.67694 1.97765,0.67694 1.125,0 2.05054,-0.45691 2.7771,-1.37097 l 0.17621,0.0175 c 0.0352,0.48633 0.12002,0.92569 0.25477,1.31826 l 1.44125,-0.31626 c -0.0762,-0.27538 -0.13761,-0.56555 -0.18448,-0.87021 -0.0527,-0.32229 -0.082,-0.63291 -0.0879,-0.93173 -0.0117,-0.50393 -0.0176,-0.99595 -0.0176,-1.47641 v -3.59513 c 0,-0.87304 -0.2843,-1.49087 -0.85266,-1.85414 -0.49805,-0.31642 -1.21878,-0.47491 -2.16214,-0.47491 z m 8.62221,0 c -0.42774,0 -0.83784,0.0497 -1.23042,0.14934 -0.38672,0.0938 -0.72953,0.24055 -1.02836,0.43976 -0.29297,0.19923 -0.52753,0.45376 -0.70331,0.7643 -0.17579,0.31054 -0.26355,0.67969 -0.26355,1.10744 0,0.45686 0.079,0.84079 0.23719,1.15134 0.16406,0.30469 0.38108,0.56266 0.65061,0.77358 0.27539,0.20508 0.5948,0.37238 0.95808,0.50128 0.36914,0.12891 0.75876,0.243 1.16892,0.34261 0.26953,0.0645 0.52406,0.13468 0.76429,0.21085 0.2461,0.0703 0.4602,0.16394 0.64182,0.28112 0.18165,0.11131 0.325,0.25225 0.43047,0.42219 0.11133,0.16992 0.16692,0.3864 0.16692,0.65009 0,0.28125 -0.0585,0.52167 -0.1757,0.72088 -0.11133,0.19923 -0.26347,0.36306 -0.45683,0.49197 -0.1875,0.12303 -0.40451,0.21426 -0.6506,0.27283 -0.24023,0.0586 -0.48891,0.0879 -0.74673,0.0879 -0.20507,0 -0.41916,-0.0145 -0.64182,-0.0439 -0.22265,-0.0352 -0.44844,-0.0791 -0.67696,-0.13179 -0.22851,-0.0527 -0.45086,-0.11469 -0.66766,-0.18499 -0.21679,-0.0762 -0.4221,-0.15518 -0.61546,-0.2372 -0.0996,0.17579 -0.19617,0.35475 -0.28991,0.53639 -0.0879,0.17579 -0.17273,0.35718 -0.25476,0.54467 0.22851,0.10549 0.47134,0.20203 0.72915,0.2899 0.25781,0.0879 0.51871,0.16156 0.78238,0.22016 0.26952,0.0645 0.53921,0.11126 0.80874,0.14055 0.27539,0.0352 0.54214,0.0527 0.79995,0.0527 0.49219,0 0.95495,-0.0556 1.38855,-0.1669 0.43359,-0.10546 0.81151,-0.26982 1.13378,-0.49246 0.32812,-0.22853 0.58609,-0.51576 0.77359,-0.86146 0.19336,-0.34571 0.28991,-0.75875 0.28991,-1.2392 0,-0.45705 -0.0761,-0.8408 -0.22841,-1.15136 -0.15235,-0.31055 -0.36351,-0.57092 -0.63304,-0.78185 -0.26953,-0.21095 -0.58894,-0.38116 -0.95808,-0.51006 -0.36914,-0.13475 -0.76754,-0.25472 -1.19527,-0.36018 -0.2754,-0.0644 -0.53629,-0.13467 -0.78239,-0.21085 -0.24022,-0.0762 -0.45087,-0.17031 -0.63252,-0.28162 -0.18164,-0.11134 -0.32551,-0.24884 -0.43098,-0.41291 -0.10547,-0.16991 -0.15813,-0.3783 -0.15813,-0.62423 0,-0.24024 0.0468,-0.43918 0.14056,-0.5974 0.0937,-0.16404 0.21714,-0.2957 0.36949,-0.39532 0.1582,-0.0996 0.33666,-0.17033 0.53588,-0.21134 0.20508,-0.0469 0.41624,-0.0703 0.63304,-0.0703 0.19922,0 0.40109,0.0146 0.60616,0.0439 0.21094,0.0233 0.41334,0.0556 0.60668,0.0966 0.19922,0.041 0.38648,0.0913 0.56224,0.14986 0.18165,0.0586 0.346,0.1171 0.49248,0.17571 0.10547,-0.17579 0.20201,-0.35478 0.28991,-0.53642 0.0879,-0.18163 0.17273,-0.36594 0.25476,-0.55345 -0.41602,-0.17577 -0.86708,-0.3138 -1.35341,-0.41341 -0.48046,-0.0996 -0.96078,-0.14934 -1.44125,-0.14934 z m 8.39328,0 c -0.42773,0 -0.83783,0.0497 -1.23041,0.14934 -0.38672,0.0938 -0.72953,0.24055 -1.02836,0.43976 -0.29297,0.19923 -0.52702,0.45376 -0.7028,0.7643 -0.17578,0.31054 -0.26355,0.67969 -0.26355,1.10744 0,0.45686 0.079,0.84079 0.23719,1.15134 0.16407,0.30469 0.38056,0.56266 0.65009,0.77358 0.27539,0.20508 0.5948,0.37238 0.95808,0.50128 0.36915,0.12891 0.75877,0.243 1.16893,0.34261 0.26953,0.0645 0.52457,0.13468 0.76481,0.21085 0.24609,0.0703 0.45966,0.16394 0.6413,0.28112 0.18164,0.11131 0.32552,0.25225 0.43098,0.42219 0.11133,0.16992 0.16692,0.3864 0.16692,0.65009 0,0.28125 -0.0585,0.52167 -0.1757,0.72088 -0.11133,0.19923 -0.26398,0.36306 -0.45734,0.49197 -0.1875,0.12303 -0.40399,0.21426 -0.65009,0.27283 -0.24023,0.0586 -0.48943,0.0879 -0.74724,0.0879 -0.20508,0 -0.41865,-0.0145 -0.6413,-0.0439 -0.22266,-0.0352 -0.44845,-0.0791 -0.67696,-0.13179 -0.22852,-0.0527 -0.45138,-0.11469 -0.66818,-0.18499 -0.2168,-0.0762 -0.42159,-0.15518 -0.61495,-0.2372 -0.0996,0.17579 -0.19615,0.35475 -0.28991,0.53639 -0.0879,0.17579 -0.17325,0.35718 -0.25528,0.54467 0.22852,0.10549 0.47186,0.20203 0.72967,0.2899 0.25782,0.0879 0.51871,0.16156 0.78238,0.22016 0.26954,0.0645 0.53869,0.11126 0.80822,0.14055 0.2754,0.0352 0.54214,0.0527 0.79996,0.0527 0.49218,0 0.95495,-0.0556 1.38854,-0.1669 0.4336,-0.10546 0.81152,-0.26982 1.13378,-0.49246 0.32813,-0.22853 0.5861,-0.51576 0.7736,-0.86146 0.19336,-0.34571 0.2899,-0.75875 0.2899,-1.2392 0,-0.45705 -0.0761,-0.8408 -0.22841,-1.15136 -0.15234,-0.31055 -0.36298,-0.57092 -0.63252,-0.78185 -0.26953,-0.21095 -0.58894,-0.38116 -0.95808,-0.51006 -0.36914,-0.13475 -0.76754,-0.25472 -1.19527,-0.36018 -0.27539,-0.0644 -0.53629,-0.13467 -0.78239,-0.21085 -0.24023,-0.0762 -0.45139,-0.17031 -0.63303,-0.28162 -0.18164,-0.11134 -0.325,-0.24884 -0.43047,-0.41291 -0.10546,-0.16991 -0.15812,-0.3783 -0.15812,-0.62423 0,-0.24024 0.0468,-0.43918 0.14056,-0.5974 0.0937,-0.16404 0.21662,-0.2957 0.36896,-0.39532 0.15821,-0.0996 0.33719,-0.17033 0.53641,-0.21134 0.20507,-0.0469 0.41572,-0.0703 0.63252,-0.0703 0.19921,0 0.4016,0.0146 0.60668,0.0439 0.21093,0.0233 0.4128,0.0556 0.60616,0.0966 0.19922,0.041 0.38698,0.0913 0.56276,0.14986 0.18164,0.0586 0.34547,0.1171 0.49196,0.17571 0.10547,-0.17579 0.20253,-0.35478 0.29042,-0.53642 0.0879,-0.18163 0.17273,-0.36594 0.25476,-0.55345 -0.41601,-0.17577 -0.86707,-0.3138 -1.3534,-0.41341 -0.48047,-0.0996 -0.96131,-0.14934 -1.44178,-0.14934 z m 13.85187,0 c -0.28711,0 -0.58311,0.0233 -0.8878,0.0703 -0.30468,0.041 -0.60656,0.12345 -0.90537,0.24648 -0.29883,0.12891 -0.5802,0.30446 -0.84388,0.52711 -0.26367,0.2168 -0.49772,0.50109 -0.7028,0.85267 -0.20507,0.35742 -0.3665,0.78801 -0.48369,1.29191 -0.11718,0.49805 -0.1757,1.09296 -0.1757,1.78437 0,0.69141 0.0585,1.28876 0.1757,1.79266 0.11719,0.49805 0.27862,0.92279 0.48369,1.27434 0.20508,0.35743 0.43913,0.64759 0.7028,0.87024 0.26368,0.22265 0.54505,0.39579 0.84388,0.51882 0.29881,0.12891 0.60069,0.21376 0.90537,0.25477 0.31055,0.0469 0.60655,0.0703 0.8878,0.0703 0.28711,0 0.58604,-0.0233 0.89659,-0.0703 0.31055,-0.041 0.61481,-0.12586 0.91364,-0.25477 0.29883,-0.12303 0.5802,-0.29617 0.84387,-0.51882 0.26954,-0.22265 0.50703,-0.51281 0.71211,-0.87024 0.20506,-0.35155 0.36598,-0.77629 0.48317,-1.27434 0.11719,-0.5039 0.1757,-1.10125 0.1757,-1.79266 0,-0.69141 -0.0585,-1.28632 -0.1757,-1.78437 -0.11719,-0.5039 -0.27811,-0.93449 -0.48317,-1.29191 -0.20508,-0.35158 -0.44257,-0.63587 -0.71211,-0.85267 -0.26367,-0.22265 -0.54504,-0.3982 -0.84387,-0.52711 -0.29883,-0.12303 -0.60309,-0.20547 -0.91364,-0.24648 -0.31055,-0.0469 -0.60948,-0.0703 -0.89659,-0.0703 z m 10.90735,0 c -0.58008,0 -1.13113,0.1936 -1.65262,0.58032 -0.4746,0.35157 -0.873,0.82311 -1.19527,1.41491 h -0.18449 c -0.0351,-0.46876 -0.0644,-0.78232 -0.0879,-0.94052 -0.0469,-0.32813 -0.12588,-0.66802 -0.23719,-1.01957 l -1.45934,0.32554 c 0.1289,0.51565 0.20497,0.95208 0.22841,1.30951 0.041,0.5742 0.062,1.2569 0.062,2.04792 v 5.62499 h 1.51154 v -5.65134 c 0.39257,-0.66796 0.76172,-1.17514 1.10742,-1.52085 0.51562,-0.51562 1.04275,-0.77306 1.58182,-0.77306 0.76172,0 1.26888,0.27792 1.52083,0.83458 0.16992,0.37499 0.25477,0.99917 0.25477,1.87221 v 5.23846 h 1.51153 v -4.81676 c 0,-0.99611 -0.0497,-1.74609 -0.14934,-2.24999 -0.15234,-0.7383 -0.42494,-1.2859 -0.81752,-1.64333 -0.45703,-0.42185 -1.12167,-0.63302 -1.99471,-0.63302 z m 42.94466,0 c -0.50976,0 -0.96375,0.0673 -1.36219,0.20204 -0.39844,0.13478 -0.7471,0.31962 -1.04593,0.55398 -0.29883,0.23437 -0.55387,0.51282 -0.76481,0.83508 -0.20508,0.32229 -0.37184,0.67093 -0.50075,1.04595 -0.1289,0.36912 -0.22252,0.75875 -0.28111,1.16891 -0.0586,0.41015 -0.0879,0.82026 -0.0879,1.23041 0,0.66797 0.0848,1.27995 0.25476,1.83658 0.17578,0.55079 0.43323,1.02577 0.77308,1.4242 0.3457,0.39844 0.7768,0.70909 1.29243,0.93173 0.51562,0.2168 1.11882,0.32504 1.81022,0.32504 0.45117,0 0.96127,-0.0556 1.52963,-0.1669 0.57421,-0.11133 1.18618,-0.29617 1.83657,-0.55398 l -0.43924,-1.18647 c -0.19336,0.0703 -0.4016,0.14343 -0.62426,0.2196 -0.21679,0.0762 -0.44499,0.1464 -0.68522,0.21085 -0.24024,0.0586 -0.48943,0.10885 -0.74725,0.14986 -0.25195,0.0352 -0.507,0.0527 -0.76481,0.0527 -0.46289,0 -0.86422,-0.0678 -1.20406,-0.20256 -0.33398,-0.13475 -0.61192,-0.33078 -0.83457,-0.58859 -0.2168,-0.26369 -0.37823,-0.58309 -0.48369,-0.95809 -0.10547,-0.38086 -0.15814,-0.81729 -0.15814,-1.30947 h 6.43372 v -0.48318 c 0,-1.52345 -0.33111,-2.69283 -0.99322,-3.50727 -0.66211,-0.82031 -1.64668,-1.23042 -2.95331,-1.23042 z m 10.91613,0 c -0.35156,0 -0.66512,0.0497 -0.94051,0.14934 -0.27539,0.0938 -0.52751,0.24055 -0.75603,0.43976 -0.25195,0.20508 -0.48307,0.45376 -0.69401,0.74673 -0.20508,0.29298 -0.39869,0.62117 -0.58033,0.98444 h -0.0791 c -0.0176,-0.23437 -0.0351,-0.43916 -0.0527,-0.61495 -0.0117,-0.18163 -0.0322,-0.35769 -0.0615,-0.52763 -0.0293,-0.17576 -0.0702,-0.35436 -0.12299,-0.53586 -0.0469,-0.18166 -0.11123,-0.38989 -0.19327,-0.62426 -0.24609,0.0469 -0.48943,0.0966 -0.72967,0.14933 -0.23437,0.0527 -0.47427,0.11176 -0.72037,0.17622 0.0879,0.30469 0.15811,0.58264 0.21084,0.83457 0.0527,0.24612 0.0908,0.49824 0.11421,0.75605 0.0293,0.25193 0.0468,0.51869 0.0527,0.79994 0.0117,0.28125 0.0176,0.6065 0.0176,0.97565 v 5.63377 h 1.51153 v -5.24724 c 0.18164,-0.37499 0.34892,-0.70609 0.50126,-0.99322 0.15235,-0.29297 0.30741,-0.54216 0.46561,-0.74724 0.16406,-0.21092 0.34012,-0.37769 0.52762,-0.50075 0.19336,-0.1289 0.41863,-0.21666 0.67644,-0.26355 0.2168,-0.0351 0.44551,-0.0412 0.68575,-0.0175 0.24609,0.0236 0.51577,0.0615 0.80873,0.11422 0.0527,-0.26368 0.0937,-0.52456 0.12299,-0.7824 0.0352,-0.25781 0.0644,-0.53332 0.0879,-0.82629 -0.14062,-0.0293 -0.29035,-0.0498 -0.44855,-0.0615 -0.15234,-0.0116 -0.28692,-0.0175 -0.40411,-0.0175 z m -304.604146,0.0966 c -0.28711,0 -0.583113,0.0233 -0.887802,0.0703 -0.304686,0.041 -0.606541,0.12346 -0.90537,0.24652 -0.298828,0.1289 -0.579688,0.30443 -0.843359,0.5271 -0.263673,0.21677 -0.498263,0.50109 -0.703315,0.85265 -0.205079,0.35742 -0.365988,0.788 -0.483177,1.2919 -0.117187,0.49805 -0.176215,1.093 -0.176215,1.78441 0,0.6914 0.05903,1.28873 0.176215,1.79265 0.117189,0.49803 0.278098,0.92276 0.483177,1.27434 0.205052,0.3574 0.439642,0.64757 0.703315,0.87022 0.263671,0.22267 0.544531,0.39579 0.843359,0.51885 0.298829,0.1289 0.600684,0.21373 0.90537,0.25476 0.310547,0.0469 0.606552,0.0703 0.887802,0.0703 0.28711,0 0.586039,-0.0233 0.896585,-0.0703 0.310547,-0.041 0.615328,-0.12586 0.914157,-0.25476 0.298828,-0.12306 0.579689,-0.29618 0.843359,-0.51885 0.269531,-0.22265 0.507024,-0.51282 0.712102,-0.87022 0.205079,-0.35158 0.365988,-0.77631 0.483175,-1.27434 0.117186,-0.50392 0.176217,-1.10125 0.176217,-1.79265 0,-0.69141 -0.05903,-1.28636 -0.176217,-1.78441 -0.117187,-0.5039 -0.278096,-0.93448 -0.483175,-1.2919 -0.205078,-0.35156 -0.442571,-0.63588 -0.712102,-0.85265 -0.26367,-0.22267 -0.544531,-0.3982 -0.843359,-0.5271 -0.298829,-0.12306 -0.60361,-0.20551 -0.914157,-0.24652 -0.310546,-0.0469 -0.609475,-0.0703 -0.896585,-0.0703 z m 10.907344,0 c -0.580078,0 -1.131128,0.1936 -1.652611,0.58034 -0.47461,0.35155 -0.873011,0.82309 -1.195276,1.41488 h -0.184486 c -0.03516,-0.46873 -0.06441,-0.78229 -0.08785,-0.94051 -0.04687,-0.32811 -0.125865,-0.66799 -0.237194,-1.01957 l -1.459343,0.32557 c 0.128907,0.51562 0.205488,0.95205 0.228928,1.30947 0.04102,0.57423 0.06149,1.25693 0.06149,2.04793 v 5.62499 h 1.511536 v -5.65134 c 0.392578,-0.66797 0.761722,-1.17512 1.107426,-1.52083 0.515626,-0.51562 1.042752,-0.77308 1.581814,-0.77308 0.76172,0 1.268886,0.27794 1.520839,0.83457 0.16992,0.375 0.254764,0.9992 0.254764,1.87225 v 5.23843 h 1.511536 v -4.81677 c 0,-0.99607 -0.04974,-1.74609 -0.149344,-2.24999 -0.152345,-0.73826 -0.424426,-1.28587 -0.817005,-1.6433 -0.457033,-0.42188 -1.122179,-0.63304 -1.995228,-0.63304 z m 17.736386,0 c -0.351563,0 -0.665121,0.0497 -0.940512,0.14936 -0.27539,0.0937 -0.52751,0.24053 -0.756026,0.43976 -0.251953,0.20508 -0.483594,0.45426 -0.694531,0.74724 -0.205078,0.29297 -0.398169,0.62063 -0.57981,0.9839 h -0.07906 c -0.01758,-0.23436 -0.03513,-0.43915 -0.05271,-0.61494 -0.01172,-0.18164 -0.0322,-0.35769 -0.06149,-0.52761 -0.0293,-0.17579 -0.07026,-0.35425 -0.12299,-0.53588 -0.04687,-0.18164 -0.111239,-0.38989 -0.19327,-0.62426 -0.246094,0.0469 -0.489437,0.0966 -0.729671,0.14936 -0.234376,0.0527 -0.474793,0.11176 -0.720887,0.17621 0.08789,0.30469 0.158106,0.58261 0.21084,0.83457 0.05273,0.24609 0.09128,0.49821 0.114722,0.75602 0.02929,0.25197 0.04685,0.51869 0.05271,0.79995 0.01172,0.28125 0.01757,0.60653 0.01757,0.97565 v 5.63377 h 1.511535 v -5.24722 c 0.181641,-0.37502 0.348401,-0.70612 0.500745,-0.99322 0.152344,-0.29297 0.307918,-0.54218 0.466122,-0.74726 0.164062,-0.21093 0.339599,-0.37769 0.527099,-0.50072 0.193357,-0.12891 0.419149,-0.2167 0.676961,-0.26355 0.216797,-0.0352 0.444996,-0.0412 0.68523,-0.0175 0.246094,0.0236 0.515767,0.0615 0.808736,0.1142 0.05273,-0.26366 0.09369,-0.52457 0.12299,-0.78238 0.03516,-0.25781 0.06441,-0.53334 0.08785,-0.82632 -0.140625,-0.0293 -0.289832,-0.0498 -0.448035,-0.0615 -0.152344,-0.0116 -0.286924,-0.0175 -0.404109,-0.0175 z m 6.108154,0 c -0.287109,0 -0.583114,0.0233 -0.887801,0.0703 -0.304688,0.041 -0.606026,0.12346 -0.904855,0.24652 -0.298828,0.1289 -0.580204,0.30443 -0.843876,0.5271 -0.263672,0.21677 -0.498238,0.50109 -0.703316,0.85265 -0.205078,0.35742 -0.365987,0.788 -0.483175,1.2919 -0.117187,0.49805 -0.1757,1.093 -0.1757,1.78441 0,0.6914 0.05851,1.28873 0.1757,1.79265 0.117188,0.49803 0.278097,0.92276 0.483175,1.27434 0.205078,0.3574 0.439644,0.64757 0.703316,0.87022 0.263672,0.22267 0.545048,0.39579 0.843876,0.51885 0.298829,0.1289 0.600167,0.21373 0.904855,0.25476 0.310547,0.0469 0.606551,0.0703 0.887801,0.0703 0.28711,0 0.586039,-0.0233 0.896586,-0.0703 0.310547,-0.041 0.615328,-0.12586 0.914156,-0.25476 0.298828,-0.12306 0.579688,-0.29618 0.84336,-0.51885 0.269531,-0.22265 0.507023,-0.51282 0.712101,-0.87022 0.205078,-0.35158 0.366504,-0.77631 0.483691,-1.27434 0.117188,-0.50392 0.1757,-1.10125 0.1757,-1.79265 0,-0.69141 -0.05851,-1.28636 -0.1757,-1.78441 -0.117187,-0.5039 -0.278613,-0.93448 -0.483691,-1.2919 -0.205078,-0.35156 -0.44257,-0.63588 -0.712101,-0.85265 -0.263672,-0.22267 -0.544532,-0.3982 -0.84336,-0.5271 -0.298828,-0.12306 -0.603609,-0.20551 -0.914156,-0.24652 -0.310547,-0.0469 -0.609476,-0.0703 -0.896586,-0.0703 z m 112.937807,0.10541 v 4.82555 c 0,0.9961 0.0497,1.74609 0.14935,2.24999 0.15234,0.73829 0.42494,1.2859 0.81752,1.64333 0.45703,0.42188 1.12218,0.63301 1.99522,0.63301 0.58008,0 1.13062,-0.19359 1.6521,-0.58031 0.47461,-0.35158 0.87301,-0.82312 1.19528,-1.41491 h 0.18448 c 0.0352,0.46876 0.0649,0.77938 0.0884,0.93173 0.0469,0.32814 0.12586,0.66802 0.23719,1.01957 l 1.45883,-0.32554 c -0.12889,-0.51565 -0.20497,-0.95208 -0.22841,-1.3095 -0.041,-0.5742 -0.0615,-1.25106 -0.0615,-2.03036 v -5.64256 h -1.51205 v 5.66065 c -0.39258,0.66797 -0.76172,1.17462 -1.10743,1.52033 -0.51562,0.51562 -1.04275,0.77359 -1.58181,0.77359 -0.76172,0 -1.26837,-0.27845 -1.52032,-0.83511 -0.16992,-0.37499 -0.25528,-0.99917 -0.25528,-1.87222 v -5.24724 z m 84.086865,0 v 9.14106 h 1.51153 v -9.14106 z m 44.15751,0 v 9.14106 h 1.51205 v -9.14106 z m 38.85654,0 v 4.82555 c 0,0.40431 0.009,0.79685 0.0265,1.17771 0.0175,0.38087 0.0585,0.7383 0.12298,1.07228 0.0762,0.37502 0.18494,0.70612 0.32557,0.99322 0.1465,0.28125 0.33081,0.51824 0.55346,0.7116 0.22852,0.18748 0.50125,0.32845 0.8175,0.42219 0.31642,0.0996 0.6885,0.14933 1.11623,0.14933 0.31054,0 0.60362,-0.0527 0.87902,-0.15811 0.28126,-0.0996 0.54163,-0.24056 0.78185,-0.4222 0.24024,-0.18163 0.46019,-0.39229 0.65939,-0.63251 0.19923,-0.24612 0.37476,-0.50699 0.52711,-0.7824 h 0.16692 v 1.98644 c 0,0.3457 -0.0527,0.6505 -0.15814,0.91416 -0.0996,0.26953 -0.24588,0.4948 -0.43924,0.67646 -0.19335,0.18164 -0.42793,0.31673 -0.70331,0.40463 -0.27541,0.0937 -0.58312,0.14055 -0.92295,0.14055 -0.2168,0 -0.44206,-0.0146 -0.67646,-0.0439 -0.22849,-0.0235 -0.45429,-0.0585 -0.67696,-0.10541 -0.21677,-0.041 -0.4245,-0.0885 -0.62373,-0.14107 -0.19336,-0.0528 -0.36063,-0.10247 -0.50125,-0.14936 l -0.24598,0.58034 c -0.082,0.19336 -0.16103,0.3923 -0.2372,0.59737 0.45116,0.15235 0.92564,0.26988 1.42369,0.3519 0.49805,0.0879 0.99298,0.13179 1.48519,0.13179 0.54491,0 1.04915,-0.0673 1.51204,-0.20206 0.46289,-0.12891 0.8613,-0.33129 1.19528,-0.60667 0.33983,-0.2754 0.60367,-0.62407 0.79116,-1.04595 0.19336,-0.42187 0.2899,-0.92265 0.2899,-1.50275 v -9.3431 h -1.51204 v 5.66065 c -0.15235,0.25781 -0.32202,0.52113 -0.50953,0.79066 -0.18164,0.26953 -0.38402,0.51578 -0.60669,0.73845 -0.22265,0.22265 -0.46548,0.40696 -0.72914,0.55346 -0.26369,0.14062 -0.54507,0.21135 -0.84389,0.21135 -0.40428,0 -0.72372,-0.0678 -0.95808,-0.20257 -0.23437,-0.14063 -0.41283,-0.33081 -0.53589,-0.57102 -0.11718,-0.24612 -0.19375,-0.53332 -0.22892,-0.86146 -0.0352,-0.33398 -0.0527,-0.69144 -0.0527,-1.07228 v -5.24724 z m -74.9546,1.03717 c 0.33985,0 0.65925,0.0532 0.95808,0.15864 0.30469,0.10546 0.57092,0.28977 0.79944,0.55346 0.22851,0.26953 0.40749,0.62989 0.5364,1.08106 0.13476,0.45117 0.20205,1.03148 0.20205,1.74045 0,0.70313 -0.0673,1.28291 -0.20205,1.73996 -0.12891,0.45116 -0.30789,0.80862 -0.5364,1.07227 -0.22852,0.26953 -0.49475,0.45731 -0.79944,0.56277 -0.29883,0.0996 -0.61823,0.14933 -0.95808,0.14933 -0.33398,0 -0.65046,-0.0497 -0.94929,-0.14933 -0.29297,-0.10546 -0.55094,-0.29324 -0.7736,-0.56277 -0.22851,-0.26365 -0.4099,-0.62111 -0.54467,-1.07227 -0.13476,-0.45705 -0.20206,-1.03683 -0.20206,-1.73996 0,-0.70897 0.0673,-1.28928 0.20206,-1.74045 0.13477,-0.45117 0.31616,-0.81153 0.54467,-1.08106 0.22266,-0.26369 0.48063,-0.448 0.7736,-0.55346 0.29883,-0.10549 0.61531,-0.15864 0.94929,-0.15864 z m -159.7923126,0.0351 c 0.755859,0 1.335649,0.21993 1.739945,0.6594 0.410155,0.43357 0.638871,1.12506 0.685745,2.07428 h -4.868953 c 0.08203,-0.94922 0.319006,-1.64071 0.711584,-2.07428 0.398439,-0.43947 0.975818,-0.6594 1.731679,-0.6594 z m 13.8601346,0 c 0.755859,0 1.336167,0.21993 1.740463,0.6594 0.410155,0.43357 0.638352,1.12506 0.685229,2.07428 h -4.868953 c 0.08203,-0.94922 0.319522,-1.64071 0.7121,-2.07428 0.398438,-0.43947 0.975302,-0.6594 1.731161,-0.6594 z m 47.704064,0 c 0.755859,0 1.335649,0.21993 1.739945,0.6594 0.410157,0.43357 0.638871,1.12506 0.685747,2.07428 h -4.869471 c 0.08203,-0.94922 0.319525,-1.64071 0.712103,-2.07428 0.398436,-0.43947 0.975817,-0.6594 1.731676,-0.6594 z m 152.080124,0 c 0.75585,0 1.33617,0.21993 1.74046,0.6594 0.41016,0.43357 0.63836,1.12506 0.68523,2.07428 h -4.86895 c 0.082,-0.94922 0.31952,-1.64071 0.7121,-2.07428 0.39844,-0.43947 0.9753,-0.6594 1.73116,-0.6594 z m -293.688016,0.0615 c 0.339844,0 0.659254,0.0532 0.958082,0.15865 0.304687,0.10546 0.571434,0.28977 0.79995,0.55345 0.228515,0.26953 0.406979,0.6299 0.535884,1.08106 0.134765,0.4512 0.202057,1.03148 0.202057,1.74049 0,0.7031 -0.06729,1.28291 -0.202057,1.73992 -0.128905,0.4512 -0.307369,0.80862 -0.535884,1.07231 -0.228516,0.26953 -0.495263,0.45727 -0.79995,0.56274 -0.298828,0.0996 -0.618238,0.14935 -0.958082,0.14935 -0.333984,0 -0.650468,-0.0497 -0.949296,-0.14935 -0.292968,-0.10547 -0.550939,-0.29321 -0.773597,-0.56274 -0.228515,-0.26369 -0.409903,-0.62111 -0.544669,-1.07231 -0.134765,-0.45701 -0.202054,-1.03682 -0.202054,-1.73992 0,-0.70901 0.06729,-1.28929 0.202054,-1.74049 0.134766,-0.45116 0.316154,-0.81153 0.544669,-1.08106 0.222658,-0.26368 0.480629,-0.44799 0.773597,-0.55345 0.298828,-0.10547 0.615312,-0.15865 0.949296,-0.15865 z m 34.751884,0 c 0.339844,0 0.659253,0.0532 0.958081,0.15865 0.304688,0.10546 0.571436,0.28977 0.799951,0.55345 0.228516,0.26953 0.406979,0.6299 0.535885,1.08106 0.134765,0.4512 0.202055,1.03148 0.202055,1.74049 0,0.7031 -0.06729,1.28291 -0.202055,1.73992 -0.128906,0.4512 -0.307369,0.80862 -0.535885,1.07231 -0.228515,0.26953 -0.495263,0.45727 -0.799951,0.56274 -0.298828,0.0996 -0.618237,0.14935 -0.958081,0.14935 -0.333984,0 -0.650468,-0.0497 -0.949296,-0.14935 -0.292969,-0.10547 -0.550424,-0.29321 -0.77308,-0.56274 -0.228515,-0.26369 -0.410421,-0.62111 -0.545186,-1.07231 -0.134763,-0.45701 -0.202055,-1.03682 -0.202055,-1.73992 0,-0.70901 0.06729,-1.28929 0.202055,-1.74049 0.134765,-0.45116 0.316671,-0.81153 0.545186,-1.08106 0.222656,-0.26368 0.480111,-0.44799 0.77308,-0.55345 0.298828,-0.10547 0.615312,-0.15865 0.949296,-0.15865 z m 250.024012,0.062 c 0.70313,0 1.20152,0.36571 1.49449,1.09813 0.22265,0.55663 0.33383,1.3481 0.33383,2.3735 0,1.13085 -0.24627,1.98323 -0.73846,2.55746 -0.47461,0.55663 -1.18657,0.83508 -2.13579,0.83508 -0.55664,0 -1.10424,-0.0556 -1.64331,-0.1669 v -4.14859 c 0.38086,-0.83204 0.73538,-1.42404 1.0635,-1.77562 0.46875,-0.51562 1.01051,-0.77306 1.62574,-0.77306 z m -107.70453,3.51555 c 0.30469,0 0.53633,0.006 0.69453,0.0175 v 1.84536 c -0.38672,0.47461 -0.76757,0.82913 -1.14256,1.06349 -0.45704,0.28126 -0.94906,0.4222 -1.4764,0.4222 -1.01953,0 -1.529625,-0.46913 -1.529625,-1.40663 0,-0.52147 0.17605,-0.91988 0.527615,-1.19528 0.35742,-0.28123 0.85822,-0.48604 1.50275,-0.61495 0.4336,-0.0879 0.90807,-0.13176 1.42369,-0.13176 z m 32.74994,0 c 0.30469,0 0.53633,0.006 0.69453,0.0175 v 1.84536 c -0.38672,0.47461 -0.76757,0.82913 -1.14257,1.06349 -0.45703,0.28126 -0.94957,0.4222 -1.47691,0.4222 -1.01953,0 -1.5291,-0.46913 -1.52911,-1.40663 0,-0.52147 0.17554,-0.91988 0.5271,-1.19528 0.35743,-0.28123 0.85874,-0.48604 1.50327,-0.61495 0.4336,-0.0879 0.90806,-0.13176 1.42369,-0.13176 z"
       inkscape:export-xdpi="300"
       inkscape:export-ydpi="300" />
    <path
       style="fill:#000000;stroke:#000000;stroke-width:0.0593064"
       d=""
       id="path150112"
       transform="scale(0.26458333)" />
    <path
       style="fill:#000000;stroke:#000000;stroke-width:0.0221319"
       d=""
       id="path150158"
       transform="scale(0.26458333)" />
    <path
       style="fill:#000000;stroke:#000000;stroke-width:0.0885275"
       d=""
       id="path150230"
       transform="scale(0.26458333)" />
  </g>
</svg>
